<?xml version="1.0" standalone="no"?>
<!DOCTYPE svg PUBLIC "-//W3C//DTD SVG 1.1//EN" "http://www.w3.org/Graphics/SVG/1.1/DTD/svg11.dtd" >
<svg xmlns="http://www.w3.org/2000/svg" xmlns:xlink="http://www.w3.org/1999/xlink" version="1.1">
<metadata>
Created by FontForge 20170104 at Thu Apr 20 16:05:45 2017
 By Joshua Finklea
Copyright (c) 2016 by John Deere. All rights reserved.
</metadata>
<defs>
<font id="JDSansPro-Bold" horiz-adv-x="526" >
  <font-face
    font-family="JD Sans Pro Bold"
    font-weight="700"
    font-stretch="normal"
    units-per-em="1000"
    panose-1="2 0 8 0 0 0 0 2 0 0"
    ascent="800"
    descent="-200"
    x-height="479"
    cap-height="689"
    bbox="-169 -257 1220 997"
    underline-thickness="40"
    underline-position="-118"
    unicode-range="U+000D-FB04"
  />
<missing-glyph horiz-adv-x="978"
d="M99 780h780v-780h-780v780zM489 435l279 279h-558zM809 115v550l-275 -275zM169 665v-550l275 275zM210 66h558l-279 279z" />
    <glyph glyph-name="fi" unicode="fi" horiz-adv-x="602"
d="M242 730q20 0 35 -1t27.5 -3t24.5 -5t26 -6l-7 -101q-23 8 -44 12t-45 4q-33 0 -42 -17t-9 -46v-88h131v-100h-131v-379h-118v379h-72v91l72 6v105q0 69 36 109t116 40zM420 0v479h118v-479h-118zM419 561v128h120v-128h-120z" />
    <glyph glyph-name="fl" unicode="fl" horiz-adv-x="598"
d="M242 730q20 0 35 -1t27.5 -3t24.5 -5t26 -6l-7 -101q-23 8 -44 12t-45 4q-33 0 -42 -17t-9 -46v-88h131v-100h-131v-379h-118v379h-72v91l72 6v105q0 69 36 109t116 40zM420 0v720h118v-720h-118z" />
    <glyph glyph-name="f_dotlessi" unicode="f&#x131;" horiz-adv-x="602"
d="M242 730q20 0 35 -1t27.5 -3t24.5 -5t26 -6l-7 -101q-23 8 -44 12t-45 4q-33 0 -42 -17t-9 -46v-88h131v-100h-131v-379h-118v379h-72v92l72 5v105q0 69 36 109t116 40zM420 0v479h118v-479h-118z" />
    <glyph glyph-name=".notdef" horiz-adv-x="978"
d="M99 780h780v-780h-780v780zM489 435l279 279h-558zM809 115v550l-275 -275zM169 665v-550l275 275zM210 66h558l-279 279z" />
    <glyph glyph-name=".null" horiz-adv-x="0"
 />
    <glyph glyph-name=".null" horiz-adv-x="0"
 />
    <glyph glyph-name="nonmarkingreturn" unicode="&#xd;" horiz-adv-x="194"
 />
    <glyph glyph-name="space" unicode=" " horiz-adv-x="194"
 />
    <glyph glyph-name="space" unicode="&#xa0;" horiz-adv-x="194"
 />
    <glyph glyph-name="exclam" unicode="!" horiz-adv-x="355"
d="M226 209h-100l-15 480h131zM110 0v136h135v-136h-135z" />
    <glyph glyph-name="quotedbl" unicode="&#x22;" horiz-adv-x="462"
d="M359 454h-89l-22 235h132zM183 454h-89l-22 235h132z" />
    <glyph glyph-name="numbersign" unicode="#" horiz-adv-x="560"
d="M59 -15l42 184h-95l18 79h95l41 178h-101l18 83h102l42 181h92l-41 -181h104l42 181h89l-41 -181h97l-19 -83h-97l-40 -178h103l-19 -79h-102l-42 -184h-91l42 184h-103l-42 -184h-94zM213 248h103l41 178h-104z" />
    <glyph glyph-name="dollar" unicode="$" horiz-adv-x="540"
d="M228 -138v128q-31 2 -73 6t-84 12l8 113q48 -10 93 -15t77 -5q60 0 84 22t24 56q0 17 -7 31t-21 28q-20 20 -47 36.5t-56 33t-57.5 34.5t-51.5 41t-39.5 55t-16.5 85q0 69 42 115.5t125 57.5v116h84v-114q35 -2 66.5 -5.5t66.5 -8.5l-7 -112q-48 10 -85 14.5t-75 4.5
q-47 0 -69 -18.5t-22 -50.5q0 -29 21 -50q16 -16 44 -34t59.5 -38t63 -41.5t54.5 -44.5q53 -53 53 -134q0 -73 -44 -121.5t-126 -62.5v-134h-84z" />
    <glyph glyph-name="percent" unicode="%" horiz-adv-x="639"
d="M288 543q0 -81 -29 -116t-98 -35t-98 35t-29 116t29 116t98 35t98 -35t29 -116zM214 0h-82l294 689h82zM201 543q0 31 -2 49t-6.5 27t-12.5 11t-19 2t-19 -2t-12.5 -11t-6.5 -27t-2 -49q0 -32 2 -49.5t6.5 -26t12.5 -10.5t19 -2t19 2t12.5 10.5t6.5 26t2 49.5zM605 146
q0 -81 -29 -116t-98 -35t-98 35t-29 116t29 116t98 35t98 -35t29 -116zM518 146q0 31 -2 49t-6.5 27t-12.5 11t-19 2t-19 -2t-12.5 -11t-6.5 -27t-2 -49q0 -32 2 -49.5t6.5 -26t12.5 -10.5t19 -2t19 2t12.5 10.5t6.5 26t2 49.5z" />
    <glyph glyph-name="ampersand" unicode="&#x26;" horiz-adv-x="618"
d="M66 175q0 33 9.5 61.5t26 53t37.5 45t44 38.5q-14 16 -28.5 35t-25.5 41t-18 45.5t-7 48.5q0 28 9 55.5t28.5 49.5t49.5 36t73 14q40 0 70 -12.5t50 -33.5t29.5 -49.5t9.5 -59.5q0 -28 -9 -55t-23.5 -51.5t-32 -45t-34.5 -35.5q8 -11 20.5 -27.5t27.5 -35.5t30 -37.5
t27 -32.5q5 19 8.5 46.5t4.5 54.5h105q-4 -53 -14 -101t-27 -84q20 -18 46.5 -43t46.5 -40l-86 -73q-19 15 -36.5 30.5t-34.5 32.5q-32 -23 -76 -39.5t-89 -16.5q-55 0 -94.5 15t-65.5 40.5t-38.5 59t-12.5 70.5zM284 91q52 0 87 32q-15 17 -32.5 38.5t-35 44t-33.5 43.5
t-27 37q-30 -26 -42 -49.5t-12 -53.5q0 -38 25 -65t70 -27zM218 550q0 -26 14.5 -55t34.5 -55q32 29 39.5 57.5t7.5 49.5q0 64 -49 64q-25 0 -36 -17.5t-11 -43.5z" />
    <glyph glyph-name="quotesingle" unicode="'" horiz-adv-x="276"
d="M183 454h-89l-22 235h132z" />
    <glyph glyph-name="parenleft" unicode="(" horiz-adv-x="301"
d="M250 772q-35 -93 -51.5 -203.5t-16.5 -225.5t16.5 -223.5t50.5 -202.5h-109q-36 88 -55.5 199t-19.5 228q1 118 20.5 228t54.5 200h110z" />
    <glyph glyph-name="parenright" unicode=")" horiz-adv-x="301"
d="M161 772q35 -90 54.5 -200t20.5 -228q0 -117 -19.5 -228t-55.5 -199h-109q34 94 50.5 202.5t16.5 223.5t-16.5 225.5t-51.5 203.5h110z" />
    <glyph glyph-name="asterisk" unicode="*" horiz-adv-x="447"
d="M186 585l-14 135h101l-14 -135l133 56l25 -95l-132 -28l93 -103l-77 -55l-78 118l-78 -118l-77 55l91 103l-129 28l24 95z" />
    <glyph glyph-name="plus" unicode="+" horiz-adv-x="584"
d="M350 291v-176h-117v176h-179v102h179v177h117v-177h180v-102h-180z" />
    <glyph glyph-name="comma" unicode="," horiz-adv-x="264"
d="M204 76q-4 -41 -12 -71t-18.5 -53.5t-23 -42.5t-24.5 -37h-87q23 50 33 94.5t10 96.5l-3 81h127z" />
    <glyph glyph-name="hyphen" unicode="-" horiz-adv-x="397"
d="M60 194v111h277v-111h-277z" />
    <glyph glyph-name="hyphen" unicode="&#xad;" horiz-adv-x="397"
d="M60 194v111h277v-111h-277z" />
    <glyph glyph-name="period" unicode="." horiz-adv-x="286"
d="M75 0v136h136v-136h-136z" />
    <glyph glyph-name="slash" unicode="/" horiz-adv-x="400"
d="M1 -10l266 709h111l-267 -709h-110z" />
    <glyph glyph-name="zero" unicode="0" horiz-adv-x="561"
d="M50 343q0 95 11 162.5t37.5 110.5t71 63t111.5 20t111 -20t70.5 -63t37.5 -110.5t11 -162.5t-11 -161.5t-37.5 -109.5t-70.5 -62.5t-111 -19.5t-111.5 19.5t-71 62.5t-37.5 109.5t-11 161.5zM390 343q0 76 -4 125.5t-16 78.5t-33.5 40t-55.5 11q-35 0 -56 -11t-33 -40
t-16 -78.5t-4 -125.5t4.5 -124.5t16.5 -77t33 -39.5t55 -11q33 0 54.5 11t33.5 39.5t16.5 77t4.5 124.5z" />
    <glyph glyph-name="one" unicode="1" horiz-adv-x="301"
d="M116 0v586h-101v103h219v-689h-118z" />
    <glyph glyph-name="two" unicode="2" horiz-adv-x="483"
d="M184 100q11 2 30 3t35 1h174v-104h-382l-1 88l172 222q15 19 30.5 40.5t28.5 44.5t21.5 48t8.5 51q0 47 -24 75t-78 28q-32 0 -72.5 -3.5t-70.5 -8.5l-4 101q41 7 87 10t78 3q103 0 152.5 -53.5t49.5 -147.5q0 -57 -24.5 -111.5t-62.5 -102.5l-97 -123q-15 -17 -24.5 -29
t-26.5 -30v-2z" />
    <glyph glyph-name="three" unicode="3" horiz-adv-x="460"
d="M204 699q97 0 151 -45.5t54 -143.5q0 -57 -20.5 -93t-44.5 -57v-2q15 -9 28.5 -21.5t24 -30t17 -41t6.5 -54.5q0 -116 -60 -168.5t-175 -52.5q-13 0 -32.5 0.5t-41 1.5t-42.5 2.5t-37 3.5l4 105q26 -3 59.5 -6t69.5 -3q26 0 50.5 3t43.5 15t30.5 35.5t11.5 64.5
q0 50 -25 71t-62 21h-89v102h82q47 0 65.5 24.5t18.5 63.5q0 60 -26.5 81.5t-80.5 21.5q-15 0 -33.5 -1t-37.5 -2.5t-37 -4t-33 -4.5l-4 101q39 7 85 10t80 3z" />
    <glyph glyph-name="four" unicode="4" horiz-adv-x="563"
d="M455 177v-177h-118v177h-294l-4 97l186 425h121l-151 -360q-5 -11 -11.5 -26t-15.5 -33l1 -2q14 1 26 1h26h117l11 189h106v-189h86v-102h-86z" />
    <glyph glyph-name="five" unicode="5" horiz-adv-x="484"
d="M332 210q0 16 -4.5 32.5t-17.5 30t-37 22t-62 8.5h-144v386h360v-102h-246v-173h48q106 0 164 -49t58 -145q0 -115 -63 -172.5t-184 -57.5q-12 0 -31 0.5t-39.5 1.5t-39.5 2.5t-31 3.5l4 105q23 -3 54 -6t63 -3q28 0 54.5 3t47.5 14.5t33.5 34.5t12.5 64z" />
    <glyph glyph-name="six" unicode="6" horiz-adv-x="553"
d="M55 321q0 100 17.5 172t53.5 117.5t92 67t134 21.5q20 0 49 -1t52 -5l-4 -103q-41 6 -93 6q-51 0 -84.5 -13t-53.5 -39t-28.5 -64.5t-8.5 -89.5h2q9 7 23 13.5t31 11t35 7.5t34 3q97 0 151 -49.5t54 -156.5q0 -55 -16.5 -97.5t-46 -72t-69.5 -44.5t-87 -15
q-48 0 -84.5 13.5t-63 37.5t-44 56t-27.5 69t-14 76.5t-4 78.5zM293 320q-32 0 -63 -12.5t-48 -29.5q0 -31 4.5 -63.5t17 -59.5t34 -44.5t55.5 -17.5q47 0 71.5 31.5t24.5 94.5q0 56 -22.5 78.5t-73.5 22.5z" />
    <glyph glyph-name="seven" unicode="7" horiz-adv-x="473"
d="M216 0h-126l185 523q5 14 12 32t13 28l-1 2q-16 -1 -30 -1h-25h-218v105h409l2 -71z" />
    <glyph glyph-name="eight" unicode="8" horiz-adv-x="568"
d="M284 699q44 0 82 -10t66 -32.5t44 -59t16 -90.5q0 -49 -22 -87.5t-53 -59.5v-1q38 -21 66.5 -61.5t28.5 -101.5q0 -58 -18 -97.5t-48.5 -64t-72 -35t-89.5 -10.5t-89.5 10.5t-72 35t-48.5 64t-18 97.5q0 61 28.5 101.5t66.5 61.5v1q-32 21 -53.5 59.5t-21.5 87.5
q0 54 16 90.5t44 59t66 32.5t82 10zM283 602q-42 0 -66 -22t-24 -82q0 -40 21 -65.5t69 -25.5t69.5 25.5t21.5 65.5q0 60 -24.5 82t-66.5 22zM284 89q24 0 44 5t34.5 18t22 35t7.5 57q0 45 -25.5 72t-82.5 27t-82.5 -27t-25.5 -72q0 -35 7.5 -57t22 -35t34.5 -18t44 -5z" />
    <glyph glyph-name="nine" unicode="9" horiz-adv-x="553"
d="M498 371q0 -101 -17.5 -173t-53.5 -118t-92 -67.5t-134 -21.5q-20 0 -49 1t-52 5l4 103q20 -3 44 -4.5t49 -1.5q51 0 84.5 13.5t53.5 39.5t28.5 65t8.5 90h-2q-9 -7 -23 -13.5t-31 -11t-35 -7.5t-34 -3q-97 0 -151 49.5t-54 156.5q0 54 16.5 96.5t45.5 71.5t69.5 44
t87.5 15q73 0 119 -29.5t72 -77t36 -106t10 -116.5zM260 372q32 0 63 12.5t48 29.5q0 30 -4.5 62.5t-17 59.5t-34 44t-55.5 17q-47 0 -71.5 -31.5t-24.5 -92.5q0 -56 22.5 -78.5t73.5 -22.5z" />
    <glyph glyph-name="colon" unicode=":" horiz-adv-x="286"
d="M75 0v136h136v-136h-136zM75 337v136h136v-136h-136z" />
    <glyph glyph-name="semicolon" unicode=";" horiz-adv-x="286"
d="M211 76q-4 -41 -12 -71t-18.5 -53.5t-23 -42.5t-24.5 -37h-87q23 50 33 94.5t10 96.5l-3 81h127zM75 337v136h136v-136h-136z" />
    <glyph glyph-name="less" unicode="&#x3c;" horiz-adv-x="558"
d="M488 570v-115l-270 -113l270 -112v-114l-430 185v84z" />
    <glyph glyph-name="equal" unicode="=" horiz-adv-x="602"
d="M63 384v102h476v-102h-476zM63 198v102h476v-102h-476z" />
    <glyph glyph-name="greater" unicode="&#x3e;" horiz-adv-x="558"
d="M52 116v115l270 113l-270 112v114l430 -185v-84z" />
    <glyph glyph-name="question" unicode="?" horiz-adv-x="402"
d="M97 0v136h136v-136h-136zM381 546q0 -27 -7.5 -48.5t-20 -40t-28.5 -35.5l-32 -34l-12 -14q-30 -32 -48.5 -57.5t-18.5 -50.5q0 -10 1 -23t6 -34h-117q-3 10 -4.5 18t-2 15l-1 14t-0.5 17q0 43 26.5 84.5t64.5 79.5l15 15q20 20 38.5 40.5t18.5 44.5q0 17 -8 27.5t-20 16
t-26.5 7.5t-27.5 2q-25 0 -62 -4.5t-69 -10.5l-6 110q16 3 37.5 5t42.5 3.5t40 2.5t31 1q92 0 141 -39t49 -112z" />
    <glyph glyph-name="at" unicode="@" horiz-adv-x="889"
d="M492 55q-20 -15 -45.5 -27t-70.5 -12q-31 0 -58 11.5t-46.5 34t-30.5 55.5t-11 75q0 67 16.5 124t49.5 99t81.5 65.5t113.5 23.5q43 0 88.5 -10t79.5 -23l-66 -361q40 0 69 20.5t47.5 56t27 81.5t8.5 97q0 128 -66 189t-181 61q-80 0 -145.5 -34.5t-112 -93.5t-72 -139
t-25.5 -171q0 -71 17.5 -121t49 -82t76 -47t98.5 -15q29 0 61 4t62 11t55 14.5t40 15.5l27 -83q-23 -10 -51.5 -19.5t-60.5 -16.5t-65.5 -11t-65.5 -4q-75 0 -136.5 19.5t-106 62.5t-69 110t-24.5 162q0 120 34.5 216.5t95 164.5t142 105t176.5 37q85 0 149 -22.5
t106.5 -65.5t64 -104t21.5 -138q0 -78 -17 -142t-48.5 -110t-76 -71.5t-99.5 -25.5h-109zM406 110q31 0 54 10.5t39 25.5l46 252q-17 5 -34 7.5t-39 2.5q-25 0 -49.5 -11.5t-43.5 -37t-30.5 -65t-11.5 -96.5q0 -42 17.5 -65t51.5 -23z" />
    <glyph glyph-name="A" unicode="A" horiz-adv-x="562"
d="M424 0l-35 134h-215l-35 -134h-129l195 689h152l195 -689h-128zM298 494q-2 9 -4 19t-4 22.5t-4 28.5t-5 39q-3 -23 -5 -39t-4 -28.5t-4 -22t-4 -19.5l-61 -250h156z" />
    <glyph glyph-name="B" unicode="B" horiz-adv-x="562"
d="M518 197q0 -49 -12.5 -89t-40.5 -68q-23 -22 -56 -31t-82 -9h-252v689h260q87 0 126 -41q26 -26 35.5 -62.5t9.5 -76.5q0 -48 -18 -87.5t-56 -61.5v-2q19 -6 35 -21.5t27.5 -37.5t17.5 -48t6 -54zM381 497q0 45 -16 65t-48 21h-118v-176h108q46 -1 60 21.5t14 68.5z
M391 197q0 22 -2.5 41t-10 32t-21.5 20.5t-37 7.5h-121v-190h121q38 0 54.5 20.5t16.5 68.5z" />
    <glyph glyph-name="C" unicode="C" horiz-adv-x="527"
d="M497 6q-43 -7 -78.5 -11t-83.5 -4q-79 0 -133.5 21t-88 64.5t-48.5 110t-15 158.5q0 91 15 158t48.5 110t88 64t133.5 21q48 0 83.5 -4t78.5 -11l-9 -115q-26 4 -46 7.5t-37.5 6t-34.5 3.5t-36 1q-41 0 -70.5 -9.5t-48.5 -35.5t-28 -73t-9 -123t9 -123.5t28 -73.5
t48.5 -35.5t70.5 -9.5q19 0 36 1.5t34.5 3.5t37.5 5.5t46 8.5z" />
    <glyph glyph-name="D" unicode="D" horiz-adv-x="608"
d="M558 344q0 -96 -16.5 -172.5t-60.5 -118.5q-21 -19 -40 -29.5t-40.5 -16t-47 -6.5t-59.5 -1h-219v689h219q34 0 59.5 -1t47.5 -6.5t41 -16t39 -29.5q44 -42 60.5 -119t16.5 -173zM428 346q0 83 -8.5 133t-30.5 73q-17 17 -42.5 20.5t-73.5 3.5h-73v-463h73q46 0 73 4
t41 18q23 23 32 75t9 136z" />
    <glyph glyph-name="E" unicode="E" horiz-adv-x="516"
d="M75 0v689h400v-110h-276v-170h189v-110h-189v-189h276v-110h-400z" />
    <glyph glyph-name="F" unicode="F" horiz-adv-x="485"
d="M199 579v-170h189v-110h-189v-299h-124v689h380v-110h-256z" />
    <glyph glyph-name="G" unicode="G" horiz-adv-x="607"
d="M321 384h230v-362q-47 -12 -102 -21.5t-104 -9.5q-71 0 -124 16.5t-89 51.5q-45 45 -63.5 116.5t-18.5 174.5q0 92 16.5 158t52.5 108t92 62t134 20q24 0 44 -1t40.5 -2.5t42 -4.5t47.5 -6l-9 -115q-46 8 -85 12.5t-81 4.5q-41 0 -72 -9t-52 -34.5t-31.5 -72
t-10.5 -121.5q0 -87 13 -137.5t40 -76.5q20 -19 49 -25.5t64 -6.5q20 0 42 2t42 8v161h-107v110z" />
    <glyph glyph-name="H" unicode="H" horiz-adv-x="643"
d="M444 0v299h-245v-299h-124v689h124v-280h245v280h123v-689h-123z" />
    <glyph glyph-name="I" unicode="I" horiz-adv-x="275"
d="M75 0v689h124v-689h-124z" />
    <glyph glyph-name="J" unicode="J" horiz-adv-x="371"
d="M301 181q0 -54 -7.5 -90t-26 -58.5t-50.5 -32t-81 -9.5q-34 0 -66.5 2.5t-69.5 7.5l7 112q29 -6 60 -8.5t55 -2.5q18 0 29 2.5t17 10.5t7.5 22t1.5 38v514h124v-508z" />
    <glyph glyph-name="K" unicode="K" horiz-adv-x="555"
d="M417 0l-159 303l-59 -60v-243h-124v689h124v-313l214 313h129l-197 -285l215 -404h-143z" />
    <glyph glyph-name="L" unicode="L" horiz-adv-x="489"
d="M75 0v689h124v-579h267v-110h-391z" />
    <glyph glyph-name="M" unicode="M" horiz-adv-x="855"
d="M659 0v484l6 125q-5 -31 -13 -62t-17 -63l-139 -484h-140l-140 487q-4 14 -10.5 41t-18.5 81l6 -125v-484h-118v689h188l143 -495q6 -22 11.5 -50t7.5 -57q3 29 8 57t11 50l141 495h195v-689h-121z" />
    <glyph glyph-name="N" unicode="N" horiz-adv-x="676"
d="M446 235q8 -17 15 -40t15 -44l15 -49l-4 51q-2 20 -3 41.5t-1 35.5v459h118v-689h-168l-206 464q-7 16 -14 36.5t-14 40.5l-14 46l4 -49q2 -20 3 -41t1 -34v-463h-118v689h168z" />
    <glyph glyph-name="O" unicode="O" horiz-adv-x="639"
d="M589 344q0 -91 -12 -157.5t-43 -110t-83 -64.5t-131 -21q-80 0 -132 21t-83 64.5t-43 110t-12 157.5t12 158t43 110.5t83 64.5t132 21q79 0 131 -21.5t83 -65t43 -110t12 -157.5zM459 344q0 77 -7 124.5t-23 73.5t-43 35t-67 9t-67 -9t-43.5 -35t-23.5 -73.5t-7 -124.5
t7 -124t23.5 -72.5t43.5 -34.5t67 -9t67 9t43 34.5t23 72.5t7 124z" />
    <glyph glyph-name="P" unicode="P" horiz-adv-x="539"
d="M515 472q0 -51 -14 -98t-44 -77q-23 -23 -54.5 -32.5t-77.5 -9.5h-126v-255h-124v689h248q45 0 79.5 -10.5t56.5 -32.5q32 -32 44 -78t12 -96zM386 472q0 48 -14.5 77.5t-59.5 29.5h-113v-214h113q47 0 60.5 29t13.5 78z" />
    <glyph glyph-name="Q" unicode="Q" horiz-adv-x="639"
d="M589 344q0 -112 -18.5 -186t-66.5 -115l83 -113h-128l-51 69q-20 -4 -41.5 -6t-46.5 -2q-80 0 -132 21t-83 64.5t-43 110t-12 157.5t12 158t43 110.5t83 64.5t132 21q79 0 131 -21.5t83 -65t43 -110t12 -157.5zM459 344q0 77 -7 124.5t-23 73.5t-43 35t-67 9t-67 -9
t-43.5 -35t-23.5 -73.5t-7 -124.5t7 -124t23.5 -72.5t43.5 -34.5t67 -9h12l-78 106h128l47 -64q17 26 24 73t7 125z" />
    <glyph glyph-name="R" unicode="R" horiz-adv-x="551"
d="M387 0l-109 271h-80v-271h-123v689h250q54 0 91 -16t59 -43.5t31.5 -64.5t9.5 -79q0 -87 -29 -137t-85 -67l120 -282h-135zM386 483q0 48 -14.5 72t-59.5 24h-114v-198h115q46 0 59.5 26.5t13.5 75.5z" />
    <glyph glyph-name="S" unicode="S" horiz-adv-x="493"
d="M458 180q0 -86 -61 -138t-173 -52q-29 0 -78.5 4t-98.5 14l8 113q48 -10 93 -15t77 -5q60 0 84 22t24 56q0 17 -7 31t-21 28q-20 20 -47 36.5t-56 33t-57.5 34.5t-51.5 41t-39.5 55t-16.5 85q0 78 54.5 127t162.5 49q46 0 85.5 -4t81.5 -11l-7 -112q-48 10 -85 14.5
t-75 4.5q-47 0 -69 -18.5t-22 -50.5q0 -29 21 -50q16 -16 44 -34t59.5 -38t63 -41.5t54.5 -44.5q53 -53 53 -134z" />
    <glyph glyph-name="T" unicode="T" horiz-adv-x="490"
d="M307 579v-579h-123v579h-168v110h458v-110h-167z" />
    <glyph glyph-name="U" unicode="U" horiz-adv-x="604"
d="M542 196q0 -63 -24.5 -103.5t-60.5 -63t-78 -31t-77 -8.5t-77 8.5t-78 31t-60.5 63t-24.5 103.5v493h123v-493q0 -50 33 -72t85 -22q51 0 83.5 22t32.5 72v493h123v-493z" />
    <glyph glyph-name="V" unicode="V" horiz-adv-x="573"
d="M360 0h-149l-199 689h131l127 -486q5 -19 10.5 -49t7.5 -49q1 10 2.5 23t4 27t5 26.5t4.5 21.5l128 486h129z" />
    <glyph glyph-name="W" unicode="W" horiz-adv-x="856"
d="M17 689h121l85 -449q3 -15 5.5 -40.5t4.5 -49.5l5 -58l6 59q2 25 5.5 49.5t6.5 39.5l89 449h163l92 -449q3 -15 5.5 -40t4.5 -49l5 -58l2 30t3 29q3 25 6 49.5t6 39.5l85 448h122l-143 -689h-153l-99 489q-3 14 -6 36.5t-6 42.5q-2 13 -2.5 24t-1.5 24l-5 -48
q-3 -20 -5.5 -41t-5.5 -36l-98 -491h-153z" />
    <glyph glyph-name="X" unicode="X" horiz-adv-x="597"
d="M439 0l-141 249l-139 -249h-139l208 349l-195 340h140l128 -240l128 240h138l-198 -340l208 -349h-138z" />
    <glyph glyph-name="Y" unicode="Y" horiz-adv-x="558"
d="M341 271v-271h-124v272l-207 417h137l135 -291l128 291h138z" />
    <glyph glyph-name="Z" unicode="Z" horiz-adv-x="510"
d="M32 0v78l289 501h-289v110h446v-73l-286 -506h286v-110h-446z" />
    <glyph glyph-name="bracketleft" unicode="[" horiz-adv-x="325"
d="M80 -83v855h212v-101h-98v-653h98v-101h-212z" />
    <glyph glyph-name="backslash" unicode="\" horiz-adv-x="400"
d="M271 -10l-267 709h111l266 -709h-110z" />
    <glyph glyph-name="bracketright" unicode="]" horiz-adv-x="325"
d="M15 -83v101h98v653h-98v101h212v-855h-212z" />
    <glyph glyph-name="asciicircum" unicode="^" horiz-adv-x="581"
d="M518 252h-111l-116 317l-117 -317h-111l183 437h90z" />
    <glyph glyph-name="underscore" unicode="_"
d="M7 -152v79h512v-79h-512z" />
    <glyph glyph-name="grave" unicode="`"
d="M150 706h122l83 -156h-83z" />
    <glyph glyph-name="a" unicode="a" horiz-adv-x="462"
d="M312 0l-12 30q-27 -14 -58.5 -26.5t-77.5 -12.5q-69 0 -102.5 40.5t-33.5 101.5q0 57 21.5 89.5t56.5 49t79 21t90 4.5h15v30q0 37 -20.5 51t-55.5 14q-33 0 -71.5 -8t-67.5 -17l-9 101q35 8 77 14t89 6q37 0 69 -7t55 -24t36.5 -44.5t13.5 -69.5v-343h-94zM277 217
q-68 0 -100 -15t-32 -58q0 -28 13 -44t41 -16q26 0 48 6.5t43 14.5v112h-13z" />
    <glyph glyph-name="b" unicode="b" horiz-adv-x="504"
d="M464 244q0 -53 -9 -99t-29 -80t-53.5 -54t-81.5 -20q-40 0 -70.5 11t-55.5 28l-9 -30h-96v720h118v-265q20 12 49 22.5t66 10.5q48 0 80.5 -16t52.5 -47.5t29 -77t9 -103.5zM343 244q0 45 -4 73t-13 43.5t-22 21t-31 5.5q-27 0 -51.5 -9.5t-43.5 -20.5v-235
q16 -11 40 -20.5t56 -9.5q37 0 53 34t16 118z" />
    <glyph glyph-name="c" unicode="c" horiz-adv-x="408"
d="M378 3q-15 -2 -31.5 -4.5t-33 -4t-31.5 -2.5t-26 -1q-112 0 -164 58.5t-52 186.5t52 189.5t164 61.5q26 0 59.5 -3.5t62.5 -7.5l-7 -102q-33 6 -61.5 9.5t-53.5 3.5q-23 0 -40.5 -6t-29 -22.5t-17 -45t-5.5 -74.5q0 -45 5.5 -74t17 -45t29 -22t40.5 -6q25 0 52.5 3.5
t62.5 9.5z" />
    <glyph glyph-name="d" unicode="d" horiz-adv-x="504"
d="M213 487q37 0 65 -10.5t48 -22.5v266h118v-720h-96l-9 30q-25 -17 -56.5 -28.5t-71.5 -11.5q-48 0 -80.5 16t-52.5 47.5t-29 76.5t-9 104q0 53 8.5 99t29 80.5t53.5 54t82 19.5zM161 234q0 -45 4 -72.5t13 -43.5t22 -21.5t31 -5.5q28 0 52 10t43 21v234q-16 11 -40 20.5
t-56 9.5q-37 0 -53 -34t-16 -118z" />
    <glyph glyph-name="e" unicode="e" horiz-adv-x="460"
d="M423 212h-262q0 -69 26 -95t70 -26q21 0 38 1.5t33 4t33.5 6.5t40.5 9l6 -103q-42 -9 -77.5 -13.5t-74.5 -4.5q-112 0 -164 59t-52 187q0 127 47 188.5t157 61.5q55 0 90 -15.5t55 -43.5t27 -66t7 -84v-66zM309 295q0 18 -2 36t-8.5 32.5t-19.5 23t-36 8.5q-42 0 -58 -25
t-20 -75h144z" />
    <glyph glyph-name="f" unicode="f" horiz-adv-x="375"
d="M242 730q41 0 72 -5t60 -10l-7 -101q-29 6 -57 11t-57 5t-37 -17t-8 -46v-88h141v-100h-141v-379h-118v379h-72v91l72 6v105q0 69 36 109t116 40z" />
    <glyph glyph-name="g" unicode="g" horiz-adv-x="509"
d="M161 234q0 -45 4 -72.5t13 -43.5t22 -21.5t31 -5.5q28 0 52 9.5t43 20.5v235q-16 11 -40 20.5t-56 9.5q-37 0 -53 -34t-16 -118zM327 21q-20 -12 -48 -21.5t-68 -9.5q-48 0 -80.5 16t-52.5 47.5t-29 76.5t-9 104q0 53 8.5 99t29 80.5t53.5 54t82 19.5q40 0 70.5 -11
t55.5 -28l9 31h96v-529q0 -46 -10 -81t-32.5 -59t-59.5 -36t-92 -12t-94.5 5t-75.5 13l7 102q47 -9 80 -14.5t74 -5.5q48 0 67 21.5t19 72.5v65z" />
    <glyph glyph-name="h" unicode="h" horiz-adv-x="500"
d="M445 0h-118v344q0 23 -11.5 33t-29.5 10q-29 0 -59.5 -9.5t-48.5 -21.5v-356h-118v720h118v-266q28 14 60 23.5t73 9.5q25 0 49.5 -6.5t43 -22t30 -42.5t11.5 -67v-349z" />
    <glyph glyph-name="i" unicode="i" horiz-adv-x="246"
d="M64 0v479h118v-479h-118zM63 561v128h120v-128h-120z" />
    <glyph glyph-name="j" unicode="j" horiz-adv-x="248"
d="M183 -61q0 -51 -7.5 -85t-24.5 -54t-43.5 -28.5t-65.5 -8.5q-22 0 -47.5 2t-48.5 7l6 108q17 -4 35.5 -6.5t36.5 -2.5q28 0 34.5 17t6.5 47v544h118v-540zM64 561v128h120v-128h-120z" />
    <glyph glyph-name="k" unicode="k" horiz-adv-x="459"
d="M334 0l-111 220l-45 -49v-171h-118v720h118v-437q4 12 16 32.5t23 34.5l95 129h132l-144 -180l162 -299h-128z" />
    <glyph glyph-name="l" unicode="l" horiz-adv-x="238"
d="M60 0v720h118v-720h-118z" />
    <glyph glyph-name="m" unicode="m" horiz-adv-x="745"
d="M156 479l8 -32q29 16 62.5 28t78.5 12q29 0 56.5 -9t45.5 -34q32 17 69 30t85 13q25 0 48 -6.5t41 -22t29 -42.5t11 -67v-349h-118v344q0 23 -10.5 33t-27.5 10q-28 0 -55.5 -9.5t-44.5 -21.5v-356h-118v344q0 23 -10.5 33t-27.5 10q-27 0 -55 -9.5t-45 -21.5v-356h-118
v479h96z" />
    <glyph glyph-name="n" unicode="n" horiz-adv-x="500"
d="M445 0h-118v344q0 23 -11.5 33t-29.5 10q-29 0 -59.5 -9.5t-48.5 -21.5v-356h-118v479h96l8 -32q29 16 65 28t82 12q25 0 49.5 -6.5t43 -22t30 -42.5t11.5 -67v-349z" />
    <glyph glyph-name="o" unicode="o" horiz-adv-x="512"
d="M472 239q0 -128 -51.5 -188t-164.5 -60q-112 0 -164 60.5t-52 188.5t51.5 187.5t164.5 59.5t164.5 -59.5t51.5 -188.5zM348 239q0 46 -5.5 74.5t-17 45t-29 22.5t-40.5 6t-40.5 -6t-29 -22t-17 -45t-5.5 -74q0 -46 5.5 -74.5t17 -45t29 -22.5t40.5 -6q24 0 41 6t28.5 22
t17 45t5.5 74z" />
    <glyph glyph-name="p" unicode="p" horiz-adv-x="504"
d="M291 -9q-37 0 -65 10.5t-48 22.5v-256h-118v711h96l9 -30q25 17 56.5 28t71.5 11q48 0 80.5 -16t52.5 -47.5t29 -77t9 -103.5q0 -53 -9 -99t-29 -80t-53 -54t-82 -20zM343 244q0 45 -4 72.5t-13 43.5t-22 21.5t-31 5.5q-27 0 -51.5 -9.5t-43.5 -20.5v-235
q16 -11 40 -20.5t56 -9.5q37 0 53 34t16 118z" />
    <glyph glyph-name="q" unicode="q" horiz-adv-x="504"
d="M326 -232v252q-23 -14 -51.5 -22t-63.5 -8q-48 0 -80.5 16t-52.5 47.5t-29 76.5t-9 104q0 53 8.5 99t29 80.5t53.5 54t82 19.5q40 0 70.5 -11t55.5 -28l9 31h96v-711h-118zM161 234q0 -45 4 -72.5t13 -43.5t22 -21.5t31 -5.5q28 0 52 9.5t43 20.5v235q-16 11 -40 20.5
t-56 9.5q-37 0 -53 -34t-16 -118z" />
    <glyph glyph-name="r" unicode="r" horiz-adv-x="349"
d="M268 487q18 0 35 -2.5t31 -5.5l-5 -113q-39 12 -72 12q-25 0 -45 -10t-34 -23v-345h-118v479h96l11 -48q17 24 41.5 40t59.5 16z" />
    <glyph glyph-name="s" unicode="s" horiz-adv-x="402"
d="M372 133q0 -36 -14.5 -63t-39 -44.5t-56 -26t-64.5 -8.5q-15 0 -35 1t-41 3.5t-40.5 5.5t-32.5 6l7 100q38 -8 76 -14t62 -6q34 0 48 10.5t14 28.5q0 11 -4 17.5t-10 12.5q-13 13 -34.5 24t-46 23t-48.5 25t-40 30q-17 17 -27.5 39.5t-10.5 56.5q0 37 16 62t41.5 41
t57 23t61.5 7q28 0 63 -3.5t68 -10.5l-8 -98q-33 7 -68 11t-60 4q-26 0 -39.5 -10t-13.5 -26q0 -10 3 -15.5t10 -12.5q10 -11 32 -22.5t47.5 -24.5t50 -27.5t39.5 -29.5t26 -37t11 -52z" />
    <glyph glyph-name="t" unicode="t" horiz-adv-x="370"
d="M210 379v-238q0 -23 5.5 -34.5t30.5 -11.5q9 0 22 1t26 2.5t25 3.5t21 4l4 -101q-31 -7 -64.5 -10t-64.5 -3q-64 0 -93.5 28.5t-29.5 81.5v277h-72v92l72 5v141h118v-138h131v-100h-131z" />
    <glyph glyph-name="u" unicode="u" horiz-adv-x="500"
d="M55 479h118v-344q0 -23 11.5 -33t29.5 -10q29 0 59.5 9.5t48.5 21.5v356h118v-479h-96l-8 32q-30 -16 -65.5 -28t-81.5 -12q-26 0 -50 6.5t-42.5 22t-30 42t-11.5 67.5v349z" />
    <glyph glyph-name="v" unicode="v" horiz-adv-x="476"
d="M307 0h-136l-153 479h119l85 -295q3 -11 5.5 -25t5 -27.5t4 -25.5t2.5 -21q1 9 2.5 21t3.5 25.5t4.5 27t5.5 23.5l83 297h120z" />
    <glyph glyph-name="w" unicode="w" horiz-adv-x="704"
d="M413 479l68 -297q2 -9 4 -23t4 -28.5t3.5 -27t1.5 -18.5q1 6 2.5 18.5t3 27t4 28.5t4.5 23l65 297h116l-122 -479h-136l-67 297q-2 5 -3.5 15t-3 21.5t-3 24t-2.5 22.5q-1 -10 -2.5 -22.5t-3 -24.5t-3.5 -21.5t-3 -14.5l-68 -297h-135l-122 479h116l65 -297q2 -9 4 -23
t4 -28.5t3.5 -27t2.5 -18.5q0 6 1.5 18.5t3.5 27t4 28.5t4 23l68 297h122z" />
    <glyph glyph-name="x" unicode="x" horiz-adv-x="474"
d="M306 240l143 -240h-129l-84 158l-82 -158h-130l144 240l-134 239h128l74 -152l78 152h125z" />
    <glyph glyph-name="y" unicode="y" horiz-adv-x="476"
d="M18 479h124l85 -274q1 -5 3.5 -16.5t5.5 -25t5 -27t4 -22.5q1 9 3 22t4.5 26.5t5 25t4.5 17.5l76 274h120l-168 -544q-15 -47 -31 -80t-36 -53.5t-45 -30t-58 -9.5q-25 0 -54 2.5t-47 7.5l9 99q14 -3 32 -5t37 -2q16 0 27 3t20 12.5t17.5 26.5t17.5 44l10 40z" />
    <glyph glyph-name="z" unicode="z" horiz-adv-x="418"
d="M383 0h-348v76l196 303h-185v100h337v-76l-196 -303h196v-100z" />
    <glyph glyph-name="braceleft" unicode="{" horiz-adv-x="335"
d="M233 267q0 -17 -1.5 -52t-3.5 -72t-3.5 -67.5t-1.5 -36.5q0 -20 20 -20h60v-101h-122q-24 0 -38.5 5.5t-22.5 14.5t-10.5 21.5t-2.5 27.5q0 13 1.5 46t3.5 70t3.5 71t1.5 50q0 32 -23.5 50t-87.5 18v104q63 0 87 19t24 51q0 16 -1.5 50t-3.5 71t-3.5 69.5t-1.5 46.5
q0 15 2.5 27.5t10.5 21.5t22.5 14.5t38.5 5.5h122v-101h-60q-20 0 -20 -20q0 -6 1.5 -36.5t3.5 -67.5t3.5 -72.5t1.5 -51.5q0 -29 -17 -50t-60 -28q43 -7 60 -28t17 -50z" />
    <glyph glyph-name="bar" unicode="|" horiz-adv-x="269"
d="M85 720h99v-953h-99v953z" />
    <glyph glyph-name="braceright" unicode="}" horiz-adv-x="335"
d="M102 267q0 29 17 50t60 28q-43 7 -60 28t-17 50q0 16 1.5 51.5t3.5 72.5t3.5 67.5t1.5 36.5q0 20 -20 20h-60v101h122q24 0 38.5 -5.5t22.5 -14.5t10.5 -21.5t2.5 -27.5q0 -14 -1.5 -46.5t-3.5 -69.5t-3.5 -71t-1.5 -50q0 -32 24 -51t87 -19v-104q-64 0 -87.5 -18
t-23.5 -50q0 -16 1.5 -50t3.5 -71t3.5 -70t1.5 -46q0 -15 -2.5 -27.5t-10.5 -21.5t-22.5 -14.5t-38.5 -5.5h-122v101h60q20 0 20 20q0 6 -1.5 36.5t-3.5 67.5t-3.5 72t-1.5 52z" />
    <glyph glyph-name="asciitilde" unicode="~" horiz-adv-x="529"
d="M369 266q-26 0 -52 7t-52.5 16t-53 16t-51.5 7q-29 0 -58.5 -14t-55.5 -35v106q23 20 54.5 31.5t59.5 11.5q27 0 53.5 -7t52.5 -15.5t51.5 -15.5t51.5 -7q28 0 58 12.5t56 32.5v-100q-25 -20 -55.5 -33t-58.5 -13z" />
    <glyph glyph-name="exclamdown" unicode="&#xa1;" horiz-adv-x="355"
d="M242 -210h-131l15 480h100zM245 479v-136h-135v136h135z" />
    <glyph glyph-name="cent" unicode="&#xa2;"
d="M426 484q-33 6 -61.5 9.5t-53.5 3.5q-23 0 -40.5 -6t-29 -22t-17 -45t-5.5 -75q0 -45 5.5 -74t17 -45t29 -22t40.5 -6q25 0 52.5 3.5t62.5 9.5l7 -102q-22 -5 -47 -7t-47 -4v-102h-75v104q-88 12 -128.5 69.5t-40.5 172.5q0 114 40.5 175t128.5 73v95h76v-93q23 -1 47 -4
t46 -6z" />
    <glyph glyph-name="sterling" unicode="&#xa3;" horiz-adv-x="544"
d="M62 404h77v101q0 54 13.5 90.5t40.5 59.5t67 33t93 10q26 0 66 -3.5t77 -10.5l-5 -110q-35 6 -71.5 10t-63.5 4q-20 0 -37 -3.5t-29.5 -12.5t-19.5 -25.5t-7 -42.5v-100h165v-97h-165v-137q0 -13 -3 -33t-10 -31v-1q11 2 24.5 2.5t26.5 0.5h218v-108h-478v108h87
q8 9 9.5 23.5t1.5 25.5v150h-77v97z" />
    <glyph glyph-name="currency" unicode="&#xa4;" horiz-adv-x="770"
d="M103 338q0 45 13 85.5t37 75.5l-97 97l73 75l98 -98q35 23 74.5 35t84.5 12q44 0 84.5 -12.5t74.5 -35.5l99 99l73 -75l-98 -98q23 -34 36 -74.5t13 -85.5t-13 -85.5t-36 -75.5l98 -97l-73 -75l-99 99q-34 -23 -74.5 -36t-84.5 -13q-45 0 -84.5 12.5t-74.5 35.5l-98 -98
l-73 75l97 96q-24 35 -37 75.5t-13 86.5zM213 338q0 -36 13.5 -67.5t37 -55t55 -37t67.5 -13.5t67 13.5t54.5 37t37 55t13.5 67.5t-13.5 67.5t-37 54.5t-54.5 36.5t-67 13.5t-67.5 -13.5t-55 -36.5t-37 -54.5t-13.5 -67.5z" />
    <glyph glyph-name="yen" unicode="&#xa5;" horiz-adv-x="548"
d="M421 444h107v-81h-147l-25 -52h172v-80h-192v-231h-124v231h-197v80h177l-26 52h-151v81h111l-121 245h137l135 -291l128 291h138z" />
    <glyph glyph-name="brokenbar" unicode="&#xa6;" horiz-adv-x="269"
d="M85 315v405h99v-405h-99zM85 -232v405h99v-405h-99z" />
    <glyph glyph-name="section" unicode="&#xa7;" horiz-adv-x="431"
d="M394 0q0 -86 -53 -124t-150 -38q-42 0 -79 3t-75 8l7 103q35 -6 74 -10.5t74 -4.5q57 0 77.5 16.5t20.5 42.5q0 20 -9.5 34t-35.5 31l-106 69q-20 13 -37.5 27t-31 31.5t-21.5 39.5t-8 51q0 48 22 81t62 53q-18 12 -33 23.5t-26.5 27.5t-18 36.5t-6.5 50.5q0 74 48 111
t134 37q31 0 67.5 -3t75.5 -9l-7 -106q-36 7 -72 12t-65 5q-41 0 -59 -12t-18 -34q0 -20 10 -32t27 -23l113 -73q19 -13 37 -26.5t31.5 -30.5t22 -40t8.5 -54q0 -52 -20 -86t-55 -54q32 -23 53.5 -54.5t21.5 -78.5zM290 268q0 20 -8.5 35t-33.5 30l-41 25q-36 -11 -49 -31
t-13 -46q0 -19 9 -32t26 -24l45 -30q65 18 65 73z" />
    <glyph glyph-name="dieresis" unicode="&#xa8;"
d="M305 569v110h110v-110h-110zM114 569v110h109v-110h-109z" />
    <glyph glyph-name="copyright" unicode="&#xa9;" horiz-adv-x="788"
d="M50 338q0 94 24.5 160t69.5 107.5t108.5 60.5t141.5 19t141.5 -19t108.5 -60.5t69.5 -107.5t24.5 -160q0 -95 -25 -161t-70 -107.5t-109 -60.5t-142 -19t-141 19t-108 60.5t-69 107.5t-24 161zM144 338q0 -77 19 -128t52.5 -81t79.5 -42.5t99 -12.5t99 12.5t79.5 42.5
t52.5 81t19 128q0 76 -19 127t-52.5 81t-79.5 42.5t-99 12.5t-99 -12.5t-79.5 -42.5t-52.5 -81t-19 -127zM239 339q0 104 43.5 147.5t133.5 43.5q17 0 45 -2.5t49 -7.5l-6 -78q-10 2 -22 3.5l-24 3t-22.5 2t-16.5 0.5q-23 0 -39 -4t-26.5 -16t-15.5 -34t-5 -58t5 -58
t15.5 -34t26.5 -16t39 -4q6 0 16.5 0.5t23 2l25 3t22.5 3.5l6 -78q-11 -2 -24 -4t-26 -3.5t-25 -2t-21 -0.5q-90 0 -133.5 43.5t-43.5 147.5z" />
    <glyph glyph-name="ordfeminine" unicode="&#xaa;" horiz-adv-x="313"
d="M210 371l-6 22h-1q-20 -13 -39.5 -20.5t-42.5 -7.5q-48 0 -73.5 26t-25.5 70q0 37 15.5 57.5t40.5 31t55 13t60 3.5v23q0 17 -7 26.5t-37 9.5q-14 0 -40.5 -2t-57.5 -11l-4 70q35 8 59 11t51 3q24 0 45.5 -4t38 -14t26 -26t9.5 -41v-240h-66zM193 513q-17 0 -32.5 -1.5
t-27.5 -6t-19 -13.5t-7 -24q0 -33 34 -33q29 0 52 15v63z" />
    <glyph glyph-name="guillemotleft" unicode="&#xab;" horiz-adv-x="581"
d="M152 229l164 -188h-125l-154 181v14l162 181h124zM369 229l164 -188h-125l-154 181v14l162 181h124z" />
    <glyph glyph-name="logicalnot" unicode="&#xac;" horiz-adv-x="503"
d="M452 204h-117v190h-300v106h417v-296z" />
    <glyph glyph-name="registered" unicode="&#xae;" horiz-adv-x="788"
d="M50 338q0 94 24.5 160t69.5 107.5t108.5 60.5t141.5 19t141.5 -19t108.5 -60.5t69.5 -107.5t24.5 -160q0 -95 -25 -161t-70 -107.5t-109 -60.5t-142 -19t-141 19t-108 60.5t-69 107.5t-24 161zM144 338q0 -77 19 -128t52.5 -81t79.5 -42.5t99 -12.5t99 12.5t79.5 42.5
t52.5 81t19 128q0 76 -19 127t-52.5 81t-79.5 42.5t-99 12.5t-99 -12.5t-79.5 -42.5t-52.5 -81t-19 -127zM265 151v369h165q31 0 52 -9t34 -24.5t19 -36.5t6 -46q0 -40 -13.5 -68.5t-51.5 -39.5l77 -145h-99l-68 137h-30v-137h-91zM447 404q0 40 -29 40h-62v-79h62
q29 0 29 39z" />
    <glyph glyph-name="macron" unicode="&#xaf;"
d="M422 583h-317v89h317v-89z" />
    <glyph glyph-name="degree" unicode="&#xb0;" horiz-adv-x="405"
d="M341 548q0 -29 -10.5 -54t-29.5 -44t-44 -29.5t-54 -10.5t-54 10.5t-44 29.5t-30 44t-11 54q0 28 11 53t30 43.5t44 29.5t54 11t54 -11t44 -29.5t29.5 -43.5t10.5 -53zM260 548q0 23 -17 40t-40 17q-25 0 -41.5 -17t-16.5 -40q0 -24 16.5 -40.5t41.5 -16.5q23 0 40 16.5
t17 40.5z" />
    <glyph glyph-name="plusminus" unicode="&#xb1;" horiz-adv-x="602"
d="M63 0v97h476v-97h-476zM350 301v-166h-117v166h-179v102h179v167h117v-167h180v-102h-180z" />
    <glyph glyph-name="uni00B2" unicode="&#xb2;" horiz-adv-x="297"
d="M140 389q18 3 35 3h87v-69h-223v62l92 112q16 20 28.5 39.5t12.5 41.5q0 24 -15 35t-36 11q-18 0 -35.5 -2.5t-36.5 -4.5l-3 71q9 2 21.5 3t25.5 2t25 1h21q54 0 86.5 -26t32.5 -83q0 -39 -14.5 -68t-39.5 -58l-38 -45z" />
    <glyph glyph-name="uni00B3" unicode="&#xb3;" horiz-adv-x="283"
d="M253 434q0 -35 -11 -57.5t-30.5 -35.5t-45.5 -18.5t-55 -5.5q-20 0 -43.5 1t-40.5 4l4 69q17 -2 40.5 -3.5t39.5 -1.5q25 0 41.5 9.5t16.5 37.5q0 26 -14.5 35t-32.5 9h-49v70h47q26 0 34.5 12.5t8.5 26.5q0 23 -15.5 31t-36.5 8q-14 0 -32.5 -2t-44.5 -6l-3 71
q9 2 21.5 3t26 2t25.5 1h21q55 0 88.5 -22.5t33.5 -74.5q0 -50 -38 -82q18 -10 31 -31t13 -50z" />
    <glyph glyph-name="acute" unicode="&#xb4;"
d="M254 550h-83l83 156h122z" />
    <glyph glyph-name="mu" unicode="&#xb5;" horiz-adv-x="505"
d="M60 -232v711h118v-340q0 -23 11.5 -33t29.5 -10q29 0 59.5 7.5t48.5 19.5v356h118v-479h-96l-8 32q-30 -16 -61.5 -27t-77.5 -11q-6 0 -12.5 0.5t-11.5 1.5v-228h-118z" />
    <glyph glyph-name="paragraph" unicode="&#xb6;" horiz-adv-x="520"
d="M445 -126h-88v739h-50v-739h-88v414q-50 1 -83.5 15.5t-54.5 40.5t-30 62.5t-9 81.5t10 82.5t32.5 63.5t58 40.5t87.5 14.5h215v-815z" />
    <glyph glyph-name="periodcentered" unicode="&#xb7;" horiz-adv-x="296"
d="M80 182v136h136v-136h-136z" />
    <glyph glyph-name="cedilla" unicode="&#xb8;"
d="M283 -118q0 14 -19.5 20.5t-51.5 8.5l-8 23l35 73h69l-17 -45q27 -6 49 -25t22 -55q0 -39 -27 -62.5t-81 -23.5q-17 0 -38.5 2t-40.5 7l2 61q1 0 3.5 -0.5t4.5 -0.5q9 -2 23.5 -4.5t29.5 -2.5q20 0 32.5 4t12.5 20z" />
    <glyph glyph-name="uni00B9" unicode="&#xb9;" horiz-adv-x="210"
d="M74 323v294h-50v72h137v-366h-87z" />
    <glyph glyph-name="ordmasculine" unicode="&#xba;" horiz-adv-x="349"
d="M321 532q0 -84 -34.5 -125t-111.5 -41t-112 41t-35 125t35 124t112 40q76 0 111 -40t35 -124zM235 532q0 30 -4 48t-12 27.5t-19 12.5t-25 3t-25.5 -3t-19.5 -12.5t-12 -27.5t-4 -48t4 -48.5t12 -28.5t19.5 -13t25.5 -3t25.5 3t19 13t11.5 28.5t4 48.5z" />
    <glyph glyph-name="guillemotright" unicode="&#xbb;" horiz-adv-x="581"
d="M240 417h124l162 -181v-14l-154 -181h-125l164 188zM23 417h124l162 -181v-14l-154 -181h-125l164 188z" />
    <glyph glyph-name="uni00BC" unicode="&#xbc;" horiz-adv-x="583"
d="M517 88v-88h-87v88h-144l-2 65l96 218h83l-68 -165l-10 -22.5t-14 -27.5h63l13 99h70v-97h54v-70h-54zM74 323v294h-50v72h137v-366h-87zM108 0h-81l397 689h82z" />
    <glyph glyph-name="uni00BD" unicode="&#xbd;" horiz-adv-x="610"
d="M453 66q18 3 35 3h87v-69h-223v62l92 112q16 20 28.5 39.5t12.5 41.5q0 24 -15 35t-36 11q-18 0 -35.5 -2.5t-36.5 -4.5l-3 71q9 2 21.5 3t25.5 2t25 1h21q54 0 86.5 -26t32.5 -83q0 -39 -14.5 -68t-39.5 -58l-38 -45zM108 0h-81l397 689h82zM74 323v294h-50v72h137v-366
h-87z" />
    <glyph glyph-name="uni00BE" unicode="&#xbe;" horiz-adv-x="638"
d="M572 88v-88h-87v88h-144l-2 65l96 218h83l-68 -165l-10 -22.5t-14 -27.5h63l13 99h70v-97h54v-70h-54zM253 434q0 -35 -11 -57.5t-30.5 -35.5t-45.5 -18.5t-55 -5.5q-20 0 -43.5 1t-40.5 4l4 69q17 -2 40.5 -3.5t39.5 -1.5q25 0 41.5 9.5t16.5 37.5q0 26 -14.5 35
t-32.5 9h-49v70h47q26 0 34.5 12.5t8.5 26.5q0 23 -15.5 31t-36.5 8q-14 0 -32.5 -2t-44.5 -6l-3 71q9 2 21.5 3t26 2t25.5 1h21q55 0 88.5 -22.5t33.5 -74.5q0 -50 -38 -82q18 -10 31 -31t13 -50zM163 0h-81l397 689h82z" />
    <glyph glyph-name="questiondown" unicode="&#xbf;" horiz-adv-x="402"
d="M287 479v-136h-136v136h136zM3 -67q0 27 7.5 48.5t20 40t28 35.5t32.5 34l12 14q30 32 48.5 57.5t18.5 50.5q0 10 -1 23t-6 34h117q5 -21 6.5 -33t1.5 -31q0 -43 -26.5 -84.5t-64.5 -79.5l-15 -15q-20 -20 -38.5 -40.5t-18.5 -44.5q0 -17 7.5 -27.5t19.5 -16t26.5 -7.5
t28.5 -2q25 0 62 4.5t69 10.5l6 -110q-17 -3 -38 -5.5t-42 -4t-40 -2t-31 -0.5q-92 0 -141 39t-49 112z" />
    <glyph glyph-name="Agrave" unicode="&#xc0;" horiz-adv-x="562"
d="M424 0l-35 134h-215l-35 -134h-129l195 689h152l195 -689h-128zM298 494q-2 9 -4 19t-4 22.5t-4 28.5t-5 39q-3 -23 -5 -39t-4 -28.5t-4 -22t-4 -19.5l-61 -250h156zM117 901h122l83 -156h-83z" />
    <glyph glyph-name="Aacute" unicode="&#xc1;" horiz-adv-x="562"
d="M424 0l-35 134h-215l-35 -134h-129l195 689h152l195 -689h-128zM298 494q-2 9 -4 19t-4 22.5t-4 28.5t-5 39q-3 -23 -5 -39t-4 -28.5t-4 -22t-4 -19.5l-61 -250h156zM326 745h-83l83 156h122z" />
    <glyph glyph-name="Acircumflex" unicode="&#xc2;" horiz-adv-x="562"
d="M424 0l-35 134h-215l-35 -134h-129l195 689h152l195 -689h-128zM298 494q-2 9 -4 19t-4 22.5t-4 28.5t-5 39q-3 -23 -5 -39t-4 -28.5t-4 -22t-4 -19.5l-61 -250h156zM339 745l-56 70l-57 -70h-89l96 149h99l97 -149h-90z" />
    <glyph glyph-name="Atilde" unicode="&#xc3;" horiz-adv-x="562"
d="M424 0l-35 134h-215l-35 -134h-129l195 689h152l195 -689h-128zM298 494q-2 9 -4 19t-4 22.5t-4 28.5t-5 39q-3 -23 -5 -39t-4 -28.5t-4 -22t-4 -19.5l-61 -250h156zM350 851q28 0 71 49l35 -81q-21 -20 -48 -37t-56 -17q-20 0 -38.5 6.5t-35 14.5t-31.5 14.5t-29 6.5
q-18 0 -36.5 -15t-36.5 -35l-35 82q19 18 43.5 35.5t58.5 17.5q18 0 35 -6.5t34 -14t34 -14t35 -6.5z" />
    <glyph glyph-name="Adieresis" unicode="&#xc4;" horiz-adv-x="562"
d="M424 0l-35 134h-215l-35 -134h-129l195 689h152l195 -689h-128zM298 494q-2 9 -4 19t-4 22.5t-4 28.5t-5 39q-3 -23 -5 -39t-4 -28.5t-4 -22t-4 -19.5l-61 -250h156zM324 764v110h110v-110h-110zM133 764v110h109v-110h-109z" />
    <glyph glyph-name="Aring" unicode="&#xc5;" horiz-adv-x="562"
d="M178 758q0 43 29.5 72.5t72.5 29.5q21 0 40 -8t33.5 -21.5t22.5 -32.5t8 -40q0 -20 -7.5 -37t-19.5 -31l195 -690h-128l-35 134h-215l-35 -134h-129l195 688q-27 29 -27 70zM298 494q-2 9 -4 19t-4 22.5t-4 28.5t-5 39q-3 -23 -5 -39t-4 -28.5t-4 -22t-4 -19.5l-61 -250
h156zM321 757q0 17 -11.5 28.5t-28.5 11.5t-28 -11.5t-11 -28.5t11 -28.5t28 -11.5t28.5 11.5t11.5 28.5z" />
    <glyph glyph-name="AE" unicode="&#xc6;" horiz-adv-x="859"
d="M434 0v134h-219l-69 -134h-137l370 689h454v-110h-276v-170h189v-110h-189v-189h276v-110h-399zM434 567q-9 -20 -19.5 -47t-27.5 -59l-113 -217h160v323z" />
    <glyph glyph-name="Ccedilla" unicode="&#xc7;" horiz-adv-x="527"
d="M327 -118q0 14 -19.5 20.5t-51.5 8.5l-8 23l29 61q-63 7 -106 31.5t-70 68t-39 105.5t-12 145q0 91 15 158t48.5 110t88 64t133.5 21q48 0 83.5 -4t78.5 -11l-9 -115q-26 4 -46 7.5t-37.5 6t-34.5 3.5t-36 1q-41 0 -70.5 -9.5t-48.5 -35.5t-28 -73t-9 -123t9 -123.5
t28 -73.5t48.5 -35.5t70.5 -9.5q19 0 36 1.5t34.5 3.5t37.5 5.5t46 8.5l9 -116q-41 -6 -74 -10t-77 -5l-11 -29q27 -6 49 -25t22 -55q0 -39 -27 -62.5t-81 -23.5q-17 0 -38.5 2t-40.5 7l2 61q1 0 3.5 -0.5t4.5 -0.5q9 -2 23.5 -4.5t29.5 -2.5q20 0 32.5 4t12.5 20z" />
    <glyph glyph-name="Egrave" unicode="&#xc8;" horiz-adv-x="516"
d="M75 0v689h400v-110h-276v-170h189v-110h-189v-189h276v-110h-400zM143 901h122l83 -156h-83z" />
    <glyph glyph-name="Eacute" unicode="&#xc9;" horiz-adv-x="516"
d="M75 0v689h400v-110h-276v-170h189v-110h-189v-189h276v-110h-400zM306 745h-83l83 156h122z" />
    <glyph glyph-name="Ecircumflex" unicode="&#xca;" horiz-adv-x="516"
d="M75 0v689h400v-110h-276v-170h189v-110h-189v-189h276v-110h-400zM325 745l-56 70l-57 -70h-89l96 149h99l97 -149h-90z" />
    <glyph glyph-name="Edieresis" unicode="&#xcb;" horiz-adv-x="516"
d="M75 0v689h400v-110h-276v-170h189v-110h-189v-189h276v-110h-400zM313 765v110h110v-110h-110zM122 765v110h109v-110h-109z" />
    <glyph glyph-name="Igrave" unicode="&#xcc;" horiz-adv-x="275"
d="M75 0v689h124v-689h-124zM-30 901h122l83 -156h-83z" />
    <glyph glyph-name="Iacute" unicode="&#xcd;" horiz-adv-x="275"
d="M75 0v689h124v-689h-124zM181 745h-83l83 156h122z" />
    <glyph glyph-name="Icircumflex" unicode="&#xce;" horiz-adv-x="275"
d="M75 0v689h124v-689h-124zM195 745l-56 70l-57 -70h-89l96 149h99l97 -149h-90z" />
    <glyph glyph-name="Idieresis" unicode="&#xcf;" horiz-adv-x="275"
d="M75 0v689h124v-689h-124zM179 765v110h110v-110h-110zM-12 765v110h109v-110h-109z" />
    <glyph glyph-name="Eth" unicode="&#xd0;" horiz-adv-x="637"
d="M587 344q0 -96 -16.5 -172.5t-60.5 -118.5q-21 -19 -40 -29.5t-40.5 -16t-47 -6.5t-59.5 -1h-219v297h-95v105h95v287h219q34 0 59.5 -1t47.5 -6.5t41 -16t39 -29.5q44 -42 60.5 -119t16.5 -173zM457 346q0 83 -8.5 133t-30.5 73q-17 17 -42.5 20.5t-73.5 3.5h-73v-174
h135v-105h-135v-184h73q46 0 73 4t41 18q23 23 32 75t9 136z" />
    <glyph glyph-name="Ntilde" unicode="&#xd1;" horiz-adv-x="676"
d="M446 235q8 -17 15 -40t15 -44l15 -49l-4 51q-2 20 -3 41.5t-1 35.5v459h118v-689h-168l-206 464q-7 16 -14 36.5t-14 40.5l-14 46l4 -49q2 -20 3 -41t1 -34v-463h-118v689h168zM398 851q28 0 71 49l35 -81q-21 -20 -48 -37t-56 -17q-20 0 -38.5 6.5t-35 14.5t-31.5 14.5
t-29 6.5q-18 0 -36.5 -15t-36.5 -35l-35 82q19 18 43.5 35.5t58.5 17.5q18 0 35 -6.5t34 -14t34 -14t35 -6.5z" />
    <glyph glyph-name="Ograve" unicode="&#xd2;" horiz-adv-x="639"
d="M589 344q0 -91 -12 -157.5t-43 -110t-83 -64.5t-131 -21q-80 0 -132 21t-83 64.5t-43 110t-12 157.5t12 158t43 110.5t83 64.5t132 21q79 0 131 -21.5t83 -65t43 -110t12 -157.5zM459 344q0 77 -7 124.5t-23 73.5t-43 35t-67 9t-67 -9t-43.5 -35t-23.5 -73.5t-7 -124.5
t7 -124t23.5 -72.5t43.5 -34.5t67 -9t67 9t43 34.5t23 72.5t7 124zM159 901h122l83 -156h-83z" />
    <glyph glyph-name="Oacute" unicode="&#xd3;" horiz-adv-x="639"
d="M589 344q0 -91 -12 -157.5t-43 -110t-83 -64.5t-131 -21q-80 0 -132 21t-83 64.5t-43 110t-12 157.5t12 158t43 110.5t83 64.5t132 21q79 0 131 -21.5t83 -65t43 -110t12 -157.5zM459 344q0 77 -7 124.5t-23 73.5t-43 35t-67 9t-67 -9t-43.5 -35t-23.5 -73.5t-7 -124.5
t7 -124t23.5 -72.5t43.5 -34.5t67 -9t67 9t43 34.5t23 72.5t7 124zM358 745h-83l83 156h122z" />
    <glyph glyph-name="Ocircumflex" unicode="&#xd4;" horiz-adv-x="639"
d="M378 745l-56 70l-57 -70h-89l96 149h99l97 -149h-90zM589 344q0 -91 -12 -157.5t-43 -110t-83 -64.5t-131 -21q-80 0 -132 21t-83 64.5t-43 110t-12 157.5t12 158t43 110.5t83 64.5t132 21q79 0 131 -21.5t83 -65t43 -110t12 -157.5zM459 344q0 77 -7 124.5t-23 73.5
t-43 35t-67 9t-67 -9t-43.5 -35t-23.5 -73.5t-7 -124.5t7 -124t23.5 -72.5t43.5 -34.5t67 -9t67 9t43 34.5t23 72.5t7 124z" />
    <glyph glyph-name="Otilde" unicode="&#xd5;" horiz-adv-x="639"
d="M589 344q0 -91 -12 -157.5t-43 -110t-83 -64.5t-131 -21q-80 0 -132 21t-83 64.5t-43 110t-12 157.5t12 158t43 110.5t83 64.5t132 21q79 0 131 -21.5t83 -65t43 -110t12 -157.5zM459 344q0 77 -7 124.5t-23 73.5t-43 35t-67 9t-67 -9t-43.5 -35t-23.5 -73.5t-7 -124.5
t7 -124t23.5 -72.5t43.5 -34.5t67 -9t67 9t43 34.5t23 72.5t7 124zM386 851q28 0 71 49l35 -81q-21 -20 -48 -37t-56 -17q-20 0 -38.5 6.5t-35 14.5t-31.5 14.5t-29 6.5q-18 0 -36.5 -15t-36.5 -35l-35 82q19 18 43.5 35.5t58.5 17.5q18 0 35 -6.5t34 -14t34 -14t35 -6.5z
" />
    <glyph glyph-name="Odieresis" unicode="&#xd6;" horiz-adv-x="639"
d="M361 764v110h110v-110h-110zM170 764v110h109v-110h-109zM589 344q0 -91 -12 -157.5t-43 -110t-83 -64.5t-131 -21q-80 0 -132 21t-83 64.5t-43 110t-12 157.5t12 158t43 110.5t83 64.5t132 21q79 0 131 -21.5t83 -65t43 -110t12 -157.5zM459 344q0 77 -7 124.5t-23 73.5
t-43 35t-67 9t-67 -9t-43.5 -35t-23.5 -73.5t-7 -124.5t7 -124t23.5 -72.5t43.5 -34.5t67 -9t67 9t43 34.5t23 72.5t7 124z" />
    <glyph glyph-name="multiply" unicode="&#xd7;" horiz-adv-x="582"
d="M440 563l78 -78l-149 -149l149 -149l-77 -80l-150 150l-150 -150l-77 80l149 149l-149 149l78 78l149 -149z" />
    <glyph glyph-name="Oslash" unicode="&#xd8;" horiz-adv-x="639"
d="M532 614q32 -44 44.5 -111t12.5 -159q0 -91 -12 -157.5t-43 -110t-83 -64.5t-131 -21q-80 0 -134 21l-33 -58h-108l66 114q-35 44 -48 112t-13 164q0 91 12 158t43 110.5t83 64.5t132 21q83 0 139 -25l28 48h107zM178 344q0 -93 10 -142l212 368q-15 9 -35 12.5t-46 3.5
q-40 0 -67 -9t-43.5 -35t-23.5 -73.5t-7 -124.5zM459 344q0 41 -1.5 72.5t-6.5 56.5l-206 -358q15 -6 33 -8.5t41 -2.5q40 0 67 9t43 34.5t23 72.5t7 124z" />
    <glyph glyph-name="Ugrave" unicode="&#xd9;" horiz-adv-x="604"
d="M542 196q0 -63 -24.5 -103.5t-60.5 -63t-78 -31t-77 -8.5t-77 8.5t-78 31t-60.5 63t-24.5 103.5v493h123v-493q0 -50 33 -72t85 -22q51 0 83.5 22t32.5 72v493h123v-493zM149 901h122l83 -156h-83z" />
    <glyph glyph-name="Uacute" unicode="&#xda;" horiz-adv-x="604"
d="M542 196q0 -63 -24.5 -103.5t-60.5 -63t-78 -31t-77 -8.5t-77 8.5t-78 31t-60.5 63t-24.5 103.5v493h123v-493q0 -50 33 -72t85 -22q51 0 83.5 22t32.5 72v493h123v-493zM336 745h-83l83 156h122z" />
    <glyph glyph-name="Ucircumflex" unicode="&#xdb;" horiz-adv-x="604"
d="M542 196q0 -63 -24.5 -103.5t-60.5 -63t-78 -31t-77 -8.5t-77 8.5t-78 31t-60.5 63t-24.5 103.5v493h123v-493q0 -50 33 -72t85 -22q51 0 83.5 22t32.5 72v493h123v-493zM361 745l-56 70l-57 -70h-89l96 149h99l97 -149h-90z" />
    <glyph glyph-name="Udieresis" unicode="&#xdc;" horiz-adv-x="604"
d="M542 196q0 -63 -24.5 -103.5t-60.5 -63t-78 -31t-77 -8.5t-77 8.5t-78 31t-60.5 63t-24.5 103.5v493h123v-493q0 -50 33 -72t85 -22q51 0 83.5 22t32.5 72v493h123v-493zM344 765v110h110v-110h-110zM153 765v110h109v-110h-109z" />
    <glyph glyph-name="Yacute" unicode="&#xdd;" horiz-adv-x="558"
d="M341 271v-271h-124v272l-207 417h137l135 -291l128 291h138zM327 745h-83l83 156h122z" />
    <glyph glyph-name="Thorn" unicode="&#xde;" horiz-adv-x="539"
d="M515 347q0 -51 -14 -98t-44 -77q-23 -23 -54.5 -32.5t-77.5 -9.5h-126v-130h-124v689h123v-125h125q45 0 79.5 -10.5t56.5 -32.5q32 -32 44 -78t12 -96zM386 347q0 48 -14.5 77.5t-59.5 29.5h-113v-214h113q47 0 60.5 29t13.5 78z" />
    <glyph glyph-name="germandbls" unicode="&#xdf;" horiz-adv-x="581"
d="M364 358q0 -13 3 -19t10 -13q10 -11 30 -22.5t42.5 -24.5t45 -27.5t37.5 -29.5t26 -37t11 -52q0 -36 -14.5 -63t-39 -44.5t-56 -26t-64.5 -8.5q-15 0 -35 1t-41 3.5t-40.5 5.5t-32.5 6l7 100q38 -8 76 -14t62 -6q34 0 48 10.5t14 28.5q0 11 -4 17.5t-10 12.5
q-13 13 -32.5 24t-41.5 23t-43.5 25t-37.5 30q-17 17 -28 38t-11 55q0 42 19 69.5t42.5 48.5t42.5 40.5t19 47.5q0 36 -23.5 52t-68.5 16q-54 0 -76.5 -24t-22.5 -74v-527h-117v540q0 62 22 99.5t54.5 57.5t70.5 26.5t71 6.5q102 0 157 -42t55 -127q0 -43 -19.5 -73
t-43.5 -52.5t-43.5 -40.5t-19.5 -37z" />
    <glyph glyph-name="agrave" unicode="&#xe0;" horiz-adv-x="462"
d="M312 0l-12 30q-27 -14 -58.5 -26.5t-77.5 -12.5q-69 0 -102.5 40.5t-33.5 101.5q0 57 21.5 89.5t56.5 49t79 21t90 4.5h15v30q0 37 -20.5 51t-55.5 14q-33 0 -71.5 -8t-67.5 -17l-9 101q35 8 77 14t89 6q37 0 69 -7t55 -24t36.5 -44.5t13.5 -69.5v-343h-94zM277 217
q-68 0 -100 -15t-32 -58q0 -28 13 -44t41 -16q26 0 48 6.5t43 14.5v112h-13zM77 706h122l83 -156h-83z" />
    <glyph glyph-name="aacute" unicode="&#xe1;" horiz-adv-x="462"
d="M312 0l-12 30q-27 -14 -58.5 -26.5t-77.5 -12.5q-69 0 -102.5 40.5t-33.5 101.5q0 57 21.5 89.5t56.5 49t79 21t90 4.5h15v30q0 37 -20.5 51t-55.5 14q-33 0 -71.5 -8t-67.5 -17l-9 101q35 8 77 14t89 6q37 0 69 -7t55 -24t36.5 -44.5t13.5 -69.5v-343h-94zM277 217
q-68 0 -100 -15t-32 -58q0 -28 13 -44t41 -16q26 0 48 6.5t43 14.5v112h-13zM274 550h-83l83 156h122z" />
    <glyph glyph-name="acircumflex" unicode="&#xe2;" horiz-adv-x="462"
d="M312 0l-12 30q-27 -14 -58.5 -26.5t-77.5 -12.5q-69 0 -102.5 40.5t-33.5 101.5q0 57 21.5 89.5t56.5 49t79 21t90 4.5h15v30q0 37 -20.5 51t-55.5 14q-33 0 -71.5 -8t-67.5 -17l-9 101q35 8 77 14t89 6q37 0 69 -7t55 -24t36.5 -44.5t13.5 -69.5v-343h-94zM277 217
q-68 0 -100 -15t-32 -58q0 -28 13 -44t41 -16q26 0 48 6.5t43 14.5v112h-13zM283 550l-56 70l-57 -70h-89l96 149h99l97 -149h-90z" />
    <glyph glyph-name="atilde" unicode="&#xe3;" horiz-adv-x="462"
d="M312 0l-12 30q-27 -14 -58.5 -26.5t-77.5 -12.5q-69 0 -102.5 40.5t-33.5 101.5q0 57 21.5 89.5t56.5 49t79 21t90 4.5h15v30q0 37 -20.5 51t-55.5 14q-33 0 -71.5 -8t-67.5 -17l-9 101q35 8 77 14t89 6q37 0 69 -7t55 -24t36.5 -44.5t13.5 -69.5v-343h-94zM277 217
q-68 0 -100 -15t-32 -58q0 -28 13 -44t41 -16q26 0 48 6.5t43 14.5v112h-13zM297 657q28 0 71 49l35 -81q-21 -20 -48 -37t-56 -17q-20 0 -38.5 6.5t-35 14.5t-31.5 14.5t-29 6.5q-18 0 -36.5 -15t-36.5 -35l-35 82q19 18 43.5 35.5t58.5 17.5q18 0 35 -6.5t34 -14t34 -14
t35 -6.5z" />
    <glyph glyph-name="adieresis" unicode="&#xe4;" horiz-adv-x="462"
d="M312 0l-12 30q-27 -14 -58.5 -26.5t-77.5 -12.5q-69 0 -102.5 40.5t-33.5 101.5q0 57 21.5 89.5t56.5 49t79 21t90 4.5h15v30q0 37 -20.5 51t-55.5 14q-33 0 -71.5 -8t-67.5 -17l-9 101q35 8 77 14t89 6q37 0 69 -7t55 -24t36.5 -44.5t13.5 -69.5v-343h-94zM277 217
q-68 0 -100 -15t-32 -58q0 -28 13 -44t41 -16q26 0 48 6.5t43 14.5v112h-13zM266 569v110h110v-110h-110zM75 569v110h109v-110h-109z" />
    <glyph glyph-name="aring" unicode="&#xe5;" horiz-adv-x="462"
d="M312 0l-12 30q-27 -14 -58.5 -26.5t-77.5 -12.5q-69 0 -102.5 40.5t-33.5 101.5q0 57 21.5 89.5t56.5 49t79 21t90 4.5h15v30q0 37 -20.5 51t-55.5 14q-33 0 -71.5 -8t-67.5 -17l-9 101q35 8 77 14t89 6q37 0 69 -7t55 -24t36.5 -44.5t13.5 -69.5v-343h-94zM277 217
q-68 0 -100 -15t-32 -58q0 -28 13 -44t41 -16q26 0 48 6.5t43 14.5v112h-13zM274 628q0 17 -11.5 28.5t-28.5 11.5t-28 -11.5t-11 -28.5t11 -28.5t28 -11.5t28.5 11.5t11.5 28.5zM131 629q0 43 29.5 72.5t72.5 29.5q21 0 40 -8t33.5 -21.5t22.5 -32.5t8 -40t-8 -40
t-22.5 -32.5t-33.5 -21.5t-40 -8q-43 0 -72.5 29.5t-29.5 72.5z" />
    <glyph glyph-name="ae" unicode="&#xe6;" horiz-adv-x="706"
d="M340 45q-42 -32 -81.5 -43t-76.5 -11q-32 0 -60 8.5t-49 26.5t-33 45.5t-12 65.5q0 67 40 107q17 17 41.5 26.5t53 14.5t59.5 6.5t61 1.5v52q0 27 -19 34.5t-51 7.5q-26 0 -64.5 -4.5t-80.5 -13.5l-5 102q42 11 86.5 15t73.5 4q40 0 75 -7.5t60 -30.5h2q24 21 56 30t75 9
q52 0 86.5 -15.5t54.5 -43.5t28.5 -66t8.5 -84v-66h-264q0 -35 5.5 -58t19 -37.5t35.5 -20.5t54 -6q14 0 31 1.5t34 3.5t33.5 5t29.5 6l5 -101q-16 -5 -35.5 -8.5t-39 -5.5t-37.5 -3t-32 -1q-113 0 -166 54h-2zM557 302q0 18 -3 35t-10 30t-20.5 21t-34.5 8q-42 0 -59.5 -23
t-20.5 -71h148zM295 125q-11 36 -12 82h-13q-15 0 -31 -1t-30.5 -3.5t-26.5 -6.5t-19 -11t-11 -16t-4 -23q0 -30 16 -42.5t42 -12.5q24 0 48 9.5t41 24.5z" />
    <glyph glyph-name="ccedilla" unicode="&#xe7;" horiz-adv-x="408"
d="M256 -118q0 14 -19.5 20.5t-51.5 8.5l-8 23l29 61q-86 11 -126 69.5t-40 171.5q0 128 52 189.5t164 61.5q26 0 59.5 -3.5t62.5 -7.5l-7 -102q-33 6 -61.5 9.5t-53.5 3.5q-23 0 -40.5 -6t-29 -22.5t-17 -45t-5.5 -74.5q0 -45 5.5 -74t17 -45t29 -22t40.5 -6q25 0 52.5 3.5
t62.5 9.5l7 -102q-24 -4 -52 -7t-51 -4l-11 -30q27 -6 49 -25t22 -55q0 -39 -27 -62.5t-81 -23.5q-17 0 -38.5 2t-40.5 7l2 61q1 0 3.5 -0.5t4.5 -0.5q9 -2 23.5 -4.5t29.5 -2.5q20 0 32.5 4t12.5 20z" />
    <glyph glyph-name="egrave" unicode="&#xe8;" horiz-adv-x="460"
d="M423 212h-262q0 -69 26 -95t70 -26q21 0 38 1.5t33 4t33.5 6.5t40.5 9l6 -103q-42 -9 -77.5 -13.5t-74.5 -4.5q-112 0 -164 59t-52 187q0 127 47 188.5t157 61.5q55 0 90 -15.5t55 -43.5t27 -66t7 -84v-66zM309 295q0 18 -2 36t-8.5 32.5t-19.5 23t-36 8.5q-42 0 -58 -25
t-20 -75h144zM79 706h122l83 -156h-83z" />
    <glyph glyph-name="eacute" unicode="&#xe9;" horiz-adv-x="460"
d="M423 212h-262q0 -69 26 -95t70 -26q21 0 38 1.5t33 4t33.5 6.5t40.5 9l6 -103q-42 -9 -77.5 -13.5t-74.5 -4.5q-112 0 -164 59t-52 187q0 127 47 188.5t157 61.5q55 0 90 -15.5t55 -43.5t27 -66t7 -84v-66zM309 295q0 18 -2 36t-8.5 32.5t-19.5 23t-36 8.5q-42 0 -58 -25
t-20 -75h144zM289 550h-83l83 156h122z" />
    <glyph glyph-name="ecircumflex" unicode="&#xea;" horiz-adv-x="460"
d="M423 212h-262q0 -69 26 -95t70 -26q21 0 38 1.5t33 4t33.5 6.5t40.5 9l6 -103q-42 -9 -77.5 -13.5t-74.5 -4.5q-112 0 -164 59t-52 187q0 127 47 188.5t157 61.5q55 0 90 -15.5t55 -43.5t27 -66t7 -84v-66zM309 295q0 18 -2 36t-8.5 32.5t-19.5 23t-36 8.5q-42 0 -58 -25
t-20 -75h144zM302 550l-56 70l-57 -70h-89l96 149h99l97 -149h-90z" />
    <glyph glyph-name="edieresis" unicode="&#xeb;" horiz-adv-x="460"
d="M423 212h-262q0 -69 26 -95t70 -26q21 0 38 1.5t33 4t33.5 6.5t40.5 9l6 -103q-42 -9 -77.5 -13.5t-74.5 -4.5q-112 0 -164 59t-52 187q0 127 47 188.5t157 61.5q55 0 90 -15.5t55 -43.5t27 -66t7 -84v-66zM309 295q0 18 -2 36t-8.5 32.5t-19.5 23t-36 8.5q-42 0 -58 -25
t-20 -75h144zM273 569v110h110v-110h-110zM82 569v110h109v-110h-109z" />
    <glyph glyph-name="igrave" unicode="&#xec;" horiz-adv-x="246"
d="M64 0v479h118v-479h-118zM-44 706h122l83 -156h-83z" />
    <glyph glyph-name="iacute" unicode="&#xed;" horiz-adv-x="246"
d="M64 0v479h118v-479h-118zM169 550h-83l83 156h122z" />
    <glyph glyph-name="icircumflex" unicode="&#xee;" horiz-adv-x="246"
d="M64 0v479h118v-479h-118zM180 550l-56 70l-57 -70h-89l96 149h99l97 -149h-90z" />
    <glyph glyph-name="idieresis" unicode="&#xef;" horiz-adv-x="246"
d="M64 0v479h118v-479h-118zM163 569v110h110v-110h-110zM-28 569v110h109v-110h-109z" />
    <glyph glyph-name="eth" unicode="&#xf0;" horiz-adv-x="523"
d="M477 273q0 -147 -51 -215t-161 -68q-115 0 -167.5 61.5t-52.5 189.5t51.5 187t164.5 59q20 0 38 -2t34 -9q-10 26 -25 50.5t-38 46.5l-138 -79v99l70 40q-23 19 -48 34t-60 29l127 35q6 -3 16 -8.5t20.5 -12.5t20.5 -13.5t16 -10.5l99 56v-99l-31 -17q33 -37 55.5 -82.5
t35.5 -92.5t18.5 -93.5t5.5 -84.5zM355 238q0 44 -6 72.5t-18 45t-29.5 22.5t-40.5 6t-40.5 -6.5t-29.5 -22.5t-18 -44.5t-6 -71.5q0 -46 6 -74.5t18 -44t29.5 -21t40.5 -5.5q24 0 41.5 5.5t29 21t17.5 44t6 73.5z" />
    <glyph glyph-name="ntilde" unicode="&#xf1;" horiz-adv-x="500"
d="M445 0h-118v344q0 23 -11.5 33t-29.5 10q-29 0 -59.5 -9.5t-48.5 -21.5v-356h-118v479h96l8 -32q29 16 65 28t82 12q25 0 49.5 -6.5t43 -22t30 -42.5t11.5 -67v-349zM323 657q28 0 71 49l35 -81q-21 -20 -48 -37t-56 -17q-20 0 -38.5 6.5t-35 14.5t-31.5 14.5t-29 6.5
q-18 0 -36.5 -15t-36.5 -35l-35 82q19 18 43.5 35.5t58.5 17.5q18 0 35 -6.5t34 -14t34 -14t35 -6.5z" />
    <glyph glyph-name="ograve" unicode="&#xf2;" horiz-adv-x="512"
d="M472 239q0 -128 -51.5 -188t-164.5 -60q-112 0 -164 60.5t-52 188.5t51.5 187.5t164.5 59.5t164.5 -59.5t51.5 -188.5zM348 239q0 46 -5.5 74.5t-17 45t-29 22.5t-40.5 6t-40.5 -6t-29 -22t-17 -45t-5.5 -74q0 -46 5.5 -74.5t17 -45t29 -22.5t40.5 -6q24 0 41 6t28.5 22
t17 45t5.5 74zM87 706h122l83 -156h-83z" />
    <glyph glyph-name="oacute" unicode="&#xf3;" horiz-adv-x="512"
d="M472 239q0 -128 -51.5 -188t-164.5 -60q-112 0 -164 60.5t-52 188.5t51.5 187.5t164.5 59.5t164.5 -59.5t51.5 -188.5zM348 239q0 46 -5.5 74.5t-17 45t-29 22.5t-40.5 6t-40.5 -6t-29 -22t-17 -45t-5.5 -74q0 -46 5.5 -74.5t17 -45t29 -22.5t40.5 -6q24 0 41 6t28.5 22
t17 45t5.5 74zM305 550h-83l83 156h122z" />
    <glyph glyph-name="ocircumflex" unicode="&#xf4;" horiz-adv-x="512"
d="M472 239q0 -128 -51.5 -188t-164.5 -60q-112 0 -164 60.5t-52 188.5t51.5 187.5t164.5 59.5t164.5 -59.5t51.5 -188.5zM348 239q0 46 -5.5 74.5t-17 45t-29 22.5t-40.5 6t-40.5 -6t-29 -22t-17 -45t-5.5 -74q0 -46 5.5 -74.5t17 -45t29 -22.5t40.5 -6q24 0 41 6t28.5 22
t17 45t5.5 74zM314 550l-56 70l-57 -70h-89l96 149h99l97 -149h-90z" />
    <glyph glyph-name="otilde" unicode="&#xf5;" horiz-adv-x="512"
d="M472 239q0 -128 -51.5 -188t-164.5 -60q-112 0 -164 60.5t-52 188.5t51.5 187.5t164.5 59.5t164.5 -59.5t51.5 -188.5zM348 239q0 46 -5.5 74.5t-17 45t-29 22.5t-40.5 6t-40.5 -6t-29 -22t-17 -45t-5.5 -74q0 -46 5.5 -74.5t17 -45t29 -22.5t40.5 -6q24 0 41 6t28.5 22
t17 45t5.5 74zM322 657q28 0 71 49l35 -81q-21 -20 -48 -37t-56 -17q-20 0 -38.5 6.5t-35 14.5t-31.5 14.5t-29 6.5q-18 0 -36.5 -15t-36.5 -35l-35 82q19 18 43.5 35.5t58.5 17.5q18 0 35 -6.5t34 -14t34 -14t35 -6.5z" />
    <glyph glyph-name="odieresis" unicode="&#xf6;" horiz-adv-x="512"
d="M472 239q0 -128 -51.5 -188t-164.5 -60q-112 0 -164 60.5t-52 188.5t51.5 187.5t164.5 59.5t164.5 -59.5t51.5 -188.5zM348 239q0 46 -5.5 74.5t-17 45t-29 22.5t-40.5 6t-40.5 -6t-29 -22t-17 -45t-5.5 -74q0 -46 5.5 -74.5t17 -45t29 -22.5t40.5 -6q24 0 41 6t28.5 22
t17 45t5.5 74zM297 569v110h110v-110h-110zM106 569v110h109v-110h-109z" />
    <glyph glyph-name="divide" unicode="&#xf7;" horiz-adv-x="584"
d="M232 437v120h120v-120h-120zM54 291v102h476v-102h-476zM232 127v120h120v-120h-120z" />
    <glyph glyph-name="oslash" unicode="&#xf8;" horiz-adv-x="512"
d="M411 436q32 -30 46.5 -79t14.5 -118q0 -128 -51.5 -188t-164.5 -60q-52 0 -89 12l-28 -49h-89l51 88q-61 60 -61 198q0 128 51.5 187.5t164.5 59.5q27 0 50 -3.5t43 -10.5l30 53h83zM164 240q0 -48 6 -78l126 219q-18 6 -40 6q-23 0 -40.5 -6t-29 -22t-17 -45t-5.5 -74z
M348 239q0 45 -6 75l-123 -218q15 -4 37 -4q24 0 41 6t28.5 22t17 45t5.5 74z" />
    <glyph glyph-name="ugrave" unicode="&#xf9;" horiz-adv-x="500"
d="M55 479h118v-344q0 -23 11.5 -33t29.5 -10q29 0 59.5 9.5t48.5 21.5v356h118v-479h-96l-8 32q-30 -16 -65.5 -28t-81.5 -12q-26 0 -50 6.5t-42.5 22t-30 42t-11.5 67.5v349zM90 706h122l83 -156h-83z" />
    <glyph glyph-name="uacute" unicode="&#xfa;" horiz-adv-x="500"
d="M55 479h118v-344q0 -23 11.5 -33t29.5 -10q29 0 59.5 9.5t48.5 21.5v356h118v-479h-96l-8 32q-30 -16 -65.5 -28t-81.5 -12q-26 0 -50 6.5t-42.5 22t-30 42t-11.5 67.5v349zM293 550h-83l83 156h122z" />
    <glyph glyph-name="ucircumflex" unicode="&#xfb;" horiz-adv-x="500"
d="M55 479h118v-344q0 -23 11.5 -33t29.5 -10q29 0 59.5 9.5t48.5 21.5v356h118v-479h-96l-8 32q-30 -16 -65.5 -28t-81.5 -12q-26 0 -50 6.5t-42.5 22t-30 42t-11.5 67.5v349zM307 550l-56 70l-57 -70h-89l96 149h99l97 -149h-90z" />
    <glyph glyph-name="udieresis" unicode="&#xfc;" horiz-adv-x="500"
d="M55 479h118v-344q0 -23 11.5 -33t29.5 -10q29 0 59.5 9.5t48.5 21.5v356h118v-479h-96l-8 32q-30 -16 -65.5 -28t-81.5 -12q-26 0 -50 6.5t-42.5 22t-30 42t-11.5 67.5v349zM293 569v110h110v-110h-110zM102 569v110h109v-110h-109z" />
    <glyph glyph-name="yacute" unicode="&#xfd;" horiz-adv-x="476"
d="M18 479h124l85 -274q1 -5 4 -17t6 -26.5t5 -28.5t3 -22q1 8 3 21.5t4.5 28t5 26.5t4.5 18l76 274h120l-168 -544q-15 -47 -31 -80t-36 -53.5t-45 -30t-58 -9.5q-25 0 -54 2.5t-47 7.5l9 99q14 -3 32 -5t37 -2q16 0 27 3t20 12.5t17.5 26.5t17.5 44l10 40zM283 550h-83
l83 156h122z" />
    <glyph glyph-name="thorn" unicode="&#xfe;" horiz-adv-x="504"
d="M291 -9q-37 0 -65 10.5t-48 22.5v-256h-118v952h118v-263q23 14 51.5 22.5t63.5 8.5q48 0 80.5 -16t52.5 -47.5t29 -77t9 -103.5q0 -53 -9 -99t-29 -80t-53 -54t-82 -20zM343 244q0 45 -4 72.5t-13 43.5t-22 21.5t-31 5.5q-27 0 -51.5 -9.5t-43.5 -20.5v-235
q16 -11 40 -20.5t56 -9.5q37 0 53 34t16 118z" />
    <glyph glyph-name="ydieresis" unicode="&#xff;" horiz-adv-x="476"
d="M18 479h124l85 -274q1 -5 4 -17t5.5 -26t5 -27.5t3.5 -22.5q1 9 3 22.5t4.5 27t5 25.5t4.5 18l76 274h120l-168 -544q-15 -47 -31 -80t-36 -53.5t-45 -30t-58 -9.5q-25 0 -54 2.5t-47 7.5l9 99q14 -3 32 -5t37 -2q16 0 27 3t20 12.5t17.5 26.5t17.5 44l10 40zM288 569
v110h110v-110h-110zM97 569v110h109v-110h-109z" />
    <glyph glyph-name="Amacron" unicode="&#x100;" horiz-adv-x="562"
d="M424 0l-35 134h-215l-35 -134h-129l195 689h152l195 -689h-128zM298 494q-2 9 -4 19t-4 22.5t-4 28.5t-5 39q-3 -23 -5 -39t-4 -28.5t-4 -22t-4 -19.5l-61 -250h156zM442 778h-317v89h317v-89z" />
    <glyph glyph-name="amacron" unicode="&#x101;" horiz-adv-x="462"
d="M312 0l-12 30q-27 -14 -58.5 -26.5t-77.5 -12.5q-69 0 -102.5 40.5t-33.5 101.5q0 57 21.5 89.5t56.5 49t79 21t90 4.5h15v30q0 37 -20.5 51t-55.5 14q-33 0 -71.5 -8t-67.5 -17l-9 101q35 8 77 14t89 6q37 0 69 -7t55 -24t36.5 -44.5t13.5 -69.5v-343h-94zM277 217
q-68 0 -100 -15t-32 -58q0 -28 13 -44t41 -16q26 0 48 6.5t43 14.5v112h-13zM382 583h-317v89h317v-89z" />
    <glyph glyph-name="Abreve" unicode="&#x102;" horiz-adv-x="562"
d="M424 0l-35 134h-215l-35 -134h-129l195 689h152l195 -689h-128zM298 494q-2 9 -4 19t-4 22.5t-4 28.5t-5 39q-3 -23 -5 -39t-4 -28.5t-4 -22t-4 -19.5l-61 -250h156zM438 896q-17 -76 -53.5 -110t-100.5 -34q-65 0 -101 34t-54 110h86q3 -12 7 -23.5t12 -20.5t20.5 -14
t30.5 -5q37 0 49 19t17 44h87z" />
    <glyph glyph-name="abreve" unicode="&#x103;" horiz-adv-x="462"
d="M312 0l-12 30q-27 -14 -58.5 -26.5t-77.5 -12.5q-69 0 -102.5 40.5t-33.5 101.5q0 57 21.5 89.5t56.5 49t79 21t90 4.5h15v30q0 37 -20.5 51t-55.5 14q-33 0 -71.5 -8t-67.5 -17l-9 101q35 8 77 14t89 6q37 0 69 -7t55 -24t36.5 -44.5t13.5 -69.5v-343h-94zM277 217
q-68 0 -100 -15t-32 -58q0 -28 13 -44t41 -16q26 0 48 6.5t43 14.5v112h-13zM377 694q-17 -76 -53.5 -110t-100.5 -34q-65 0 -101 34t-54 110h86q3 -12 7 -23.5t12 -20.5t20.5 -14t30.5 -5q37 0 49 19t17 44h87z" />
    <glyph glyph-name="Aogonek" unicode="&#x104;" horiz-adv-x="562"
d="M577 -184q-15 -8 -36 -14t-44 -6q-51 0 -81.5 21t-30.5 63q0 37 23.5 68.5t55.5 51.5h-40l-35 134h-215l-35 -134h-129l195 689h152l195 -689q-38 -31 -58 -54.5t-20 -48.5q0 -10 7 -18.5t24 -8.5t34 5t34 13zM298 494q-2 9 -4 19t-4 22.5t-4 28.5t-5 39q-3 -23 -5 -39
t-4 -28.5t-4 -22t-4 -19.5l-61 -250h156z" />
    <glyph glyph-name="aogonek" unicode="&#x105;" horiz-adv-x="462"
d="M406 0q-38 -31 -58 -54.5t-20 -48.5q0 -10 7 -18.5t24 -8.5t34 5t34 13l4 -72q-15 -8 -36 -14t-44 -6q-51 0 -81.5 21t-30.5 63q0 34 22 66.5t51 53.5l-12 30q-27 -14 -58.5 -26.5t-77.5 -12.5q-69 0 -102.5 40.5t-33.5 101.5q0 57 21.5 89.5t56.5 49t79 21t90 4.5h15v30
q0 37 -20.5 51t-55.5 14q-33 0 -71.5 -8t-67.5 -17l-9 101q35 8 77 14t89 6q37 0 69 -7t55 -24t36.5 -44.5t13.5 -69.5v-343zM277 217q-68 0 -100 -15t-32 -58q0 -28 13 -44t41 -16q26 0 48 6.5t43 14.5v112h-13z" />
    <glyph glyph-name="Cacute" unicode="&#x106;" horiz-adv-x="527"
d="M497 6q-43 -7 -78.5 -11t-83.5 -4q-79 0 -133.5 21t-88 64.5t-48.5 110t-15 158.5q0 91 15 158t48.5 110t88 64t133.5 21q48 0 83.5 -4t78.5 -11l-9 -115q-26 4 -46 7.5t-37.5 6t-34.5 3.5t-36 1q-41 0 -70.5 -9.5t-48.5 -35.5t-28 -73t-9 -123t9 -123.5t28 -73.5
t48.5 -35.5t70.5 -9.5q19 0 36 1.5t34.5 3.5t37.5 5.5t46 8.5zM349 745h-83l83 156h122z" />
    <glyph glyph-name="cacute" unicode="&#x107;" horiz-adv-x="408"
d="M378 3q-15 -2 -31.5 -4.5t-33 -4t-31.5 -2.5t-26 -1q-112 0 -164 58.5t-52 186.5t52 189.5t164 61.5q26 0 59.5 -3.5t62.5 -7.5l-7 -102q-33 6 -61.5 9.5t-53.5 3.5q-23 0 -40.5 -6t-29 -22.5t-17 -45t-5.5 -74.5q0 -45 5.5 -74t17 -45t29 -22t40.5 -6q25 0 52.5 3.5
t62.5 9.5zM274 550h-83l83 156h122z" />
    <glyph glyph-name="Ccircumflex" unicode="&#x108;" horiz-adv-x="527"
d="M497 6q-43 -7 -78.5 -11t-83.5 -4q-79 0 -133.5 21t-88 64.5t-48.5 110t-15 158.5q0 91 15 158t48.5 110t88 64t133.5 21q48 0 83.5 -4t78.5 -11l-9 -115q-26 4 -46 7.5t-37.5 6t-34.5 3.5t-36 1q-41 0 -70.5 -9.5t-48.5 -35.5t-28 -73t-9 -123t9 -123.5t28 -73.5
t48.5 -35.5t70.5 -9.5q19 0 36 1.5t34.5 3.5t37.5 5.5t46 8.5zM371 745l-56 70l-57 -70h-89l96 149h99l97 -149h-90z" />
    <glyph glyph-name="ccircumflex" unicode="&#x109;" horiz-adv-x="408"
d="M378 3q-15 -2 -31.5 -4.5t-33 -4t-31.5 -2.5t-26 -1q-112 0 -164 58.5t-52 186.5t52 189.5t164 61.5q26 0 59.5 -3.5t62.5 -7.5l-7 -102q-33 6 -61.5 9.5t-53.5 3.5q-23 0 -40.5 -6t-29 -22.5t-17 -45t-5.5 -74.5q0 -45 5.5 -74t17 -45t29 -22t40.5 -6q25 0 52.5 3.5
t62.5 9.5zM279 550l-56 70l-57 -70h-89l96 149h99l97 -149h-90z" />
    <glyph glyph-name="Cdotaccent" unicode="&#x10a;" horiz-adv-x="527"
d="M497 6q-43 -7 -78.5 -11t-83.5 -4q-79 0 -133.5 21t-88 64.5t-48.5 110t-15 158.5q0 91 15 158t48.5 110t88 64t133.5 21q48 0 83.5 -4t78.5 -11l-9 -115q-26 4 -46 7.5t-37.5 6t-34.5 3.5t-36 1q-41 0 -70.5 -9.5t-48.5 -35.5t-28 -73t-9 -123t9 -123.5t28 -73.5
t48.5 -35.5t70.5 -9.5q19 0 36 1.5t34.5 3.5t37.5 5.5t46 8.5zM266 756v115h112v-115h-112z" />
    <glyph glyph-name="cdotaccent" unicode="&#x10b;" horiz-adv-x="408"
d="M176 561v115h112v-115h-112zM378 3q-15 -2 -31.5 -4.5t-33 -4t-31.5 -2.5t-26 -1q-112 0 -164 58.5t-52 186.5t52 189.5t164 61.5q26 0 59.5 -3.5t62.5 -7.5l-7 -102q-33 6 -61.5 9.5t-53.5 3.5q-23 0 -40.5 -6t-29 -22.5t-17 -45t-5.5 -74.5q0 -45 5.5 -74t17 -45
t29 -22t40.5 -6q25 0 52.5 3.5t62.5 9.5z" />
    <glyph glyph-name="Ccaron" unicode="&#x10c;" horiz-adv-x="527"
d="M497 6q-43 -7 -78.5 -11t-83.5 -4q-79 0 -133.5 21t-88 64.5t-48.5 110t-15 158.5q0 91 15 158t48.5 110t88 64t133.5 21q48 0 83.5 -4t78.5 -11l-9 -115q-26 4 -46 7.5t-37.5 6t-34.5 3.5t-36 1q-41 0 -70.5 -9.5t-48.5 -35.5t-28 -73t-9 -123t9 -123.5t28 -73.5
t48.5 -35.5t70.5 -9.5q19 0 36 1.5t34.5 3.5t37.5 5.5t46 8.5zM262 894l56 -70l57 70h89l-96 -149h-99l-97 149h90z" />
    <glyph glyph-name="ccaron" unicode="&#x10d;" horiz-adv-x="408"
d="M378 3q-15 -2 -31.5 -4.5t-33 -4t-31.5 -2.5t-26 -1q-112 0 -164 58.5t-52 186.5t52 189.5t164 61.5q26 0 59.5 -3.5t62.5 -7.5l-7 -102q-33 6 -61.5 9.5t-53.5 3.5q-23 0 -40.5 -6t-29 -22.5t-17 -45t-5.5 -74.5q0 -45 5.5 -74t17 -45t29 -22t40.5 -6q25 0 52.5 3.5
t62.5 9.5zM174 699l56 -70l57 70h89l-96 -149h-99l-97 149h90z" />
    <glyph glyph-name="Dcaron" unicode="&#x10e;" horiz-adv-x="608"
d="M558 344q0 -96 -16.5 -172.5t-60.5 -118.5q-21 -19 -40 -29.5t-40.5 -16t-47 -6.5t-59.5 -1h-219v689h219q34 0 59.5 -1t47.5 -6.5t41 -16t39 -29.5q44 -42 60.5 -119t16.5 -173zM428 346q0 83 -8.5 133t-30.5 73q-17 17 -42.5 20.5t-73.5 3.5h-73v-463h73q46 0 73 4
t41 18q23 23 32 75t9 136zM235 894l56 -70l57 70h89l-96 -149h-99l-97 149h90z" />
    <glyph glyph-name="dcaron" unicode="&#x10f;" horiz-adv-x="644"
d="M213 487q37 0 65 -10.5t48 -22.5v266h118v-720h-96l-9 30q-25 -17 -56.5 -28.5t-71.5 -11.5q-48 0 -80.5 16t-52.5 47.5t-29 76.5t-9 104q0 53 8.5 99t29 80.5t53.5 54t82 19.5zM161 234q0 -45 4 -72.5t13 -43.5t22 -21.5t31 -5.5q28 0 52 10t43 21v234q-16 11 -40 20.5
t-56 9.5q-37 0 -53 -34t-16 -118zM631 720l-5 -64q-1 -16 -7 -33t-14 -33.5t-17 -30.5t-16 -24h-73q7 17 12.5 31.5t9 29t6 31t3.5 37.5v56h101z" />
    <glyph glyph-name="Dcroat" unicode="&#x110;" horiz-adv-x="637"
d="M587 344q0 -96 -16.5 -172.5t-60.5 -118.5q-21 -19 -40 -29.5t-40.5 -16t-47 -6.5t-59.5 -1h-219v297h-95v105h95v287h219q34 0 59.5 -1t47.5 -6.5t41 -16t39 -29.5q44 -42 60.5 -119t16.5 -173zM457 346q0 83 -8.5 133t-30.5 73q-17 17 -42.5 20.5t-73.5 3.5h-73v-174
h135v-105h-135v-184h73q46 0 73 4t41 18q23 23 32 75t9 136z" />
    <glyph glyph-name="dcroat" unicode="&#x111;" horiz-adv-x="510"
d="M213 487q37 0 65 -10.5t48 -22.5v93h-135v92h135v81h118v-81h78v-92h-78v-547h-96l-9 30q-25 -17 -56.5 -28.5t-71.5 -11.5q-48 0 -80.5 16t-52.5 47.5t-29 76.5t-9 104q0 53 8.5 99t29 80.5t53.5 54t82 19.5zM161 234q0 -45 4 -72.5t13 -43.5t22 -21.5t31 -5.5
q28 0 52 10t43 21v234q-16 11 -40 20.5t-56 9.5q-37 0 -53 -34t-16 -118z" />
    <glyph glyph-name="Emacron" unicode="&#x112;" horiz-adv-x="516"
d="M75 0v689h400v-110h-276v-170h189v-110h-189v-189h276v-110h-400zM435 778h-317v89h317v-89z" />
    <glyph glyph-name="emacron" unicode="&#x113;" horiz-adv-x="460"
d="M423 212h-262q0 -69 26 -95t70 -26q21 0 38 1.5t33 4t33.5 6.5t40.5 9l6 -103q-42 -9 -77.5 -13.5t-74.5 -4.5q-112 0 -164 59t-52 187q0 127 47 188.5t157 61.5q55 0 90 -15.5t55 -43.5t27 -66t7 -84v-66zM309 295q0 18 -2 36t-8.5 32.5t-19.5 23t-36 8.5q-42 0 -58 -25
t-20 -75h144zM405 583h-317v89h317v-89z" />
    <glyph glyph-name="Ebreve" unicode="&#x114;" horiz-adv-x="516"
d="M75 0v689h400v-110h-276v-170h189v-110h-189v-189h276v-110h-400zM428 889q-17 -76 -53.5 -110t-100.5 -34q-65 0 -101 34t-54 110h86q3 -12 7 -23.5t12 -20.5t20.5 -14t30.5 -5q37 0 49 19t17 44h87z" />
    <glyph glyph-name="ebreve" unicode="&#x115;" horiz-adv-x="460"
d="M398 694q-17 -76 -53.5 -110t-100.5 -34q-65 0 -101 34t-54 110h86q3 -12 7 -23.5t12 -20.5t20.5 -14t30.5 -5q37 0 49 19t17 44h87zM423 212h-262q0 -69 26 -95t70 -26q21 0 38 1.5t33 4t33.5 6.5t40.5 9l6 -103q-42 -9 -77.5 -13.5t-74.5 -4.5q-112 0 -164 59t-52 187
q0 127 47 188.5t157 61.5q55 0 90 -15.5t55 -43.5t27 -66t7 -84v-66zM309 295q0 18 -2 36t-8.5 32.5t-19.5 23t-36 8.5q-42 0 -58 -25t-20 -75h144z" />
    <glyph glyph-name="Edotaccent" unicode="&#x116;" horiz-adv-x="516"
d="M75 0v689h400v-110h-276v-170h189v-110h-189v-189h276v-110h-400zM220 756v115h112v-115h-112z" />
    <glyph glyph-name="edotaccent" unicode="&#x117;" horiz-adv-x="460"
d="M423 212h-262q0 -69 26 -95t70 -26q21 0 38 1.5t33 4t33.5 6.5t40.5 9l6 -103q-42 -9 -77.5 -13.5t-74.5 -4.5q-112 0 -164 59t-52 187q0 127 47 188.5t157 61.5q55 0 90 -15.5t55 -43.5t27 -66t7 -84v-66zM309 295q0 18 -2 36t-8.5 32.5t-19.5 23t-36 8.5q-42 0 -58 -25
t-20 -75h144zM193 561v115h112v-115h-112z" />
    <glyph glyph-name="Eogonek" unicode="&#x118;" horiz-adv-x="516"
d="M500 -184q-15 -8 -36 -14t-44 -6q-51 0 -81.5 21t-30.5 63q0 37 23.5 68.5t55.5 51.5h-312v689h400v-110h-276v-170h189v-110h-189v-189h276v-110q-38 -31 -58 -54.5t-20 -48.5q0 -10 7 -18.5t24 -8.5t34 5t34 13z" />
    <glyph glyph-name="eogonek" unicode="&#x119;" horiz-adv-x="460"
d="M417 -184q-15 -8 -36 -14t-44 -6q-51 0 -81.5 21t-30.5 63q0 34 19 63t48 49q-9 0 -18 -0.5t-18 -0.5q-112 0 -164 59t-52 187q0 127 47 188.5t157 61.5q55 0 90 -15.5t55 -43.5t27 -66t7 -84v-66h-262q0 -69 26 -95t70 -26q21 0 38 1.5t33 4t33.5 6.5t40.5 9l6 -103
q-45 -29 -69.5 -55.5t-24.5 -56.5q0 -10 7 -18.5t24 -8.5t34 5t34 13zM309 295q0 18 -2 36t-8.5 32.5t-19.5 23t-36 8.5q-42 0 -58 -25t-20 -75h144z" />
    <glyph glyph-name="Ecaron" unicode="&#x11a;" horiz-adv-x="516"
d="M75 0v689h400v-110h-276v-170h189v-110h-189v-189h276v-110h-400zM225 894l56 -70l57 70h89l-96 -149h-99l-97 149h90z" />
    <glyph glyph-name="ecaron" unicode="&#x11b;" horiz-adv-x="460"
d="M423 212h-262q0 -69 26 -95t70 -26q21 0 38 1.5t33 4t33.5 6.5t40.5 9l6 -103q-42 -9 -77.5 -13.5t-74.5 -4.5q-112 0 -164 59t-52 187q0 127 47 188.5t157 61.5q55 0 90 -15.5t55 -43.5t27 -66t7 -84v-66zM309 295q0 18 -2 36t-8.5 32.5t-19.5 23t-36 8.5q-42 0 -58 -25
t-20 -75h144zM189 699l56 -70l57 70h89l-96 -149h-99l-97 149h90z" />
    <glyph glyph-name="Gcircumflex" unicode="&#x11c;" horiz-adv-x="607"
d="M321 384h230v-362q-47 -12 -102 -21.5t-104 -9.5q-71 0 -124 16.5t-89 51.5q-45 45 -63.5 116.5t-18.5 174.5q0 92 16.5 158t52.5 108t92 62t134 20q24 0 44 -1t40.5 -2.5t42 -4.5t47.5 -6l-9 -115q-46 8 -85 12.5t-81 4.5q-41 0 -72 -9t-52 -34.5t-31.5 -72
t-10.5 -121.5q0 -87 13 -137.5t40 -76.5q20 -19 49 -25.5t64 -6.5q20 0 42 2t42 8v161h-107v110zM390 745l-56 70l-57 -70h-89l96 149h99l97 -149h-90z" />
    <glyph glyph-name="gcircumflex" unicode="&#x11d;" horiz-adv-x="509"
d="M314 550l-56 70l-57 -70h-89l96 149h99l97 -149h-90zM161 234q0 -45 4 -72.5t13 -43.5t22 -21.5t31 -5.5q28 0 52 9.5t43 20.5v235q-16 11 -40 20.5t-56 9.5q-37 0 -53 -34t-16 -118zM327 21q-20 -12 -48 -21.5t-68 -9.5q-48 0 -80.5 16t-52.5 47.5t-29 76.5t-9 104
q0 53 8.5 99t29 80.5t53.5 54t82 19.5q40 0 70.5 -11t55.5 -28l9 31h96v-529q0 -46 -10 -81t-32.5 -59t-59.5 -36t-92 -12t-94.5 5t-75.5 13l7 102q47 -9 80 -14.5t74 -5.5q48 0 67 21.5t19 72.5v65z" />
    <glyph glyph-name="Gbreve" unicode="&#x11e;" horiz-adv-x="607"
d="M321 384h230v-362q-47 -12 -102 -21.5t-104 -9.5q-71 0 -124 16.5t-89 51.5q-45 45 -63.5 116.5t-18.5 174.5q0 92 16.5 158t52.5 108t92 62t134 20q24 0 44 -1t40.5 -2.5t42 -4.5t47.5 -6l-9 -115q-46 8 -85 12.5t-81 4.5q-41 0 -72 -9t-52 -34.5t-31.5 -72
t-10.5 -121.5q0 -87 13 -137.5t40 -76.5q20 -19 49 -25.5t64 -6.5q20 0 42 2t42 8v161h-107v110zM485 889q-17 -76 -53.5 -110t-100.5 -34q-65 0 -101 34t-54 110h86q3 -12 7 -23.5t12 -20.5t20.5 -14t30.5 -5q37 0 49 19t17 44h87z" />
    <glyph glyph-name="gbreve" unicode="&#x11f;" horiz-adv-x="509"
d="M161 234q0 -45 4 -72.5t13 -43.5t22 -21.5t31 -5.5q28 0 52 9.5t43 20.5v235q-16 11 -40 20.5t-56 9.5q-37 0 -53 -34t-16 -118zM327 21q-20 -12 -48 -21.5t-68 -9.5q-48 0 -80.5 16t-52.5 47.5t-29 76.5t-9 104q0 53 8.5 99t29 80.5t53.5 54t82 19.5q40 0 70.5 -11
t55.5 -28l9 31h96v-529q0 -46 -10 -81t-32.5 -59t-59.5 -36t-92 -12t-94.5 5t-75.5 13l7 102q47 -9 80 -14.5t74 -5.5q48 0 67 21.5t19 72.5v65zM404 694q-17 -76 -53.5 -110t-100.5 -34q-65 0 -101 34t-54 110h86q3 -12 7 -23.5t12 -20.5t20.5 -14t30.5 -5q37 0 49 19
t17 44h87z" />
    <glyph glyph-name="Gdotaccent" unicode="&#x120;" horiz-adv-x="607"
d="M321 384h230v-362q-47 -12 -102 -21.5t-104 -9.5q-71 0 -124 16.5t-89 51.5q-45 45 -63.5 116.5t-18.5 174.5q0 92 16.5 158t52.5 108t92 62t134 20q24 0 44 -1t40.5 -2.5t42 -4.5t47.5 -6l-9 -115q-46 8 -85 12.5t-81 4.5q-41 0 -72 -9t-52 -34.5t-31.5 -72
t-10.5 -121.5q0 -87 13 -137.5t40 -76.5q20 -19 49 -25.5t64 -6.5q20 0 42 2t42 8v161h-107v110zM275 756v115h112v-115h-112z" />
    <glyph glyph-name="gdotaccent" unicode="&#x121;" horiz-adv-x="509"
d="M161 234q0 -45 4 -72.5t13 -43.5t22 -21.5t31 -5.5q28 0 52 9.5t43 20.5v235q-16 11 -40 20.5t-56 9.5q-37 0 -53 -34t-16 -118zM327 21q-20 -12 -48 -21.5t-68 -9.5q-48 0 -80.5 16t-52.5 47.5t-29 76.5t-9 104q0 53 8.5 99t29 80.5t53.5 54t82 19.5q40 0 70.5 -11
t55.5 -28l9 31h96v-529q0 -46 -10 -81t-32.5 -59t-59.5 -36t-92 -12t-94.5 5t-75.5 13l7 102q47 -9 80 -14.5t74 -5.5q48 0 67 21.5t19 72.5v65zM188 561v115h112v-115h-112z" />
    <glyph glyph-name="Gcommaaccent" unicode="&#x122;" horiz-adv-x="607"
d="M321 384h230v-362q-47 -12 -102 -21.5t-104 -9.5q-71 0 -124 16.5t-89 51.5q-45 45 -63.5 116.5t-18.5 174.5q0 92 16.5 158t52.5 108t92 62t134 20q24 0 44 -1t40.5 -2.5t42 -4.5t47.5 -6l-9 -115q-46 8 -85 12.5t-81 4.5q-41 0 -72 -9t-52 -34.5t-31.5 -72
t-10.5 -121.5q0 -87 13 -137.5t40 -76.5q20 -19 49 -25.5t64 -6.5q20 0 42 2t42 8v161h-107v110zM394 -54l-5 -64q-1 -16 -7 -33t-14 -33.5t-17 -30.5t-16 -24h-73q7 17 12.5 31.5t9 29t6 31t3.5 37.5v56h101z" />
    <glyph glyph-name="gcommaaccent" unicode="&#x123;" horiz-adv-x="509"
d="M161 234q0 -45 4 -72.5t13 -43.5t22 -21.5t31 -5.5q28 0 52 9.5t43 20.5v235q-16 11 -40 20.5t-56 9.5q-37 0 -53 -34t-16 -118zM327 21q-20 -12 -48 -21.5t-68 -9.5q-48 0 -80.5 16t-52.5 47.5t-29 76.5t-9 104q0 53 8.5 99t29 80.5t53.5 54t82 19.5q40 0 70.5 -11
t55.5 -28l9 31h96v-529q0 -46 -10 -81t-32.5 -59t-59.5 -36t-92 -12t-94.5 5t-75.5 13l7 102q47 -9 80 -14.5t74 -5.5q48 0 67 21.5t19 72.5v65zM328 714l-5 -64q-1 -16 -7 -33t-14 -33.5t-17 -30.5t-16 -24h-73q7 17 12.5 31.5t9 29t6 31t3.5 37.5v56h101z" />
    <glyph glyph-name="Hcircumflex" unicode="&#x124;" horiz-adv-x="643"
d="M444 0v299h-245v-299h-124v689h124v-280h245v280h123v-689h-123zM379 745l-56 70l-57 -70h-89l96 149h99l97 -149h-90z" />
    <glyph glyph-name="hcircumflex" unicode="&#x125;" horiz-adv-x="500"
d="M445 0h-118v344q0 23 -11.5 33t-29.5 10q-29 0 -59.5 -9.5t-48.5 -21.5v-356h-118v720h118v-266q28 14 60 23.5t73 9.5q25 0 49.5 -6.5t43 -22t30 -42.5t11.5 -67v-349zM175 775l-56 70l-57 -70h-89l96 149h99l97 -149h-90z" />
    <glyph glyph-name="Hbar" unicode="&#x126;" horiz-adv-x="643"
d="M444 0v299h-245v-299h-124v689h124v-113h245v113h123v-689h-123zM444 409v71h-245v-71h245z" />
    <glyph glyph-name="hbar" unicode="&#x127;" horiz-adv-x="505"
d="M-12 639h77v81h118v-81h136v-92h-136v-93q28 14 60 23.5t73 9.5q25 0 49.5 -6.5t43 -22t30 -42.5t11.5 -67v-349h-118v344q0 23 -11.5 33t-29.5 10q-29 0 -59.5 -9.5t-48.5 -21.5v-356h-118v547h-77v92z" />
    <glyph glyph-name="Itilde" unicode="&#x128;" horiz-adv-x="275"
d="M75 0v689h124v-689h-124zM204 851q28 0 71 49l35 -81q-21 -20 -48 -37t-56 -17q-20 0 -38.5 6.5t-35 14.5t-31.5 14.5t-29 6.5q-18 0 -36.5 -15t-36.5 -35l-35 82q19 18 43.5 35.5t58.5 17.5q18 0 35 -6.5t34 -14t34 -14t35 -6.5z" />
    <glyph glyph-name="itilde" unicode="&#x129;" horiz-adv-x="246"
d="M64 0v479h118v-479h-118zM188 657q28 0 71 49l35 -81q-21 -20 -48 -37t-56 -17q-20 0 -38.5 6.5t-35 14.5t-31.5 14.5t-29 6.5q-18 0 -36.5 -15t-36.5 -35l-35 82q19 18 43.5 35.5t58.5 17.5q18 0 35 -6.5t34 -14t34 -14t35 -6.5z" />
    <glyph glyph-name="Imacron" unicode="&#x12a;" horiz-adv-x="275"
d="M75 0v689h124v-689h-124zM296 778h-317v89h317v-89z" />
    <glyph glyph-name="imacron" unicode="&#x12b;" horiz-adv-x="246"
d="M64 0v479h118v-479h-118zM284 583h-317v89h317v-89z" />
    <glyph glyph-name="Ibreve" unicode="&#x12c;" horiz-adv-x="275"
d="M75 0v689h124v-689h-124zM291 889q-17 -76 -53.5 -110t-100.5 -34q-65 0 -101 34t-54 110h86q3 -12 7 -23.5t12 -20.5t20.5 -14t30.5 -5q37 0 49 19t17 44h87z" />
    <glyph glyph-name="ibreve" unicode="&#x12d;" horiz-adv-x="246"
d="M64 0v479h118v-479h-118zM276 694q-17 -76 -53.5 -110t-100.5 -34q-65 0 -101 34t-54 110h86q3 -12 7 -23.5t12 -20.5t20.5 -14t30.5 -5q37 0 49 19t17 44h87z" />
    <glyph glyph-name="Iogonek" unicode="&#x12e;" horiz-adv-x="275"
d="M224 -184q-15 -8 -36 -14t-44 -6q-51 0 -81.5 21t-30.5 63q0 37 23.5 68.5t55.5 51.5h-36v689h124v-689q-38 -31 -58 -54.5t-20 -48.5q0 -10 7 -18.5t24 -8.5t34 5t34 13z" />
    <glyph glyph-name="iogonek" unicode="&#x12f;" horiz-adv-x="246"
d="M207 -184q-15 -8 -36 -14t-44 -6q-51 0 -81.5 21t-30.5 63q0 37 23.5 68.5t55.5 51.5h-30v479h118v-479q-38 -31 -58 -54.5t-20 -48.5q0 -10 7 -18.5t24 -8.5t34 5t34 13zM63 561v128h120v-128h-120z" />
    <glyph glyph-name="Idotaccent" unicode="&#x130;" horiz-adv-x="275"
d="M75 0v689h124v-689h-124zM81 756v115h112v-115h-112z" />
    <glyph glyph-name="dotlessi" unicode="&#x131;" horiz-adv-x="246"
d="M64 0v479h118v-479h-118z" />
    <glyph glyph-name="IJ" unicode="&#x132;" horiz-adv-x="628"
d="M75 0v689h124v-689h-124zM558 181q0 -54 -7.5 -90t-26 -58.5t-50.5 -32t-81 -9.5q-34 0 -66.5 2.5t-69.5 7.5l7 112q29 -6 60 -8.5t55 -2.5q18 0 29 2.5t17 10.5t7.5 22t1.5 38v514h124v-508z" />
    <glyph glyph-name="ij" unicode="&#x133;" horiz-adv-x="476"
d="M64 0v479h118v-479h-118zM63 561v128h120v-128h-120zM411 -61q0 -51 -7.5 -85t-24.5 -54t-43.5 -28.5t-65.5 -8.5q-22 0 -47.5 2t-48.5 7l6 108q17 -4 35.5 -6.5t36.5 -2.5q28 0 34.5 17t6.5 47v544h118v-540zM292 561v128h120v-128h-120z" />
    <glyph glyph-name="Jcircumflex" unicode="&#x134;" horiz-adv-x="371"
d="M297 745l-56 70l-57 -70h-89l96 149h99l97 -149h-90zM301 181q0 -54 -7.5 -90t-26 -58.5t-50.5 -32t-81 -9.5q-34 0 -66.5 2.5t-69.5 7.5l7 112q29 -6 60 -8.5t55 -2.5q18 0 29 2.5t17 10.5t7.5 22t1.5 38v514h124v-508z" />
    <glyph glyph-name="jcircumflex" unicode="&#x135;" horiz-adv-x="248"
d="M183 -61q0 -51 -7.5 -85t-24.5 -54t-43.5 -28.5t-65.5 -8.5q-22 0 -47.5 2t-48.5 7l6 108q17 -4 35.5 -6.5t36.5 -2.5q28 0 34.5 17t6.5 47v544h118v-540zM180 570l-56 70l-57 -70h-89l96 149h99l97 -149h-90z" />
    <glyph glyph-name="Kcommaaccent" unicode="&#x136;" horiz-adv-x="555"
d="M417 0l-159 303l-59 -60v-243h-124v689h124v-313l214 313h129l-197 -285l215 -404h-143zM344 -54l-5 -64q-1 -16 -7 -33t-14 -33.5t-17 -30.5t-16 -24h-73q7 17 12.5 31.5t9 29t6 31t3.5 37.5v56h101z" />
    <glyph glyph-name="kcommaaccent" unicode="&#x137;" horiz-adv-x="459"
d="M334 0l-111 220l-45 -49v-171h-118v720h118v-437q4 12 16 32.5t23 34.5l95 129h132l-144 -180l162 -299h-128zM304 -54l-5 -64q-1 -16 -7 -33t-14 -33.5t-17 -30.5t-16 -24h-73q7 17 12.5 31.5t9 29t6 31t3.5 37.5v56h101z" />
    <glyph glyph-name="kgreenlandic" unicode="&#x138;" horiz-adv-x="459"
d="M334 0l-111 220l-45 -49v-171h-118v479h118v-196q4 12 16 32.5t23 34.5l95 129h132l-144 -180l162 -299h-128z" />
    <glyph glyph-name="Lacute" unicode="&#x139;" horiz-adv-x="489"
d="M75 0v689h124v-579h267v-110h-391zM181 745h-83l83 156h122z" />
    <glyph glyph-name="lacute" unicode="&#x13a;" horiz-adv-x="238"
d="M60 0v720h118v-720h-118zM163 775h-83l83 156h122z" />
    <glyph glyph-name="Lcommaaccent" unicode="&#x13b;" horiz-adv-x="489"
d="M75 0v689h124v-579h267v-110h-391zM329 -54l-5 -64q-1 -16 -7 -33t-14 -33.5t-17 -30.5t-16 -24h-73q7 17 12.5 31.5t9 29t6 31t3.5 37.5v56h101z" />
    <glyph glyph-name="lcommaaccent" unicode="&#x13c;" horiz-adv-x="238"
d="M60 0v720h118v-720h-118zM170 -54l-5 -64q-1 -16 -7 -33t-14 -33.5t-17 -30.5t-16 -24h-73q7 17 12.5 31.5t9 29t6 31t3.5 37.5v56h101z" />
    <glyph glyph-name="Lcaron" unicode="&#x13d;" horiz-adv-x="489"
d="M75 0v689h124v-579h267v-110h-391zM440 689l-5 -64q-1 -16 -7 -33t-14 -33.5t-17 -30.5t-16 -24h-73q7 17 12.5 31.5t9 29t6 31t3.5 37.5v56h101z" />
    <glyph glyph-name="lcaron" unicode="&#x13e;" horiz-adv-x="372"
d="M60 0v720h118v-720h-118zM359 720l-5 -64q-1 -16 -7 -33t-14 -33.5t-17 -30.5t-16 -24h-73q7 17 12.5 31.5t9 29t6 31t3.5 37.5v56h101z" />
    <glyph glyph-name="Ldot" unicode="&#x13f;" horiz-adv-x="489"
d="M75 0v689h124v-579h267v-110h-391zM293 295v115h112v-115h-112z" />
    <glyph glyph-name="ldot" unicode="&#x140;" horiz-adv-x="444"
d="M60 0v720h118v-720h-118zM278 295v115h112v-115h-112z" />
    <glyph glyph-name="Lslash" unicode="&#x141;" horiz-adv-x="499"
d="M209 281v-171h267v-110h-391v211l-79 -45v116l79 45v362h124v-291l148 85v-117z" />
    <glyph glyph-name="lslash" unicode="&#x142;" horiz-adv-x="324"
d="M98 0v209l-79 -45v112l79 45v399h118v-332l86 50v-113l-86 -49v-276h-118z" />
    <glyph glyph-name="Nacute" unicode="&#x143;" horiz-adv-x="676"
d="M446 235q8 -17 15 -40t15 -44l15 -49l-4 51q-2 20 -3 41.5t-1 35.5v459h118v-689h-168l-206 464q-7 16 -14 36.5t-14 40.5l-14 46l4 -49q2 -20 3 -41t1 -34v-463h-118v689h168zM372 745h-83l83 156h122z" />
    <glyph glyph-name="nacute" unicode="&#x144;" horiz-adv-x="500"
d="M445 0h-118v344q0 23 -11.5 33t-29.5 10q-29 0 -59.5 -9.5t-48.5 -21.5v-356h-118v479h96l8 -32q29 16 65 28t82 12q25 0 49.5 -6.5t43 -22t30 -42.5t11.5 -67v-349zM310 550h-83l83 156h122z" />
    <glyph glyph-name="Ncommaaccent" unicode="&#x145;" horiz-adv-x="676"
d="M446 235q8 -17 15 -40t15 -44l15 -49l-4 51q-2 20 -3 41.5t-1 35.5v459h118v-689h-168l-206 464q-7 16 -14 36.5t-14 40.5l-14 46l4 -49q2 -20 3 -41t1 -34v-463h-118v689h168zM377 -54l-5 -64q-1 -16 -7 -33t-14 -33.5t-17 -30.5t-16 -24h-73q7 17 12.5 31.5t9 29t6 31
t3.5 37.5v56h101z" />
    <glyph glyph-name="ncommaaccent" unicode="&#x146;" horiz-adv-x="500"
d="M445 0h-118v344q0 23 -11.5 33t-29.5 10q-29 0 -59.5 -9.5t-48.5 -21.5v-356h-118v479h96l8 -32q29 16 65 28t82 12q25 0 49.5 -6.5t43 -22t30 -42.5t11.5 -67v-349zM307 -54l-5 -64q-1 -16 -7 -33t-14 -33.5t-17 -30.5t-16 -24h-73q7 17 12.5 31.5t9 29t6 31t3.5 37.5
v56h101z" />
    <glyph glyph-name="Ncaron" unicode="&#x147;" horiz-adv-x="676"
d="M446 235q8 -17 15 -40t15 -44l15 -49l-4 51q-2 20 -3 41.5t-1 35.5v459h118v-689h-168l-206 464q-7 16 -14 36.5t-14 40.5l-14 46l4 -49q2 -20 3 -41t1 -34v-463h-118v689h168zM276 894l56 -70l57 70h89l-96 -149h-99l-97 149h90z" />
    <glyph glyph-name="ncaron" unicode="&#x148;" horiz-adv-x="500"
d="M445 0h-118v344q0 23 -11.5 33t-29.5 10q-29 0 -59.5 -9.5t-48.5 -21.5v-356h-118v479h96l8 -32q29 16 65 28t82 12q25 0 49.5 -6.5t43 -22t30 -42.5t11.5 -67v-349zM207 699l56 -70l57 70h89l-96 -149h-99l-97 149h90z" />
    <glyph glyph-name="Eng" unicode="&#x14a;" horiz-adv-x="676"
d="M438 302q8 -17 20.5 -51t32.5 -99q-3 33 -4.5 54.5t-2.5 35.5t-1 22.5v15.5v409h118v-750q0 -51 -7.5 -85t-24.5 -54t-43.5 -28.5t-65.5 -8.5q-22 0 -47.5 2t-48.5 7l6 108q17 -4 35.5 -6.5t36.5 -2.5q28 0 34.5 17t6.5 47v7l-256 522q-4 8 -7.5 18t-8.5 24.5t-11 34
t-15 46.5q5 -57 6.5 -84t1.5 -40v-463h-118v689h168z" />
    <glyph glyph-name="eng" unicode="&#x14b;" horiz-adv-x="500"
d="M445 -61q0 -51 -7.5 -85t-24.5 -54t-43.5 -28.5t-65.5 -8.5q-22 0 -47.5 2t-48.5 7l6 108q17 -4 35.5 -6.5t36.5 -2.5q28 0 34.5 17t6.5 47v409q0 23 -11.5 33t-29.5 10q-29 0 -59.5 -9.5t-48.5 -21.5v-356h-118v479h96l8 -32q29 16 65 28t82 12q25 0 49.5 -6.5t43 -22
t30 -42.5t11.5 -67v-410z" />
    <glyph glyph-name="Omacron" unicode="&#x14c;" horiz-adv-x="639"
d="M589 344q0 -91 -12 -157.5t-43 -110t-83 -64.5t-131 -21q-80 0 -132 21t-83 64.5t-43 110t-12 157.5t12 158t43 110.5t83 64.5t132 21q79 0 131 -21.5t83 -65t43 -110t12 -157.5zM459 344q0 77 -7 124.5t-23 73.5t-43 35t-67 9t-67 -9t-43.5 -35t-23.5 -73.5t-7 -124.5
t7 -124t23.5 -72.5t43.5 -34.5t67 -9t67 9t43 34.5t23 72.5t7 124zM478 778h-317v89h317v-89z" />
    <glyph glyph-name="omacron" unicode="&#x14d;" horiz-adv-x="512"
d="M472 239q0 -128 -51.5 -188t-164.5 -60q-112 0 -164 60.5t-52 188.5t51.5 187.5t164.5 59.5t164.5 -59.5t51.5 -188.5zM348 239q0 46 -5.5 74.5t-17 45t-29 22.5t-40.5 6t-40.5 -6t-29 -22t-17 -45t-5.5 -74q0 -46 5.5 -74.5t17 -45t29 -22.5t40.5 -6q24 0 41 6t28.5 22
t17 45t5.5 74zM415 583h-317v89h317v-89z" />
    <glyph glyph-name="Obreve" unicode="&#x14e;" horiz-adv-x="639"
d="M589 344q0 -91 -12 -157.5t-43 -110t-83 -64.5t-131 -21q-80 0 -132 21t-83 64.5t-43 110t-12 157.5t12 158t43 110.5t83 64.5t132 21q79 0 131 -21.5t83 -65t43 -110t12 -157.5zM459 344q0 77 -7 124.5t-23 73.5t-43 35t-67 9t-67 -9t-43.5 -35t-23.5 -73.5t-7 -124.5
t7 -124t23.5 -72.5t43.5 -34.5t67 -9t67 9t43 34.5t23 72.5t7 124zM472 889q-17 -76 -53.5 -110t-100.5 -34q-65 0 -101 34t-54 110h86q3 -12 7 -23.5t12 -20.5t20.5 -14t30.5 -5q37 0 49 19t17 44h87z" />
    <glyph glyph-name="obreve" unicode="&#x14f;" horiz-adv-x="512"
d="M472 239q0 -128 -51.5 -188t-164.5 -60q-112 0 -164 60.5t-52 188.5t51.5 187.5t164.5 59.5t164.5 -59.5t51.5 -188.5zM348 239q0 46 -5.5 74.5t-17 45t-29 22.5t-40.5 6t-40.5 -6t-29 -22t-17 -45t-5.5 -74q0 -46 5.5 -74.5t17 -45t29 -22.5t40.5 -6q24 0 41 6t28.5 22
t17 45t5.5 74zM409 694q-17 -76 -53.5 -110t-100.5 -34q-65 0 -101 34t-54 110h86q3 -12 7 -23.5t12 -20.5t20.5 -14t30.5 -5q37 0 49 19t17 44h87z" />
    <glyph glyph-name="Ohungarumlaut" unicode="&#x150;" horiz-adv-x="639"
d="M589 344q0 -91 -12 -157.5t-43 -110t-83 -64.5t-131 -21q-80 0 -132 21t-83 64.5t-43 110t-12 157.5t12 158t43 110.5t83 64.5t132 21q79 0 131 -21.5t83 -65t43 -110t12 -157.5zM459 344q0 77 -7 124.5t-23 73.5t-43 35t-67 9t-67 -9t-43.5 -35t-23.5 -73.5t-7 -124.5
t7 -124t23.5 -72.5t43.5 -34.5t67 -9t67 9t43 34.5t23 72.5t7 124zM450 745h-83l84 156h121zM274 745h-83l84 156h121z" />
    <glyph glyph-name="ohungarumlaut" unicode="&#x151;" horiz-adv-x="512"
d="M472 239q0 -128 -51.5 -188t-164.5 -60q-112 0 -164 60.5t-52 188.5t51.5 187.5t164.5 59.5t164.5 -59.5t51.5 -188.5zM348 239q0 46 -5.5 74.5t-17 45t-29 22.5t-40.5 6t-40.5 -6t-29 -22t-17 -45t-5.5 -74q0 -46 5.5 -74.5t17 -45t29 -22.5t40.5 -6q24 0 41 6t28.5 22
t17 45t5.5 74zM387 550h-83l84 156h121zM211 550h-83l84 156h121z" />
    <glyph glyph-name="OE" unicode="&#x152;" horiz-adv-x="847"
d="M421 0q-19 -2 -42 -3t-51 -1q-80 0 -132.5 20t-84 62.5t-44.5 108.5t-13 157t13 157t44.5 108.5t84 63t132.5 20.5q28 0 51 -1t42 -3h400v-110h-276v-170h189v-110h-189v-189h276v-110h-400zM327 109q30 0 50.5 2.5t43.5 8.5v449q-17 7 -40 9.5t-54 2.5q-40 0 -67.5 -8
t-45 -33.5t-25 -72t-7.5 -123.5t7.5 -123t25 -71t45 -33t67.5 -8z" />
    <glyph glyph-name="oe" unicode="&#x153;" horiz-adv-x="774"
d="M408 433q23 29 59 43.5t92 14.5q52 0 86.5 -15.5t54.5 -43.5t28.5 -66t8.5 -84v-66h-264q0 -35 5.5 -58t19 -37.5t35.5 -20.5t54 -6q14 0 31 1.5t34 3.5t33.5 5t29.5 6l5 -101q-16 -5 -35.5 -8.5t-39 -5.5t-37.5 -3t-32 -1q-61 0 -100.5 14.5t-64.5 44.5h-2
q-23 -31 -60 -45.5t-93 -14.5q-112 0 -164 61.5t-52 189.5t51.5 188.5t164.5 60.5q54 0 90.5 -14t59.5 -43h2zM625 302q0 18 -3 35t-10 30t-20.5 21t-34.5 8q-42 0 -59.5 -23t-20.5 -71h148zM350 240q0 46 -6 74.5t-18 44.5t-29.5 22t-40.5 6t-40.5 -6t-29.5 -22t-18 -44.5
t-6 -73.5q0 -46 6 -74.5t18 -44.5t29.5 -22t40.5 -6q24 0 41.5 6t29 22t17.5 44.5t6 73.5z" />
    <glyph glyph-name="Racute" unicode="&#x154;" horiz-adv-x="551"
d="M387 0l-109 271h-80v-271h-123v689h250q54 0 91 -16t59 -43.5t31.5 -64.5t9.5 -79q0 -87 -29 -137t-85 -67l120 -282h-135zM386 483q0 48 -14.5 72t-59.5 24h-114v-198h115q46 0 59.5 26.5t13.5 75.5zM313 745h-83l83 156h122z" />
    <glyph glyph-name="racute" unicode="&#x155;" horiz-adv-x="349"
d="M268 487q18 0 35 -2.5t31 -5.5l-5 -113q-39 12 -72 12q-25 0 -45 -10t-34 -23v-345h-118v479h96l11 -48q17 24 41.5 40t59.5 16zM230 550h-83l83 156h122z" />
    <glyph glyph-name="Rcommaaccent" unicode="&#x156;" horiz-adv-x="551"
d="M387 0l-109 271h-80v-271h-123v689h250q54 0 91 -16t59 -43.5t31.5 -64.5t9.5 -79q0 -87 -29 -137t-85 -67l120 -282h-135zM386 483q0 48 -14.5 72t-59.5 24h-114v-198h115q46 0 59.5 26.5t13.5 75.5zM343 -54l-5 -64q-1 -16 -7 -33t-14 -33.5t-17 -30.5t-16 -24h-73
q7 17 12.5 31.5t9 29t6 31t3.5 37.5v56h101z" />
    <glyph glyph-name="rcommaaccent" unicode="&#x157;" horiz-adv-x="349"
d="M268 487q18 0 35 -2.5t31 -5.5l-5 -113q-39 12 -72 12q-25 0 -45 -10t-34 -23v-345h-118v479h96l11 -48q17 24 41.5 40t59.5 16zM167 -54l-5 -64q-1 -16 -7 -33t-14 -33.5t-17 -30.5t-16 -24h-73q7 17 12.5 31.5t9 29t6 31t3.5 37.5v56h101z" />
    <glyph glyph-name="Rcaron" unicode="&#x158;" horiz-adv-x="551"
d="M387 0l-109 271h-80v-271h-123v689h250q54 0 91 -16t59 -43.5t31.5 -64.5t9.5 -79q0 -87 -29 -137t-85 -67l120 -282h-135zM386 483q0 48 -14.5 72t-59.5 24h-114v-198h115q46 0 59.5 26.5t13.5 75.5zM219 894l56 -70l57 70h89l-96 -149h-99l-97 149h90z" />
    <glyph glyph-name="rcaron" unicode="&#x159;" horiz-adv-x="349"
d="M268 487q18 0 35 -2.5t31 -5.5l-5 -113q-39 12 -72 12q-25 0 -45 -10t-34 -23v-345h-118v479h96l11 -48q17 24 41.5 40t59.5 16zM131 699l56 -70l57 70h89l-96 -149h-99l-97 149h90z" />
    <glyph glyph-name="Sacute" unicode="&#x15a;" horiz-adv-x="493"
d="M458 180q0 -86 -61 -138t-173 -52q-29 0 -78.5 4t-98.5 14l8 113q48 -10 93 -15t77 -5q60 0 84 22t24 56q0 17 -7 31t-21 28q-20 20 -47 36.5t-56 33t-57.5 34.5t-51.5 41t-39.5 55t-16.5 85q0 78 54.5 127t162.5 49q46 0 85.5 -4t81.5 -11l-7 -112q-48 10 -85 14.5
t-75 4.5q-47 0 -69 -18.5t-22 -50.5q0 -29 21 -50q16 -16 44 -34t59.5 -38t63 -41.5t54.5 -44.5q53 -53 53 -134zM299 745h-83l83 156h122z" />
    <glyph glyph-name="sacute" unicode="&#x15b;" horiz-adv-x="402"
d="M372 133q0 -36 -14.5 -63t-39 -44.5t-56 -26t-64.5 -8.5q-15 0 -35 1t-41 3.5t-40.5 5.5t-32.5 6l7 100q38 -8 76 -14t62 -6q34 0 48 10.5t14 28.5q0 11 -4 17.5t-10 12.5q-13 13 -34.5 24t-46 23t-48.5 25t-40 30q-17 17 -27.5 39.5t-10.5 56.5q0 37 16 62t41.5 41
t57 23t61.5 7q28 0 63 -3.5t68 -10.5l-8 -98q-33 7 -68 11t-60 4q-26 0 -39.5 -10t-13.5 -26q0 -10 3 -15.5t10 -12.5q10 -11 32 -22.5t47.5 -24.5t50 -27.5t39.5 -29.5t26 -37t11 -52zM236 550h-83l83 156h122z" />
    <glyph glyph-name="Scircumflex" unicode="&#x15c;" horiz-adv-x="493"
d="M458 180q0 -86 -61 -138t-173 -52q-29 0 -78.5 4t-98.5 14l8 113q48 -10 93 -15t77 -5q60 0 84 22t24 56q0 17 -7 31t-21 28q-20 20 -47 36.5t-56 33t-57.5 34.5t-51.5 41t-39.5 55t-16.5 85q0 78 54.5 127t162.5 49q46 0 85.5 -4t81.5 -11l-7 -112q-48 10 -85 14.5
t-75 4.5q-47 0 -69 -18.5t-22 -50.5q0 -29 21 -50q16 -16 44 -34t59.5 -38t63 -41.5t54.5 -44.5q53 -53 53 -134zM304 745l-56 70l-57 -70h-89l96 149h99l97 -149h-90z" />
    <glyph glyph-name="scircumflex" unicode="&#x15d;" horiz-adv-x="402"
d="M372 133q0 -36 -14.5 -63t-39 -44.5t-56 -26t-64.5 -8.5q-15 0 -35 1t-41 3.5t-40.5 5.5t-32.5 6l7 100q38 -8 76 -14t62 -6q34 0 48 10.5t14 28.5q0 11 -4 17.5t-10 12.5q-13 13 -34.5 24t-46 23t-48.5 25t-40 30q-17 17 -27.5 39.5t-10.5 56.5q0 37 16 62t41.5 41
t57 23t61.5 7q28 0 63 -3.5t68 -10.5l-8 -98q-33 7 -68 11t-60 4q-26 0 -39.5 -10t-13.5 -26q0 -10 3 -15.5t10 -12.5q10 -11 32 -22.5t47.5 -24.5t50 -27.5t39.5 -29.5t26 -37t11 -52zM259 550l-56 70l-57 -70h-89l96 149h99l97 -149h-90z" />
    <glyph glyph-name="Scedilla" unicode="&#x15e;" horiz-adv-x="493"
d="M257 -118q0 14 -19.5 20.5t-51.5 8.5l-8 23l27 56q-31 2 -73.5 6t-84.5 12l8 113q48 -10 93 -15t77 -5q60 0 84 22t24 56q0 17 -7 31t-21 28q-20 20 -47 36.5t-56 33t-57.5 34.5t-51.5 41t-39.5 55t-16.5 85q0 78 54.5 127t162.5 49q46 0 85.5 -4t81.5 -11l-7 -112
q-48 10 -85 14.5t-75 4.5q-47 0 -69 -18.5t-22 -50.5q0 -29 21 -50q16 -16 44 -34t59.5 -38t63 -41.5t54.5 -44.5q53 -53 53 -134q0 -75 -46.5 -125t-134.5 -61l-12 -32q27 -6 49 -25t22 -55q0 -39 -27 -62.5t-81 -23.5q-17 0 -38.5 2t-40.5 7l2 61q1 0 3.5 -0.5t4.5 -0.5
q9 -2 23.5 -4.5t29.5 -2.5q20 0 32.5 4t12.5 20z" />
    <glyph glyph-name="scedilla" unicode="&#x15f;" horiz-adv-x="402"
d="M212 -118q0 14 -19.5 20.5t-51.5 8.5l-8 23l28 58q-29 2 -60.5 6t-51.5 9l7 100q38 -8 76 -14t62 -6q34 0 48 10.5t14 28.5q0 11 -4 17.5t-10 12.5q-13 13 -34.5 24t-46 23t-48.5 25t-40 30q-17 17 -27.5 39.5t-10.5 56.5q0 37 16 62t41.5 41t57 23t61.5 7q28 0 63 -3.5
t68 -10.5l-8 -98q-33 7 -68 11t-60 4q-26 0 -39.5 -10t-13.5 -26q0 -10 3 -15.5t10 -12.5q10 -11 32 -22.5t47.5 -24.5t50 -27.5t39.5 -29.5t26 -37t11 -52q0 -32 -11.5 -56.5t-30.5 -41.5t-44.5 -27.5t-53.5 -14.5l-12 -31q27 -6 49 -25t22 -55q0 -39 -27 -62.5t-81 -23.5
q-17 0 -38.5 2t-40.5 7l2 61q1 0 3.5 -0.5t4.5 -0.5q9 -2 23.5 -4.5t29.5 -2.5q20 0 32.5 4t12.5 20z" />
    <glyph glyph-name="Scaron" unicode="&#x160;" horiz-adv-x="493"
d="M458 180q0 -86 -61 -138t-173 -52q-29 0 -78.5 4t-98.5 14l8 113q48 -10 93 -15t77 -5q60 0 84 22t24 56q0 17 -7 31t-21 28q-20 20 -47 36.5t-56 33t-57.5 34.5t-51.5 41t-39.5 55t-16.5 85q0 78 54.5 127t162.5 49q46 0 85.5 -4t81.5 -11l-7 -112q-48 10 -85 14.5
t-75 4.5q-47 0 -69 -18.5t-22 -50.5q0 -29 21 -50q16 -16 44 -34t59.5 -38t63 -41.5t54.5 -44.5q53 -53 53 -134zM190 894l56 -70l57 70h89l-96 -149h-99l-97 149h90z" />
    <glyph glyph-name="scaron" unicode="&#x161;" horiz-adv-x="402"
d="M372 133q0 -36 -14.5 -63t-39 -44.5t-56 -26t-64.5 -8.5q-15 0 -35 1t-41 3.5t-40.5 5.5t-32.5 6l7 100q38 -8 76 -14t62 -6q34 0 48 10.5t14 28.5q0 11 -4 17.5t-10 12.5q-13 13 -34.5 24t-46 23t-48.5 25t-40 30q-17 17 -27.5 39.5t-10.5 56.5q0 37 16 62t41.5 41
t57 23t61.5 7q28 0 63 -3.5t68 -10.5l-8 -98q-33 7 -68 11t-60 4q-26 0 -39.5 -10t-13.5 -26q0 -10 3 -15.5t10 -12.5q10 -11 32 -22.5t47.5 -24.5t50 -27.5t39.5 -29.5t26 -37t11 -52zM145 699l56 -70l57 70h89l-96 -149h-99l-97 149h90z" />
    <glyph glyph-name="Tcommaaccent" unicode="&#x21a;" horiz-adv-x="490"
d="M307 579v-579h-123v579h-168v110h458v-110h-167zM295 -54l-5 -64q-1 -16 -7 -33t-14 -33.5t-17 -30.5t-16 -24h-73q7 17 12.5 31.5t9 29t6 31t3.5 37.5v56h101z" />
    <glyph glyph-name="tcedilla" unicode="&#x163;" horiz-adv-x="370"
d="M210 379v-238q0 -23 5.5 -34.5t30.5 -11.5q9 0 22 1t26 2.5t25 3.5t21 4l4 -101q-31 -7 -64.5 -10t-64.5 -3q-64 0 -93.5 28.5t-29.5 81.5v277h-72v92l72 5v141h118v-138h131v-100h-131zM228 -122q0 9 -8 14t-19.5 7.5t-24.5 3.5t-23 1l12 58q65 0 103.5 -21t38.5 -65
q0 -35 -27 -57.5t-81 -22.5q-17 0 -38.5 2t-40.5 7l2 60q1 0 3.5 -0.5t4.5 -0.5q9 -2 23.5 -4.5t29.5 -2.5q20 0 32.5 4.5t12.5 16.5z" />
    <glyph glyph-name="Tcaron" unicode="&#x164;" horiz-adv-x="490"
d="M307 579v-579h-123v579h-168v110h458v-110h-167zM190 894l56 -70l57 70h89l-96 -149h-99l-97 149h90z" />
    <glyph glyph-name="tcaron" unicode="&#x165;" horiz-adv-x="380"
d="M210 379v-238q0 -23 5.5 -34.5t30.5 -11.5q9 0 22 1t26 2.5t25 3.5t21 4l4 -101q-31 -7 -64.5 -10t-64.5 -3q-64 0 -93.5 28.5t-29.5 81.5v277h-72v92l72 5v141h118v-138h131v-100h-131zM362 720l-5 -64q-1 -16 -7 -33t-14 -33.5t-17 -30.5t-16 -24h-73q7 17 12.5 31.5
t9 29t6 31t3.5 37.5v56h101z" />
    <glyph glyph-name="Tbar" unicode="&#x166;" horiz-adv-x="490"
d="M307 579v-178h138v-105h-138v-296h-123v296h-148v105h148v178h-168v110h458v-110h-167z" />
    <glyph glyph-name="tbar" unicode="&#x167;" horiz-adv-x="370"
d="M210 379v-70h113v-92h-113v-76q0 -23 5.5 -34.5t30.5 -11.5q9 0 22 1t26 2.5t25 3.5t21 4l4 -101q-31 -7 -64.5 -10t-64.5 -3q-64 0 -93.5 28.5t-29.5 81.5v115h-57v92h57v70h-72v92l72 5v141h118v-138h131v-100h-131z" />
    <glyph glyph-name="Utilde" unicode="&#x168;" horiz-adv-x="604"
d="M542 196q0 -63 -24.5 -103.5t-60.5 -63t-78 -31t-77 -8.5t-77 8.5t-78 31t-60.5 63t-24.5 103.5v493h123v-493q0 -50 33 -72t85 -22q51 0 83.5 22t32.5 72v493h123v-493zM368 851q28 0 71 49l35 -81q-21 -20 -48 -37t-56 -17q-20 0 -38.5 6.5t-35 14.5t-31.5 14.5
t-29 6.5q-18 0 -36.5 -15t-36.5 -35l-35 82q19 18 43.5 35.5t58.5 17.5q18 0 35 -6.5t34 -14t34 -14t35 -6.5z" />
    <glyph glyph-name="utilde" unicode="&#x169;" horiz-adv-x="500"
d="M55 479h118v-344q0 -23 11.5 -33t29.5 -10q29 0 59.5 9.5t48.5 21.5v356h118v-479h-96l-8 32q-30 -16 -65.5 -28t-81.5 -12q-26 0 -50 6.5t-42.5 22t-30 42t-11.5 67.5v349zM309 657q28 0 71 49l35 -81q-21 -20 -48 -37t-56 -17q-20 0 -38.5 6.5t-35 14.5t-31.5 14.5
t-29 6.5q-18 0 -36.5 -15t-36.5 -35l-35 82q19 18 43.5 35.5t58.5 17.5q18 0 35 -6.5t34 -14t34 -14t35 -6.5z" />
    <glyph glyph-name="Umacron" unicode="&#x16a;" horiz-adv-x="604"
d="M542 196q0 -63 -24.5 -103.5t-60.5 -63t-78 -31t-77 -8.5t-77 8.5t-78 31t-60.5 63t-24.5 103.5v493h123v-493q0 -50 33 -72t85 -22q51 0 83.5 22t32.5 72v493h123v-493zM462 778h-317v89h317v-89z" />
    <glyph glyph-name="umacron" unicode="&#x16b;" horiz-adv-x="500"
d="M55 479h118v-344q0 -23 11.5 -33t29.5 -10q29 0 59.5 9.5t48.5 21.5v356h118v-479h-96l-8 32q-30 -16 -65.5 -28t-81.5 -12q-26 0 -50 6.5t-42.5 22t-30 42t-11.5 67.5v349zM411 583h-317v89h317v-89z" />
    <glyph glyph-name="Ubreve" unicode="&#x16c;" horiz-adv-x="604"
d="M542 196q0 -63 -24.5 -103.5t-60.5 -63t-78 -31t-77 -8.5t-77 8.5t-78 31t-60.5 63t-24.5 103.5v493h123v-493q0 -50 33 -72t85 -22q51 0 83.5 22t32.5 72v493h123v-493zM457 889q-17 -76 -53.5 -110t-100.5 -34q-65 0 -101 34t-54 110h86q3 -12 7 -23.5t12 -20.5
t20.5 -14t30.5 -5q37 0 49 19t17 44h87z" />
    <glyph glyph-name="ubreve" unicode="&#x16d;" horiz-adv-x="500"
d="M55 479h118v-344q0 -23 11.5 -33t29.5 -10q29 0 59.5 9.5t48.5 21.5v356h118v-479h-96l-8 32q-30 -16 -65.5 -28t-81.5 -12q-26 0 -50 6.5t-42.5 22t-30 42t-11.5 67.5v349zM405 694q-17 -76 -53.5 -110t-100.5 -34q-65 0 -101 34t-54 110h86q3 -12 7 -23.5t12 -20.5
t20.5 -14t30.5 -5q37 0 49 19t17 44h87z" />
    <glyph glyph-name="Uring" unicode="&#x16e;" horiz-adv-x="604"
d="M542 196q0 -63 -24.5 -103.5t-60.5 -63t-78 -31t-77 -8.5t-77 8.5t-78 31t-60.5 63t-24.5 103.5v493h123v-493q0 -50 33 -72t85 -22q51 0 83.5 22t32.5 72v493h123v-493zM343 851q0 17 -11.5 28.5t-28.5 11.5t-28 -11.5t-11 -28.5t11 -28.5t28 -11.5t28.5 11.5t11.5 28.5
zM200 852q0 43 29.5 72.5t72.5 29.5q21 0 40 -8t33.5 -21.5t22.5 -32.5t8 -40t-8 -40t-22.5 -32.5t-33.5 -21.5t-40 -8q-43 0 -72.5 29.5t-29.5 72.5z" />
    <glyph glyph-name="uring" unicode="&#x16f;" horiz-adv-x="500"
d="M55 479h118v-344q0 -23 11.5 -33t29.5 -10q29 0 59.5 9.5t48.5 21.5v356h118v-479h-96l-8 32q-30 -16 -65.5 -28t-81.5 -12q-26 0 -50 6.5t-42.5 22t-30 42t-11.5 67.5v349zM287 657q0 17 -11.5 28.5t-28.5 11.5t-28 -11.5t-11 -28.5t11 -28.5t28 -11.5t28.5 11.5
t11.5 28.5zM144 658q0 43 29.5 72.5t72.5 29.5q21 0 40 -8t33.5 -21.5t22.5 -32.5t8 -40t-8 -40t-22.5 -32.5t-33.5 -21.5t-40 -8q-43 0 -72.5 29.5t-29.5 72.5z" />
    <glyph glyph-name="Uhungarumlaut" unicode="&#x170;" horiz-adv-x="604"
d="M542 196q0 -63 -24.5 -103.5t-60.5 -63t-78 -31t-77 -8.5t-77 8.5t-78 31t-60.5 63t-24.5 103.5v493h123v-493q0 -50 33 -72t85 -22q51 0 83.5 22t32.5 72v493h123v-493zM425 745h-83l84 156h121zM249 745h-83l84 156h121z" />
    <glyph glyph-name="uhungarumlaut" unicode="&#x171;" horiz-adv-x="500"
d="M55 479h118v-344q0 -23 11.5 -33t29.5 -10q29 0 59.5 9.5t48.5 21.5v356h118v-479h-96l-8 32q-30 -16 -65.5 -28t-81.5 -12q-26 0 -50 6.5t-42.5 22t-30 42t-11.5 67.5v349zM373 550h-83l84 156h121zM197 550h-83l84 156h121z" />
    <glyph glyph-name="Uogonek" unicode="&#x172;" horiz-adv-x="604"
d="M393 -184q-15 -8 -36 -14t-44 -6q-51 0 -81.5 21t-30.5 63q0 33 19 62t47 50q-34 3 -70.5 14t-66.5 34.5t-49 61.5t-19 94v493h123v-493q0 -50 33 -72t85 -22q51 0 83.5 22t32.5 72v493h123v-493q0 -51 -16 -87t-42 -59.5t-58.5 -36.5t-64.5 -18q-35 -29 -53 -51.5
t-18 -46.5q0 -10 7 -18.5t24 -8.5t34 5t34 13z" />
    <glyph glyph-name="uogonek" unicode="&#x173;" horiz-adv-x="500"
d="M465 -184q-15 -8 -36 -14t-44 -6q-51 0 -81.5 21t-30.5 63q0 35 21 67t50 53l-8 32q-30 -16 -65.5 -28t-81.5 -12q-26 0 -50 6.5t-42.5 22t-30 42t-11.5 67.5v349h118v-344q0 -23 11.5 -33t29.5 -10q29 0 59.5 9.5t48.5 21.5v356h118v-479q-38 -31 -58 -54.5t-20 -48.5
q0 -10 7 -18.5t24 -8.5t34 5t34 13z" />
    <glyph glyph-name="Wcircumflex" unicode="&#x174;" horiz-adv-x="856"
d="M17 689h121l85 -449q3 -15 5.5 -40.5t4.5 -49.5l5 -58l6 59q2 25 5.5 49.5t6.5 39.5l89 449h163l92 -449q3 -15 5.5 -40t4.5 -49l5 -58l2 30t3 29q3 25 6 49.5t6 39.5l85 448h122l-143 -689h-153l-99 489q-3 14 -6 36.5t-6 42.5q-2 13 -2.5 24t-1.5 24l-5 -48
q-3 -20 -5.5 -41t-5.5 -36l-98 -491h-153zM484 745l-56 70l-57 -70h-89l96 149h99l97 -149h-90z" />
    <glyph glyph-name="wcircumflex" unicode="&#x175;" horiz-adv-x="704"
d="M413 479l68 -297q2 -9 4 -23t4 -28.5t3.5 -27t1.5 -18.5q1 6 2.5 18.5t3 27t4 28.5t4.5 23l65 297h116l-122 -479h-136l-67 297q-2 5 -3.5 15t-3 21.5t-3 24t-2.5 22.5q-1 -10 -2.5 -22.5t-3 -24.5t-3.5 -21.5t-3 -14.5l-68 -297h-135l-122 479h116l65 -297q2 -9 4 -23
t4 -28.5t3.5 -27t2.5 -18.5q0 6 1.5 18.5t3.5 27t4 28.5t4 23l68 297h122zM408 550l-56 70l-57 -70h-89l96 149h99l97 -149h-90z" />
    <glyph glyph-name="Ycircumflex" unicode="&#x176;" horiz-adv-x="558"
d="M341 271v-271h-124v272l-207 417h137l135 -291l128 291h138zM336 745l-56 70l-57 -70h-89l96 149h99l97 -149h-90z" />
    <glyph glyph-name="ycircumflex" unicode="&#x177;" horiz-adv-x="476"
d="M18 479h124l85 -274q1 -5 4 -17t6 -26.5t5 -28.5t3 -22q1 8 3 21.5t4.5 28t5 26.5t4.5 18l76 274h120l-168 -544q-15 -47 -31 -80t-36 -53.5t-45 -30t-58 -9.5q-25 0 -54 2.5t-47 7.5l9 99q14 -3 32 -5t37 -2q16 0 27 3t20 12.5t17.5 26.5t17.5 44l10 40zM302 550l-56 70
l-57 -70h-89l96 149h99l97 -149h-90z" />
    <glyph glyph-name="Ydieresis" unicode="&#x178;" horiz-adv-x="558"
d="M341 271v-271h-124v272l-207 417h137l135 -291l128 291h138zM322 764v110h110v-110h-110zM131 764v110h109v-110h-109z" />
    <glyph glyph-name="Zacute" unicode="&#x179;" horiz-adv-x="510"
d="M32 0v78l289 501h-289v110h446v-73l-286 -506h286v-110h-446zM291 745h-83l83 156h122z" />
    <glyph glyph-name="zacute" unicode="&#x17a;" horiz-adv-x="418"
d="M383 0h-348v76l196 303h-185v100h337v-76l-196 -303h196v-100zM256 550h-83l83 156h122z" />
    <glyph glyph-name="Zdotaccent" unicode="&#x17b;" horiz-adv-x="510"
d="M32 0v78l289 501h-289v110h446v-73l-286 -506h286v-110h-446zM205 756v115h112v-115h-112z" />
    <glyph glyph-name="zdotaccent" unicode="&#x17c;" horiz-adv-x="418"
d="M383 0h-348v76l196 303h-185v100h337v-76l-196 -303h196v-100zM168 561v115h112v-115h-112z" />
    <glyph glyph-name="Zcaron" unicode="&#x17d;" horiz-adv-x="510"
d="M32 0v78l289 501h-289v110h446v-73l-286 -506h286v-110h-446zM207 894l56 -70l57 70h89l-96 -149h-99l-97 149h90z" />
    <glyph glyph-name="zcaron" unicode="&#x17e;" horiz-adv-x="418"
d="M383 0h-348v76l196 303h-185v100h337v-76l-196 -303h196v-100zM163 699l56 -70l57 70h89l-96 -149h-99l-97 149h90z" />
    <glyph glyph-name="Schwa" unicode="&#x18f;" horiz-adv-x="605"
d="M248 699q81 0 139.5 -20.5t95.5 -63.5t54.5 -109t17.5 -157q0 -90 -15 -157.5t-47 -112t-83.5 -67t-124.5 -22.5q-69 0 -115.5 22t-75.5 61t-41.5 93t-12.5 119v47t2 43h384q-1 59 -11.5 100t-33 66.5t-59.5 36.5t-90 11q-36 0 -80.5 -6t-81.5 -14l-5 110q22 5 47 9
t49 6.5t46.5 3.5t40.5 1zM289 94q70 0 100.5 45t33.5 132h-261q1 -36 5.5 -68.5t17.5 -56.5t38 -38t66 -14z" />
    <glyph glyph-name="florin" unicode="&#x192;" horiz-adv-x="544"
d="M88 403h87l18 145q9 70 57 110t129 40q41 0 70 -5.5t59 -15.5l-19 -107q-36 13 -60 15.5t-44 2.5q-36 0 -50.5 -21t-18.5 -52l-14 -112h138v-97h-150l-56 -445h-127l56 445h-75v97z" />
    <glyph glyph-name="Khook" unicode="&#x198;" horiz-adv-x="555"
d="M199 388q8 6 13.5 11t10.5 10q33 33 49.5 61.5t29.5 56t27.5 54t43.5 55.5q27 27 66.5 43.5t101.5 16.5h10v-115q-35 -1 -56.5 -11.5t-38.5 -27.5q-12 -12 -22 -30t-21 -39.5t-24 -45.5t-32 -49l219 -378h-149l-163 286q-16 -11 -32 -21.5t-33 -20.5v-244h-124v689h124
v-301z" />
    <glyph glyph-name="khook" unicode="&#x199;" horiz-adv-x="459"
d="M334 0l-111 220l-45 -49v-171h-118v574q0 69 36.5 105t115.5 36q32 0 64.5 -3.5t61.5 -9.5l-5 -102q-27 5 -55.5 8.5t-48.5 3.5q-35 0 -43 -13t-8 -47v-269q4 12 16 32.5t23 34.5l95 129h132l-144 -180l162 -299h-128z" />
    <glyph glyph-name="Yogh" unicode="&#x1b7;" horiz-adv-x="531"
d="M495 122q0 -65 -20.5 -115.5t-58.5 -85.5t-92.5 -53.5t-122.5 -18.5q-21 0 -46.5 1.5t-51 4t-48 6t-38.5 7.5l7 111q36 -7 79 -12t81 -5q35 0 68 6.5t59 24t41.5 48t15.5 78.5q0 41 -13 68.5t-37.5 44t-59.5 23.5t-78 7q-17 0 -33.5 -0.5t-33.5 -1.5l-8 87l204 233l-1 2
q-18 -1 -30 -1h-23h-226v108h438v-92l-192 -225v-2q103 -16 161.5 -80t58.5 -168z" />
    <glyph glyph-name="Acaron" unicode="&#x1cd;" horiz-adv-x="562"
d="M424 0l-35 134h-215l-35 -134h-129l195 689h152l195 -689h-128zM298 494q-2 9 -4 19t-4 22.5t-4 28.5t-5 39q-3 -23 -5 -39t-4 -28.5t-4 -22t-4 -19.5l-61 -250h156zM226 894l56 -70l57 70h89l-96 -149h-99l-97 149h90z" />
    <glyph glyph-name="acaron" unicode="&#x1ce;" horiz-adv-x="462"
d="M312 0l-12 30q-27 -14 -58.5 -26.5t-77.5 -12.5q-69 0 -102.5 40.5t-33.5 101.5q0 57 21.5 89.5t56.5 49t79 21t90 4.5h15v30q0 37 -20.5 51t-55.5 14q-33 0 -71.5 -8t-67.5 -17l-9 101q35 8 77 14t89 6q37 0 69 -7t55 -24t36.5 -44.5t13.5 -69.5v-343h-94zM277 217
q-68 0 -100 -15t-32 -58q0 -28 13 -44t41 -16q26 0 48 6.5t43 14.5v112h-13zM167 699l56 -70l57 70h89l-96 -149h-99l-97 149h90z" />
    <glyph glyph-name="Icaron" unicode="&#x1cf;" horiz-adv-x="275"
d="M75 0v689h124v-689h-124zM81 894l56 -70l57 70h89l-96 -149h-99l-97 149h90z" />
    <glyph glyph-name="icaron" unicode="&#x1d0;" horiz-adv-x="246"
d="M64 0v479h118v-479h-118zM66 699l56 -70l57 70h89l-96 -149h-99l-97 149h90z" />
    <glyph glyph-name="Ocaron" unicode="&#x1d1;" horiz-adv-x="639"
d="M589 344q0 -91 -12 -157.5t-43 -110t-83 -64.5t-131 -21q-80 0 -132 21t-83 64.5t-43 110t-12 157.5t12 158t43 110.5t83 64.5t132 21q79 0 131 -21.5t83 -65t43 -110t12 -157.5zM459 344q0 77 -7 124.5t-23 73.5t-43 35t-67 9t-67 -9t-43.5 -35t-23.5 -73.5t-7 -124.5
t7 -124t23.5 -72.5t43.5 -34.5t67 -9t67 9t43 34.5t23 72.5t7 124zM262 894l56 -70l57 70h89l-96 -149h-99l-97 149h90z" />
    <glyph glyph-name="ocaron" unicode="&#x1d2;" horiz-adv-x="512"
d="M200 699l56 -70l57 70h89l-96 -149h-99l-97 149h90zM472 239q0 -128 -51.5 -188t-164.5 -60q-112 0 -164 60.5t-52 188.5t51.5 187.5t164.5 59.5t164.5 -59.5t51.5 -188.5zM348 239q0 46 -5.5 74.5t-17 45t-29 22.5t-40.5 6t-40.5 -6t-29 -22t-17 -45t-5.5 -74
q0 -46 5.5 -74.5t17 -45t29 -22.5t40.5 -6q24 0 41 6t28.5 22t17 45t5.5 74z" />
    <glyph glyph-name="Ucaron" unicode="&#x1d3;" horiz-adv-x="604"
d="M542 196q0 -63 -24.5 -103.5t-60.5 -63t-78 -31t-77 -8.5t-77 8.5t-78 31t-60.5 63t-24.5 103.5v493h123v-493q0 -50 33 -72t85 -22q51 0 83.5 22t32.5 72v493h123v-493zM248 894l56 -70l57 70h89l-96 -149h-99l-97 149h90z" />
    <glyph glyph-name="ucaron" unicode="&#x1d4;" horiz-adv-x="500"
d="M55 479h118v-344q0 -23 11.5 -33t29.5 -10q29 0 59.5 9.5t48.5 21.5v356h118v-479h-96l-8 32q-30 -16 -65.5 -28t-81.5 -12q-26 0 -50 6.5t-42.5 22t-30 42t-11.5 67.5v349zM191 699l56 -70l57 70h89l-96 -149h-99l-97 149h90z" />
    <glyph glyph-name="Adieresismacron" unicode="&#x1de;" horiz-adv-x="562"
d="M424 0l-35 134h-215l-35 -134h-129l195 689h152l195 -689h-128zM298 494q-2 9 -4 19t-4 22.5t-4 28.5t-5 39q-3 -23 -5 -39t-4 -28.5t-4 -22t-4 -19.5l-61 -250h156zM127 869v80h311v-80h-311zM314 730v96h103v-96h-103zM145 730v96h104v-96h-104z" />
    <glyph glyph-name="adieresismacron" unicode="&#x1df;" horiz-adv-x="462"
d="M312 0l-12 30q-27 -14 -58.5 -26.5t-77.5 -12.5q-69 0 -102.5 40.5t-33.5 101.5q0 57 21.5 89.5t56.5 49t79 21t90 4.5h15v30q0 37 -20.5 51t-55.5 14q-33 0 -71.5 -8t-67.5 -17l-9 101q35 8 77 14t89 6q37 0 69 -7t55 -24t36.5 -44.5t13.5 -69.5v-343h-94zM277 217
q-68 0 -100 -15t-32 -58q0 -28 13 -44t41 -16q26 0 48 6.5t43 14.5v112h-13zM62 664v78h311v-78h-311zM249 525v96h103v-96h-103zM80 525v96h104v-96h-104z" />
    <glyph glyph-name="AEmacron" unicode="&#x1e2;" horiz-adv-x="888"
d="M434 0v134h-219l-69 -134h-137l370 689h454v-110h-276v-170h189v-110h-189v-189h276v-110h-399zM434 567q-9 -20 -19.5 -47t-27.5 -59l-113 -217h160v323zM646 778h-317v89h317v-89z" />
    <glyph glyph-name="aemacron" unicode="&#x1e3;" horiz-adv-x="706"
d="M340 45q-42 -32 -81.5 -43t-76.5 -11q-32 0 -60 8.5t-49 26.5t-33 45.5t-12 65.5q0 67 40 107q17 17 41.5 26.5t53 14.5t59.5 6.5t61 1.5v52q0 27 -19 34.5t-51 7.5q-26 0 -64.5 -4.5t-80.5 -13.5l-5 102q42 11 86.5 15t73.5 4q40 0 75 -7.5t60 -30.5h2q24 21 56 30t75 9
q52 0 86.5 -15.5t54.5 -43.5t28.5 -66t8.5 -84v-66h-264q0 -35 5.5 -58t19 -37.5t35.5 -20.5t54 -6q14 0 31 1.5t34 3.5t33.5 5t29.5 6l5 -101q-16 -5 -35.5 -8.5t-39 -5.5t-37.5 -3t-32 -1q-113 0 -166 54h-2zM557 302q0 18 -3 35t-10 30t-20.5 21t-34.5 8q-42 0 -59.5 -23
t-20.5 -71h148zM295 125q-11 36 -12 82h-13q-15 0 -31 -1t-30.5 -3.5t-26.5 -6.5t-19 -11t-11 -16t-4 -23q0 -30 16 -42.5t42 -12.5q24 0 48 9.5t41 24.5zM510 583h-317v89h317v-89z" />
    <glyph glyph-name="Gstroke" unicode="&#x1e4;" horiz-adv-x="657"
d="M321 384h230v-144h90v-99h-90v-119q-47 -12 -102 -21.5t-104 -9.5q-71 0 -124 16.5t-89 51.5q-45 45 -63.5 116.5t-18.5 174.5q0 92 16.5 158t52.5 108t92 62t134 20q24 0 44 -1t40.5 -2.5t42 -4.5t47.5 -6l-9 -115q-46 8 -85 12.5t-81 4.5q-41 0 -72 -9t-52 -34.5
t-31.5 -72t-10.5 -121.5q0 -87 12.5 -138t40.5 -76q20 -20 49 -26t64 -6q20 0 42 2t42 8v32h-127v91h127v44h-107v104z" />
    <glyph glyph-name="gstroke" unicode="&#x1e5;" horiz-adv-x="520"
d="M527 -106h-87q-11 -65 -55 -98.5t-135 -33.5q-55 0 -94.5 5t-75.5 13l7 102q47 -9 80 -14.5t74 -5.5q57 0 75 34h-114v88h125v65q-20 -12 -48 -21.5t-68 -9.5q-95 0 -133 56.5t-38 173.5q0 53 8.5 97t29 75.5t53.5 49t82 17.5q40 0 70.5 -11t55.5 -28l9 31h96v-493h83
v-92zM161 248q0 -45 4 -70.5t13 -38.5t22 -16.5t31 -3.5q28 0 52 9.5t43 20.5v207q-16 11 -40 20.5t-56 9.5q-18 0 -31.5 -6t-21.5 -21t-12 -42t-4 -69z" />
    <glyph glyph-name="Gcaron" unicode="&#x1e6;" horiz-adv-x="607"
d="M321 384h230v-362q-47 -12 -102 -21.5t-104 -9.5q-71 0 -124 16.5t-89 51.5q-45 45 -63.5 116.5t-18.5 174.5q0 92 16.5 158t52.5 108t92 62t134 20q24 0 44 -1t40.5 -2.5t42 -4.5t47.5 -6l-9 -115q-46 8 -85 12.5t-81 4.5q-41 0 -72 -9t-52 -34.5t-31.5 -72
t-10.5 -121.5q0 -87 13 -137.5t40 -76.5q20 -19 49 -25.5t64 -6.5q20 0 42 2t42 8v161h-107v110zM271 894l56 -70l57 70h89l-96 -149h-99l-97 149h90z" />
    <glyph glyph-name="gcaron" unicode="&#x1e7;" horiz-adv-x="509"
d="M161 234q0 -45 4 -72.5t13 -43.5t22 -21.5t31 -5.5q28 0 52 9.5t43 20.5v235q-16 11 -40 20.5t-56 9.5q-37 0 -53 -34t-16 -118zM327 21q-20 -12 -48 -21.5t-68 -9.5q-48 0 -80.5 16t-52.5 47.5t-29 76.5t-9 104q0 53 8.5 99t29 80.5t53.5 54t82 19.5q40 0 70.5 -11
t55.5 -28l9 31h96v-529q0 -46 -10 -81t-32.5 -59t-59.5 -36t-92 -12t-94.5 5t-75.5 13l7 102q47 -9 80 -14.5t74 -5.5q48 0 67 21.5t19 72.5v65zM199 699l56 -70l57 70h89l-96 -149h-99l-97 149h90z" />
    <glyph glyph-name="Kcaron" unicode="&#x1e8;" horiz-adv-x="555"
d="M417 0l-159 303l-59 -60v-243h-124v689h124v-313l214 313h129l-197 -285l215 -404h-143zM236 894l56 -70l57 70h89l-96 -149h-99l-97 149h90z" />
    <glyph glyph-name="kcaron" unicode="&#x1e9;" horiz-adv-x="459"
d="M334 0l-111 220l-45 -49v-171h-118v720h118v-437q4 12 16 32.5t23 34.5l95 129h132l-144 -180l162 -299h-128zM63 911l56 -70l57 70h89l-96 -149h-99l-97 149h90z" />
    <glyph glyph-name="Oogonek" unicode="&#x1ea;" horiz-adv-x="639"
d="M408 -184q-15 -8 -36 -14t-44 -6q-51 0 -81.5 21t-30.5 63q0 34 19.5 63t47.5 50q-69 4 -114 27.5t-71.5 66.5t-37 107t-10.5 150q0 91 12 158t43 110.5t83 64.5t132 21q79 0 131 -21.5t83 -65t43 -110t12 -157.5q0 -83 -10 -145t-34.5 -105.5t-65.5 -68t-104 -31.5
q-35 -29 -52.5 -51t-17.5 -46q0 -10 7 -18.5t24 -8.5t34 5t34 13zM459 344q0 77 -7 124.5t-23 73.5t-43 35t-67 9t-67 -9t-43.5 -35t-23.5 -73.5t-7 -124.5t7 -124t23.5 -72.5t43.5 -34.5t67 -9t67 9t43 34.5t23 72.5t7 124z" />
    <glyph glyph-name="oogonek" unicode="&#x1eb;" horiz-adv-x="512"
d="M472 239q0 -109 -37 -168t-116 -74q-36 -29 -54.5 -52.5t-18.5 -47.5q0 -10 7 -18.5t24 -8.5t34 5t34 13l4 -72q-15 -8 -36 -14t-44 -6q-51 0 -81.5 21t-30.5 63q0 34 19.5 63t47.5 50q-96 8 -140 68t-44 179q0 128 51.5 187.5t164.5 59.5t164.5 -59.5t51.5 -188.5z
M348 239q0 46 -5.5 74.5t-17 45t-29 22.5t-40.5 6t-40.5 -6t-29 -22t-17 -45t-5.5 -74q0 -46 5.5 -74.5t17 -45t29 -22.5t40.5 -6q24 0 41 6t28.5 22t17 45t5.5 74z" />
    <glyph glyph-name="Oogonekmacron" unicode="&#x1ec;" horiz-adv-x="639"
d="M408 -184q-15 -8 -36 -14t-44 -6q-51 0 -81.5 21t-30.5 63q0 34 19.5 63t47.5 50q-69 4 -114 27.5t-71.5 66.5t-37 107t-10.5 150q0 91 12 158t43 110.5t83 64.5t132 21q79 0 131 -21.5t83 -65t43 -110t12 -157.5q0 -83 -10 -145t-34.5 -105.5t-65.5 -68t-104 -31.5
q-35 -29 -52.5 -51t-17.5 -46q0 -10 7 -18.5t24 -8.5t34 5t34 13zM459 344q0 77 -7 124.5t-23 73.5t-43 35t-67 9t-67 -9t-43.5 -35t-23.5 -73.5t-7 -124.5t7 -124t23.5 -72.5t43.5 -34.5t67 -9t67 9t43 34.5t23 72.5t7 124zM478 778h-317v89h317v-89z" />
    <glyph glyph-name="oogonekmacron" unicode="&#x1ed;" horiz-adv-x="512"
d="M349 -184q-15 -8 -36 -14t-44 -6q-51 0 -81.5 21t-30.5 63q0 34 19.5 63t47.5 50q-96 8 -140 68t-44 179q0 128 51.5 187.5t164.5 59.5t164.5 -59.5t51.5 -188.5q0 -109 -37 -168t-116 -74q-36 -29 -54.5 -52.5t-18.5 -47.5q0 -10 7 -18.5t24 -8.5t34 5t34 13zM348 239
q0 46 -5.5 74.5t-17 45t-29 22.5t-40.5 6t-40.5 -6t-29 -22t-17 -45t-5.5 -74q0 -46 5.5 -74.5t17 -45t29 -22.5t40.5 -6q24 0 41 6t28.5 22t17 45t5.5 74zM415 583h-317v89h317v-89z" />
    <glyph glyph-name="jcaron" unicode="&#x1f0;" horiz-adv-x="248"
d="M183 -61q0 -51 -7.5 -85t-24.5 -54t-43.5 -28.5t-65.5 -8.5q-22 0 -47.5 2t-48.5 7l6 108q17 -4 35.5 -6.5t36.5 -2.5q28 0 34.5 17t6.5 47v544h118v-540zM66 726l56 -70l57 70h89l-96 -149h-99l-97 149h90z" />
    <glyph glyph-name="Gacute" unicode="&#x1f4;" horiz-adv-x="607"
d="M321 384h230v-362q-47 -12 -102 -21.5t-104 -9.5q-71 0 -124 16.5t-89 51.5q-45 45 -63.5 116.5t-18.5 174.5q0 92 16.5 158t52.5 108t92 62t134 20q24 0 44 -1t40.5 -2.5t42 -4.5t47.5 -6l-9 -115q-46 8 -85 12.5t-81 4.5q-41 0 -72 -9t-52 -34.5t-31.5 -72
t-10.5 -121.5q0 -87 13 -137.5t40 -76.5q20 -19 49 -25.5t64 -6.5q20 0 42 2t42 8v161h-107v110zM367 745h-83l83 156h122z" />
    <glyph glyph-name="gacute" unicode="&#x1f5;" horiz-adv-x="509"
d="M298 550h-83l83 156h122zM161 234q0 -45 4 -72.5t13 -43.5t22 -21.5t31 -5.5q28 0 52 9.5t43 20.5v235q-16 11 -40 20.5t-56 9.5q-37 0 -53 -34t-16 -118zM327 21q-20 -12 -48 -21.5t-68 -9.5q-48 0 -80.5 16t-52.5 47.5t-29 76.5t-9 104q0 53 8.5 99t29 80.5t53.5 54
t82 19.5q40 0 70.5 -11t55.5 -28l9 31h96v-529q0 -46 -10 -81t-32.5 -59t-59.5 -36t-92 -12t-94.5 5t-75.5 13l7 102q47 -9 80 -14.5t74 -5.5q48 0 67 21.5t19 72.5v65z" />
    <glyph glyph-name="Aringacute" unicode="&#x1fa;" horiz-adv-x="562"
d="M186 745q0 19 7.5 36.5t20 30t30 20t37.5 7.5t37.5 -7.5t30.5 -20t20.5 -30t7.5 -36.5q0 -17 -5.5 -31.5t-14.5 -25.5l195 -688h-128l-35 134h-215l-35 -134h-129l195 689q-19 24 -19 56zM298 494q-2 9 -4 19t-4 22.5t-4 28.5t-5 39q-3 -23 -5 -39t-4 -28.5t-4 -22
t-4 -19.5l-61 -250h156zM312 855h-68l70 142h101zM320 745q0 16 -11.5 27.5t-27.5 11.5t-27 -11.5t-11 -27.5q0 -17 11 -28.5t27 -11.5t27.5 11.5t11.5 28.5z" />
    <glyph glyph-name="aringacute" unicode="&#x1fb;" horiz-adv-x="462"
d="M312 0l-12 30q-27 -14 -58.5 -26.5t-77.5 -12.5q-69 0 -102.5 40.5t-33.5 101.5q0 57 21.5 89.5t56.5 49t79 21t90 4.5h15v30q0 37 -20.5 51t-55.5 14q-33 0 -71.5 -8t-67.5 -17l-9 101q35 8 77 14t89 6q37 0 69 -7t55 -24t36.5 -44.5t13.5 -69.5v-343h-94zM277 217
q-68 0 -100 -15t-32 -58q0 -28 13 -44t41 -16q26 0 48 6.5t43 14.5v112h-13zM256 731h-68l70 142h101zM263 608q0 16 -10.5 27t-27.5 11q-16 0 -26.5 -11t-10.5 -27t10.5 -27.5t26.5 -11.5q17 0 27.5 11.5t10.5 27.5zM128 609q0 41 27.5 69t68.5 28t69.5 -28t28.5 -69
q0 -42 -28.5 -70t-69.5 -28t-68.5 28t-27.5 70z" />
    <glyph glyph-name="AEacute" unicode="&#x1fc;" horiz-adv-x="888"
d="M434 0v134h-219l-69 -134h-137l370 689h454v-110h-276v-170h189v-110h-189v-189h276v-110h-399zM434 567q-9 -20 -19.5 -47t-27.5 -59l-113 -217h160v323zM563 745h-83l83 156h122z" />
    <glyph glyph-name="aeacute" unicode="&#x1fd;" horiz-adv-x="706"
d="M340 45q-42 -32 -81.5 -43t-76.5 -11q-32 0 -60 8.5t-49 26.5t-33 45.5t-12 65.5q0 67 40 107q17 17 41.5 26.5t53 14.5t59.5 6.5t61 1.5v52q0 27 -19 34.5t-51 7.5q-26 0 -64.5 -4.5t-80.5 -13.5l-5 102q42 11 86.5 15t73.5 4q40 0 75 -7.5t60 -30.5h2q24 21 56 30t75 9
q52 0 86.5 -15.5t54.5 -43.5t28.5 -66t8.5 -84v-66h-264q0 -35 5.5 -58t19 -37.5t35.5 -20.5t54 -6q14 0 31 1.5t34 3.5t33.5 5t29.5 6l5 -101q-16 -5 -35.5 -8.5t-39 -5.5t-37.5 -3t-32 -1q-113 0 -166 54h-2zM557 302q0 18 -3 35t-10 30t-20.5 21t-34.5 8q-42 0 -59.5 -23
t-20.5 -71h148zM295 125q-11 36 -12 82h-13q-15 0 -31 -1t-30.5 -3.5t-26.5 -6.5t-19 -11t-11 -16t-4 -23q0 -30 16 -42.5t42 -12.5q24 0 48 9.5t41 24.5zM396 550h-83l83 156h122z" />
    <glyph glyph-name="Oslashacute" unicode="&#x1fe;" horiz-adv-x="639"
d="M532 614q32 -44 44.5 -111t12.5 -159q0 -91 -12 -157.5t-43 -110t-83 -64.5t-131 -21q-80 0 -134 21l-33 -58h-108l66 114q-35 44 -48 112t-13 164q0 91 12 158t43 110.5t83 64.5t132 21q83 0 139 -25l28 48h107zM178 344q0 -93 10 -142l212 368q-15 9 -35 12.5t-46 3.5
q-40 0 -67 -9t-43.5 -35t-23.5 -73.5t-7 -124.5zM459 344q0 41 -1.5 72.5t-6.5 56.5l-206 -358q15 -6 33 -8.5t41 -2.5q40 0 67 9t43 34.5t23 72.5t7 124zM364 745h-83l83 156h122z" />
    <glyph glyph-name="oslashacute" unicode="&#x1ff;" horiz-adv-x="512"
d="M411 436q32 -30 46.5 -79t14.5 -118q0 -128 -51.5 -188t-164.5 -60q-52 0 -89 12l-28 -49h-89l51 88q-61 60 -61 198q0 128 51.5 187.5t164.5 59.5q27 0 50 -3.5t43 -10.5l30 53h83zM305 550h-83l83 156h122zM164 240q0 -48 6 -78l126 219q-18 6 -40 6q-23 0 -40.5 -6
t-29 -22t-17 -45t-5.5 -74zM348 239q0 45 -6 75l-123 -218q15 -4 37 -4q24 0 41 6t28.5 22t17 45t5.5 74z" />
    <glyph glyph-name="Ainvertedbreve" unicode="&#x202;" horiz-adv-x="562"
d="M424 0l-35 134h-215l-35 -134h-129l195 689h152l195 -689h-128zM298 494q-2 9 -4 19t-4 22.5t-4 28.5t-5 39q-3 -23 -5 -39t-4 -28.5t-4 -22t-4 -19.5l-61 -250h156zM128 745q17 76 53.5 110t100.5 34q65 0 101 -34t54 -110h-86q-3 12 -7 23.5t-12 20.5t-20.5 14t-30.5 5
q-19 0 -30.5 -5t-18.5 -14t-10.5 -20.5t-6.5 -23.5h-87z" />
    <glyph glyph-name="ainvertedbreve" unicode="&#x203;" horiz-adv-x="462"
d="M312 0l-12 30q-27 -14 -58.5 -26.5t-77.5 -12.5q-69 0 -102.5 40.5t-33.5 101.5q0 57 21.5 89.5t56.5 49t79 21t90 4.5h15v30q0 37 -20.5 51t-55.5 14q-33 0 -71.5 -8t-67.5 -17l-9 101q35 8 77 14t89 6q37 0 69 -7t55 -24t36.5 -44.5t13.5 -69.5v-343h-94zM277 217
q-68 0 -100 -15t-32 -58q0 -28 13 -44t41 -16q26 0 48 6.5t43 14.5v112h-13zM72 550q17 76 53.5 110t100.5 34q65 0 101 -34t54 -110h-86q-3 12 -7 23.5t-12 20.5t-20.5 14t-30.5 5q-19 0 -30.5 -5t-18.5 -14t-10.5 -20.5t-6.5 -23.5h-87z" />
    <glyph glyph-name="Einvertedbreve" unicode="&#x206;" horiz-adv-x="516"
d="M75 0v689h400v-110h-276v-170h189v-110h-189v-189h276v-110h-400zM126 745q17 76 53.5 110t100.5 34q65 0 101 -34t54 -110h-86q-3 12 -7 23.5t-12 20.5t-20.5 14t-30.5 5q-19 0 -30.5 -5t-18.5 -14t-10.5 -20.5t-6.5 -23.5h-87z" />
    <glyph glyph-name="einvertedbreve" unicode="&#x207;" horiz-adv-x="460"
d="M423 212h-262q0 -69 26 -95t70 -26q21 0 38 1.5t33 4t33.5 6.5t40.5 9l6 -103q-42 -9 -77.5 -13.5t-74.5 -4.5q-112 0 -164 59t-52 187q0 127 47 188.5t157 61.5q55 0 90 -15.5t55 -43.5t27 -66t7 -84v-66zM309 295q0 18 -2 36t-8.5 32.5t-19.5 23t-36 8.5q-42 0 -58 -25
t-20 -75h144zM90 550q17 76 53.5 110t100.5 34q65 0 101 -34t54 -110h-86q-3 12 -7 23.5t-12 20.5t-20.5 14t-30.5 5q-19 0 -30.5 -5t-18.5 -14t-10.5 -20.5t-6.5 -23.5h-87z" />
    <glyph glyph-name="Iinvertedbreve" unicode="&#x20a;" horiz-adv-x="275"
d="M75 0v689h124v-689h-124zM-17 745q17 76 53.5 110t100.5 34q65 0 101 -34t54 -110h-86q-3 12 -7 23.5t-12 20.5t-20.5 14t-30.5 5q-19 0 -30.5 -5t-18.5 -14t-10.5 -20.5t-6.5 -23.5h-87z" />
    <glyph glyph-name="iinvertedbreve" unicode="&#x20b;" horiz-adv-x="246"
d="M64 0v479h118v-479h-118zM-32 550q17 76 53.5 110t100.5 34q65 0 101 -34t54 -110h-86q-3 12 -7 23.5t-12 20.5t-20.5 14t-30.5 5q-19 0 -30.5 -5t-18.5 -14t-10.5 -20.5t-6.5 -23.5h-87z" />
    <glyph glyph-name="Oinvertedbreve" unicode="&#x20e;" horiz-adv-x="639"
d="M589 344q0 -91 -12 -157.5t-43 -110t-83 -64.5t-131 -21q-80 0 -132 21t-83 64.5t-43 110t-12 157.5t12 158t43 110.5t83 64.5t132 21q79 0 131 -21.5t83 -65t43 -110t12 -157.5zM459 344q0 77 -7 124.5t-23 73.5t-43 35t-67 9t-67 -9t-43.5 -35t-23.5 -73.5t-7 -124.5
t7 -124t23.5 -72.5t43.5 -34.5t67 -9t67 9t43 34.5t23 72.5t7 124zM164 745q17 76 53.5 110t100.5 34q65 0 101 -34t54 -110h-86q-3 12 -7 23.5t-12 20.5t-20.5 14t-30.5 5q-19 0 -30.5 -5t-18.5 -14t-10.5 -20.5t-6.5 -23.5h-87z" />
    <glyph glyph-name="oinvertedbreve" unicode="&#x20f;" horiz-adv-x="512"
d="M472 239q0 -128 -51.5 -188t-164.5 -60q-112 0 -164 60.5t-52 188.5t51.5 187.5t164.5 59.5t164.5 -59.5t51.5 -188.5zM348 239q0 46 -5.5 74.5t-17 45t-29 22.5t-40.5 6t-40.5 -6t-29 -22t-17 -45t-5.5 -74q0 -46 5.5 -74.5t17 -45t29 -22.5t40.5 -6q24 0 41 6t28.5 22
t17 45t5.5 74zM101 550q17 76 53.5 110t100.5 34q65 0 101 -34t54 -110h-86q-3 12 -7 23.5t-12 20.5t-20.5 14t-30.5 5q-19 0 -30.5 -5t-18.5 -14t-10.5 -20.5t-6.5 -23.5h-87z" />
    <glyph glyph-name="Rinvertedbreve" unicode="&#x212;" horiz-adv-x="551"
d="M387 0l-109 271h-80v-271h-123v689h250q54 0 91 -16t59 -43.5t31.5 -64.5t9.5 -79q0 -87 -29 -137t-85 -67l120 -282h-135zM386 483q0 48 -14.5 72t-59.5 24h-114v-198h115q46 0 59.5 26.5t13.5 75.5zM114 745q17 76 53.5 110t100.5 34q65 0 101 -34t54 -110h-86
q-3 12 -7 23.5t-12 20.5t-20.5 14t-30.5 5q-19 0 -30.5 -5t-18.5 -14t-10.5 -20.5t-6.5 -23.5h-87z" />
    <glyph glyph-name="rinvertedbreve" unicode="&#x213;" horiz-adv-x="349"
d="M268 487q18 0 35 -2.5t31 -5.5l-5 -113q-39 12 -72 12q-25 0 -45 -10t-34 -23v-345h-118v479h96l11 -48q17 24 41.5 40t59.5 16zM32 550q17 76 53.5 110t100.5 34q65 0 101 -34t54 -110h-86q-3 12 -7 23.5t-12 20.5t-20.5 14t-30.5 5q-19 0 -30.5 -5t-18.5 -14
t-10.5 -20.5t-6.5 -23.5h-87z" />
    <glyph glyph-name="Uinvertedbreve" unicode="&#x216;" horiz-adv-x="604"
d="M542 196q0 -63 -24.5 -103.5t-60.5 -63t-78 -31t-77 -8.5t-77 8.5t-78 31t-60.5 63t-24.5 103.5v493h123v-493q0 -50 33 -72t85 -22q51 0 83.5 22t32.5 72v493h123v-493zM150 745q17 76 53.5 110t100.5 34q65 0 101 -34t54 -110h-86q-3 12 -7 23.5t-12 20.5t-20.5 14
t-30.5 5q-19 0 -30.5 -5t-18.5 -14t-10.5 -20.5t-6.5 -23.5h-87z" />
    <glyph glyph-name="uinvertedbreve" unicode="&#x217;" horiz-adv-x="500"
d="M55 479h118v-344q0 -23 11.5 -33t29.5 -10q29 0 59.5 9.5t48.5 21.5v356h118v-479h-96l-8 32q-30 -16 -65.5 -28t-81.5 -12q-26 0 -50 6.5t-42.5 22t-30 42t-11.5 67.5v349zM96 550q17 76 53.5 110t100.5 34q65 0 101 -34t54 -110h-86q-3 12 -7 23.5t-12 20.5t-20.5 14
t-30.5 5q-19 0 -30.5 -5t-18.5 -14t-10.5 -20.5t-6.5 -23.5h-87z" />
    <glyph glyph-name="Scommaaccent" unicode="&#x218;" horiz-adv-x="493"
d="M458 180q0 -86 -61 -138t-173 -52q-29 0 -78.5 4t-98.5 14l8 113q48 -10 93 -15t77 -5q60 0 84 22t24 56q0 17 -7 31t-21 28q-20 20 -47 36.5t-56 33t-57.5 34.5t-51.5 41t-39.5 55t-16.5 85q0 78 54.5 127t162.5 49q46 0 85.5 -4t81.5 -11l-7 -112q-48 10 -85 14.5
t-75 4.5q-47 0 -69 -18.5t-22 -50.5q0 -29 21 -50q16 -16 44 -34t59.5 -38t63 -41.5t54.5 -44.5q53 -53 53 -134zM287 -54l-5 -64q-1 -16 -7 -33t-14 -33.5t-17 -30.5t-16 -24h-73q7 17 12.5 31.5t9 29t6 31t3.5 37.5v56h101z" />
    <glyph glyph-name="scommaaccent" unicode="&#x219;" horiz-adv-x="402"
d="M372 133q0 -36 -14.5 -63t-39 -44.5t-56 -26t-64.5 -8.5q-15 0 -35 1t-41 3.5t-40.5 5.5t-32.5 6l7 100q38 -8 76 -14t62 -6q34 0 48 10.5t14 28.5q0 11 -4 17.5t-10 12.5q-13 13 -34.5 24t-46 23t-48.5 25t-40 30q-17 17 -27.5 39.5t-10.5 56.5q0 37 16 62t41.5 41
t57 23t61.5 7q28 0 63 -3.5t68 -10.5l-8 -98q-33 7 -68 11t-60 4q-26 0 -39.5 -10t-13.5 -26q0 -10 3 -15.5t10 -12.5q10 -11 32 -22.5t47.5 -24.5t50 -27.5t39.5 -29.5t26 -37t11 -52zM239 -54l-5 -64q-1 -16 -7 -33t-14 -33.5t-17 -30.5t-16 -24h-73q7 17 12.5 31.5t9 29
t6 31t3.5 37.5v56h101z" />
    <glyph glyph-name="dotlessj" unicode="&#x237;" horiz-adv-x="248"
d="M183 -61q0 -51 -7.5 -85t-24.5 -54t-43.5 -28.5t-65.5 -8.5q-22 0 -47.5 2t-48.5 7l6 108q17 -4 35.5 -6.5t36.5 -2.5q28 0 34.5 17t6.5 47v544h118v-540z" />
    <glyph glyph-name="schwa" unicode="&#x259;" horiz-adv-x="460"
d="M37 266h262q0 69 -26 95t-70 26q-21 0 -38 -1.5t-33 -4t-34 -6.5t-40 -9l-6 103q42 9 77.5 13.5t74.5 4.5q112 0 164 -59t52 -187q0 -127 -47 -188.5t-157 -61.5q-56 0 -90.5 15.5t-54.5 43t-27 66t-7 84.5v66zM151 183q0 -18 2 -36t8.5 -32.5t19.5 -23t36 -8.5
q42 0 58 25t20 75h-144z" />
    <glyph glyph-name="yogh" unicode="&#x292;" horiz-adv-x="456"
d="M416 6q0 -115 -63 -168.5t-181 -53.5q-15 0 -34 0.5t-39.5 2t-40.5 4t-36 5.5l5 101q14 -2 32.5 -4t37 -3.5t36 -2.5t29.5 -1q60 0 96.5 24t36.5 89q0 60 -35 86t-107 26h-18.5t-33.5 -1l-7 75l142 189l-1 2q-7 -1 -15 -1h-32h-149v104h347v-86l-140 -194q76 -8 123 -58
t47 -135z" />
    <glyph glyph-name="uni02BE" unicode="&#x2be;" horiz-adv-x="338"
d="M92 465q29 0 45.5 17t16.5 42q0 24 -16.5 41.5t-45.5 17.5v92q34 0 63 -12t49.5 -32t32 -48t11.5 -59q0 -32 -11.5 -59.5t-32 -48t-49.5 -32.5t-63 -12v93z" />
    <glyph glyph-name="uni02BF" unicode="&#x2bf;" horiz-adv-x="338"
d="M246 372q-35 0 -63.5 12t-49 32.5t-32 48t-11.5 59.5q0 31 11.5 59t32 48t49 32t63.5 12v-92q-29 0 -45.5 -17.5t-16.5 -41.5q0 -25 16.5 -42t45.5 -17v-93z" />
    <glyph glyph-name="circumflex" unicode="&#x2c6;"
d="M322 550l-56 70l-57 -70h-89l96 149h99l97 -149h-90z" />
    <glyph glyph-name="caron" unicode="&#x2c7;"
d="M205 699l56 -70l57 70h89l-96 -149h-99l-97 149h90z" />
    <glyph glyph-name="breve" unicode="&#x2d8;"
d="M417 694q-17 -76 -53.5 -110t-100.5 -34q-65 0 -101 34t-54 110h86q3 -12 7 -23.5t12 -20.5t20.5 -14t30.5 -5q37 0 49 19t17 44h87z" />
    <glyph glyph-name="dotaccent" unicode="&#x2d9;"
d="M208 561v115h112v-115h-112z" />
    <glyph glyph-name="ring" unicode="&#x2da;"
d="M303 657q0 17 -11.5 28.5t-28.5 11.5t-28 -11.5t-11 -28.5t11 -28.5t28 -11.5t28.5 11.5t11.5 28.5zM160 658q0 43 29.5 72.5t72.5 29.5q21 0 40 -8t33.5 -21.5t22.5 -32.5t8 -40t-8 -40t-22.5 -32.5t-33.5 -21.5t-40 -8q-43 0 -72.5 29.5t-29.5 72.5z" />
    <glyph glyph-name="ogonek" unicode="&#x2db;"
d="M363 -184q-15 -8 -36 -14t-44 -6q-51 0 -81.5 21t-30.5 63q0 37 23.5 68.5t55.5 51.5h88q-38 -31 -58 -54.5t-20 -48.5q0 -10 7 -18.5t24 -8.5t34 5t34 13z" />
    <glyph glyph-name="tilde" unicode="&#x2dc;"
d="M330 657q28 0 71 49l35 -81q-21 -20 -48 -37t-56 -17q-20 0 -38.5 6.5t-35 14.5t-31.5 14.5t-29 6.5q-18 0 -36.5 -15t-36.5 -35l-35 82q19 18 43.5 35.5t58.5 17.5q18 0 35 -6.5t34 -14t34 -14t35 -6.5z" />
    <glyph glyph-name="hungarumlaut" unicode="&#x2dd;"
d="M342 550h-83l84 156h121zM166 550h-83l84 156h121z" />
    <glyph glyph-name="commaabovecmb" unicode="&#x313;"
d="M196 524l5 64q1 16 7 33t14 33.5t17 30.5t16 24h73q-7 -17 -12.5 -31.5t-9 -29t-6 -31t-3.5 -37.5v-56h-101z" />
    <glyph glyph-name="uni0323" unicode="&#x323;"
d="M208 -185v115h112v-115h-112z" />
    <glyph glyph-name="uni0329" unicode="&#x329;"
d="M213 -230v164h103v-164h-103z" />
    <glyph glyph-name="tonos" unicode="&#x384;" horiz-adv-x="518"
d="M286 529h-79l44 160h118z" />
    <glyph glyph-name="dieresistonos" unicode="&#x385;"
d="M321 556v110h100v-110h-100zM28 556v110h99v-110h-99zM228 527h-67l38 162h101z" />
    <glyph glyph-name="Alphatonos" unicode="&#x386;" horiz-adv-x="582"
d="M434 0l-35 134h-215l-35 -134h-129l195 689h152l195 -689h-128zM308 494q-2 9 -4 19t-4 22.5t-4 28.5t-5 39q-3 -23 -5 -39t-4 -28.5t-4 -22t-4 -19.5l-61 -250h156zM68 529h-79l44 160h118z" />
    <glyph glyph-name="anoteleia" unicode="&#x387;" horiz-adv-x="296"
d="M80 275v136h136v-136h-136z" />
    <glyph glyph-name="Epsilontonos" unicode="&#x388;" horiz-adv-x="516"
d="M75 0v689h400v-110h-276v-170h189v-110h-189v-189h276v-110h-400zM-50 529h-79l44 160h118z" />
    <glyph glyph-name="Etatonos" unicode="&#x389;" horiz-adv-x="643"
d="M-50 529h-79l44 160h118zM444 0v299h-245v-299h-124v689h124v-280h245v280h123v-689h-123z" />
    <glyph glyph-name="Iotatonos" unicode="&#x38a;" horiz-adv-x="275"
d="M75 0v689h124v-689h-124zM-50 529h-79l44 160h118z" />
    <glyph glyph-name="Omicrontonos" unicode="&#x38c;" horiz-adv-x="639"
d="M589 344q0 -91 -12 -157.5t-43 -110t-83 -64.5t-131 -21q-80 0 -132 21t-83 64.5t-43 110t-12 157.5t12 158t43 110.5t83 64.5t132 21q79 0 131 -21.5t83 -65t43 -110t12 -157.5zM459 344q0 77 -7 124.5t-23 73.5t-43 35t-67 9t-67 -9t-43.5 -35t-23.5 -73.5t-7 -124.5
t7 -124t23.5 -72.5t43.5 -34.5t67 -9t67 9t43 34.5t23 72.5t7 124zM-7 529h-79l44 160h118z" />
    <glyph glyph-name="Upsilontonos" unicode="&#x38e;" horiz-adv-x="563"
d="M346 271v-271h-124v272l-207 417h137l135 -291l128 291h138zM-86 529h-79l44 160h118z" />
    <glyph glyph-name="Omegatonos" unicode="&#x38f;" horiz-adv-x="662"
d="M330 699q76 0 129.5 -23.5t87 -63t48.5 -92.5t15 -113q0 -52 -9.5 -96t-25.5 -81.5t-36 -67.5t-41 -54v-2l93 2v-108h-232v104q21 25 43 53t39 62.5t28 79t11 102.5q0 36 -7 70.5t-24 61.5t-45.5 43t-72.5 16t-72.5 -16t-45.5 -43t-24 -61.5t-7 -70.5q0 -58 10.5 -102.5
t28 -79t39 -62.5t43.5 -53v-104h-232v108l97 -2v2q-21 24 -42 54t-37.5 67.5t-26.5 81.5t-10 96q0 60 15 113t48 92.5t86 63t129 23.5zM-10 529h-79l44 160h118z" />
    <glyph glyph-name="iotadieresistonos" unicode="&#x390;" horiz-adv-x="291"
d="M60 479h118v-336q0 -29 9 -39.5t30 -10.5q8 0 24 2t30 5l5 -99q-22 -5 -46.5 -7.5t-42.5 -2.5q-69 0 -98 31t-29 110v347zM246 556v110h100v-110h-100zM-47 556v110h99v-110h-99zM153 527h-67l38 162h101z" />
    <glyph glyph-name="Alpha" unicode="&#x391;" horiz-adv-x="562"
d="M424 0l-35 134h-215l-35 -134h-129l195 689h152l195 -689h-128zM298 494q-2 9 -4 19t-4 22.5t-4 28.5t-5 39q-3 -23 -5 -39t-4 -28.5t-4 -22t-4 -19.5l-61 -250h156z" />
    <glyph glyph-name="Beta" unicode="&#x392;" horiz-adv-x="563"
d="M518 197q0 -49 -12.5 -89t-40.5 -68q-23 -22 -56 -31t-82 -9h-252v689h260q87 0 126 -41q26 -26 35.5 -62.5t9.5 -76.5q0 -48 -18 -87.5t-56 -61.5v-2q19 -6 35 -21.5t27.5 -37.5t17.5 -48t6 -54zM381 497q0 45 -16 65t-48 21h-118v-176h108q46 -1 60 21.5t14 68.5z
M391 197q0 22 -2.5 41t-10 32t-21.5 20.5t-37 7.5h-121v-190h121q38 0 54.5 20.5t16.5 68.5z" />
    <glyph glyph-name="Gamma" unicode="&#x393;" horiz-adv-x="482"
d="M466 689v-110h-267v-579h-124v689h391z" />
    <glyph glyph-name="Epsilon" unicode="&#x395;" horiz-adv-x="516"
d="M75 0v689h400v-110h-276v-170h189v-110h-189v-189h276v-110h-400z" />
    <glyph glyph-name="Zeta" unicode="&#x396;" horiz-adv-x="510"
d="M32 0v78l289 501h-289v110h446v-73l-286 -506h286v-110h-446z" />
    <glyph glyph-name="Eta" unicode="&#x397;" horiz-adv-x="643"
d="M425 0v299h-245v-299h-124v689h124v-280h245v280h123v-689h-123z" />
    <glyph glyph-name="Theta" unicode="&#x398;" horiz-adv-x="639"
d="M228 406h181v-104h-181v104zM589 344q0 -91 -12 -157.5t-43 -110t-83 -64.5t-131 -21q-80 0 -132 21t-83 64.5t-43 110t-12 157.5t12 158t43 110.5t83 64.5t132 21q79 0 131 -21.5t83 -65t43 -110t12 -157.5zM459 344q0 77 -7 124.5t-23 73.5t-43 35t-67 9t-67 -9
t-43.5 -35t-23.5 -73.5t-7 -124.5t7 -124t23.5 -72.5t43.5 -34.5t67 -9t67 9t43 34.5t23 72.5t7 124z" />
    <glyph glyph-name="Iota" unicode="&#x399;" horiz-adv-x="275"
d="M75 0v689h124v-689h-124z" />
    <glyph glyph-name="Kappa" unicode="&#x39a;" horiz-adv-x="555"
d="M417 0l-159 303l-59 -60v-243h-124v689h124v-313l214 313h129l-197 -285l215 -404h-143z" />
    <glyph glyph-name="Lambda" unicode="&#x39b;" horiz-adv-x="569"
d="M212 689h149l199 -689h-131l-127 486q-5 16 -10.5 43t-7.5 47q-2 -21 -6.5 -48.5t-9.5 -41.5l-128 -486h-129z" />
    <glyph glyph-name="Mu" unicode="&#x39c;" horiz-adv-x="855"
d="M659 0v484l6 125q-5 -31 -13 -62t-17 -63l-139 -484h-140l-140 487q-4 14 -10.5 41t-18.5 81l6 -125v-484h-118v689h188l143 -495q6 -22 11.5 -50t7.5 -57q3 29 8 57t11 50l141 495h195v-689h-121z" />
    <glyph glyph-name="Nu" unicode="&#x39d;" horiz-adv-x="676"
d="M446 235q8 -17 15 -40t15 -44l15 -49l-4 51q-2 20 -3 41.5t-1 35.5v459h118v-689h-168l-206 464q-7 16 -14 36.5t-14 40.5l-14 46l4 -49q2 -20 3 -41t1 -34v-463h-118v689h168z" />
    <glyph glyph-name="Xi" unicode="&#x39e;" horiz-adv-x="536"
d="M41 689h454v-113h-454v113zM70 410h395v-112h-395v112zM41 113h454v-113h-454v113z" />
    <glyph glyph-name="Omicron" unicode="&#x39f;" horiz-adv-x="639"
d="M589 344q0 -91 -12 -157.5t-43 -110t-83 -64.5t-131 -21q-80 0 -132 21t-83 64.5t-43 110t-12 157.5t12 158t43 110.5t83 64.5t132 21q79 0 131 -21.5t83 -65t43 -110t12 -157.5zM459 344q0 77 -7 124.5t-23 73.5t-43 35t-67 9t-67 -9t-43.5 -35t-23.5 -73.5t-7 -124.5
t7 -124t23.5 -72.5t43.5 -34.5t67 -9t67 9t43 34.5t23 72.5t7 124z" />
    <glyph glyph-name="Pi" unicode="&#x3a0;" horiz-adv-x="642"
d="M444 0v579h-245v-579h-124v689h492v-689h-123z" />
    <glyph glyph-name="Rho" unicode="&#x3a1;" horiz-adv-x="539"
d="M515 472q0 -51 -14 -98t-44 -77q-23 -23 -54.5 -32.5t-77.5 -9.5h-126v-255h-124v689h248q45 0 79.5 -10.5t56.5 -32.5q32 -32 44 -78t12 -96zM386 472q0 48 -14.5 77.5t-59.5 29.5h-113v-214h113q47 0 60.5 29t13.5 78z" />
    <glyph glyph-name="Sigma" unicode="&#x3a3;" horiz-adv-x="533"
d="M193 112v-2h299v-110h-451v89l155 256l-155 255v89h451v-109h-298v-2l128 -214v-37z" />
    <glyph glyph-name="Tau" unicode="&#x3a4;" horiz-adv-x="490"
d="M307 579v-579h-123v579h-168v110h458v-110h-167z" />
    <glyph glyph-name="Upsilon" unicode="&#x3a5;" horiz-adv-x="558"
d="M341 271v-271h-124v272l-207 417h137l135 -291l128 291h138z" />
    <glyph glyph-name="Phi" unicode="&#x3a6;" horiz-adv-x="748"
d="M314 506q-26 0 -49.5 -9t-42 -28.5t-29.5 -49t-11 -70.5t11 -70.5t29.5 -49t42 -28.5t49.5 -9v314zM435 0h-122v76q-59 5 -106.5 24.5t-82 53.5t-53 83t-18.5 113q0 63 18.5 112t53 82.5t82 53t106.5 24.5v66h122v-66q58 -5 106 -24.5t82.5 -53t53 -82.5t18.5 -112
q0 -64 -18.5 -113t-53 -83t-82.5 -53.5t-106 -24.5v-76zM434 192q25 0 49 9t42.5 28.5t29.5 49t11 70.5t-11 70.5t-29.5 49t-42.5 28.5t-49 9v-314z" />
    <glyph glyph-name="Chi" unicode="&#x3a7;" horiz-adv-x="597"
d="M439 0l-141 249l-139 -249h-139l208 349l-195 340h140l128 -240l128 240h138l-198 -340l208 -349h-138z" />
    <glyph glyph-name="Psi" unicode="&#x3a8;" horiz-adv-x="687"
d="M283 0v143q-36 5 -73.5 18t-68 36.5t-50 59t-19.5 86.5v346h124v-356q0 -35 24.5 -54t62.5 -27v437h123v-436q37 8 61.5 27t24.5 53v356h123v-346q0 -50 -19.5 -85.5t-49.5 -59t-67 -36.5t-73 -18v-144h-123z" />
    <glyph glyph-name="Iotadieresis" unicode="&#x3aa;" horiz-adv-x="275"
d="M75 0v689h124v-689h-124zM179 765v110h110v-110h-110zM-12 765v110h109v-110h-109z" />
    <glyph glyph-name="Upsilondieresis" unicode="&#x3ab;" horiz-adv-x="558"
d="M341 271v-271h-124v272l-207 417h137l135 -291l128 291h138zM322 764v110h110v-110h-110zM131 764v110h109v-110h-109z" />
    <glyph glyph-name="alphatonos" unicode="&#x3ac;" horiz-adv-x="504"
d="M348 0l-9 40q-25 -21 -56.5 -35.5t-71.5 -14.5q-48 0 -80.5 16t-52.5 47.5t-29 76.5t-9 104q0 53 8.5 99t29 80.5t53.5 54t82 19.5q40 0 70.5 -14t55.5 -35l9 41h96v-479h-96zM326 346q-16 15 -40 27.5t-56 12.5q-37 0 -53 -34t-16 -118q0 -45 4 -72.5t13 -43.5t22 -21.5
t31 -5.5q28 0 52 12.5t43 28.5v214zM265 529h-79l44 160h118z" />
    <glyph glyph-name="epsilontonos" unicode="&#x3ad;" horiz-adv-x="449"
d="M48 129q0 42 21 72t59 49v2q-23 16 -41 44.5t-18 66.5q0 22 8.5 42.5t23.5 35.5q26 26 66.5 36t83.5 10q12 0 30 -0.5t38 -2t40.5 -3.5t37.5 -5l-6 -102q-29 4 -66 9t-67 5q-28 0 -47 -7.5t-20 -32.5q0 -8 2 -17t9.5 -16.5t21 -12.5t35.5 -5h98v-98h-94q-31 0 -49.5 -5
t-29 -13t-14 -18.5t-3.5 -21.5q0 -28 25 -38.5t62 -10.5q33 0 75.5 7t84.5 19l9 -103q-33 -10 -79 -17t-97 -7q-43 0 -88 8.5t-74 37.5q-17 16 -27 39.5t-10 52.5zM275 529h-79l44 160h118z" />
    <glyph glyph-name="etatonos" unicode="&#x3ae;" horiz-adv-x="500"
d="M445 -232h-118v576q0 23 -11.5 33t-29.5 10q-29 0 -59.5 -9.5t-48.5 -21.5v-356h-118v479h96l8 -32q29 16 65 28t82 12q25 0 49.5 -6.5t43 -22t30 -42.5t11.5 -67v-581zM282 529h-79l44 160h118z" />
    <glyph glyph-name="iotatonos" unicode="&#x3af;" horiz-adv-x="291"
d="M60 479h118v-336q0 -29 9 -39.5t30 -10.5q8 0 24 2t30 5l5 -99q-22 -5 -46.5 -7.5t-42.5 -2.5q-69 0 -98 31t-29 110v347zM159 529h-79l44 160h118z" />
    <glyph glyph-name="upsilondieresistonos" unicode="&#x3b0;" horiz-adv-x="521"
d="M249 92q54 0 80 50t26 136q0 45 -9 96t-27 105h121q29 -108 29 -205q0 -83 -20 -137t-52 -86.5t-71.5 -45.5t-79.5 -13q-38 0 -72.5 8t-61 27.5t-42.5 53.5t-16 87v311h118v-306q0 -45 22.5 -63t54.5 -18zM342 556v110h100v-110h-100zM49 556v110h99v-110h-99zM249 527
h-67l38 162h101z" />
    <glyph glyph-name="alpha" unicode="&#x3b1;" horiz-adv-x="504"
d="M348 0l-9 40q-25 -21 -56.5 -35.5t-71.5 -14.5q-48 0 -80.5 16t-52.5 47.5t-29 76.5t-9 104q0 53 8.5 99t29 80.5t53.5 54t82 19.5q40 0 70.5 -14t55.5 -35l9 41h96v-479h-96zM326 346q-16 15 -40 27.5t-56 12.5q-37 0 -53 -34t-16 -118q0 -45 4 -72.5t13 -43.5t22 -21.5
t31 -5.5q28 0 52 12.5t43 28.5v214z" />
    <glyph glyph-name="beta" unicode="&#x3b2;" horiz-adv-x="530"
d="M60 520q0 105 52.5 157.5t147.5 52.5q97 0 152 -52.5t55 -149.5q0 -48 -19 -86t-48 -63v-2q45 -23 68 -70t23 -101q0 -99 -53.5 -157t-158.5 -58q-27 0 -52.5 4.5t-48.5 12.5v-240h-118v752zM178 119q18 -11 39.5 -17t46.5 -6q22 0 41.5 5t34 17.5t23 34.5t8.5 56
q0 47 -22 79t-73 32h-48v103h32q27 0 44.5 8.5t27 22.5t13.5 32.5t4 38.5q0 48 -23.5 74.5t-64.5 26.5t-63 -30.5t-20 -83.5v-393z" />
    <glyph glyph-name="gamma" unicode="&#x3b3;" horiz-adv-x="481"
d="M180 -232v171q-2 32 -9 61.5t-16 57.5l-142 421h119l110 -355h2q40 73 66.5 157.5t33.5 197.5h113q-13 -142 -54 -254t-105 -209v-248h-118z" />
    <glyph glyph-name="delta" unicode="&#x3b4;" horiz-adv-x="522"
d="M126 604q0 35 15 59t40 39t57.5 21.5t67.5 6.5q21 0 57 -3.5t69 -9.5l-6 -95q-15 3 -33 5.5t-35.5 4t-33.5 2.5t-28 1q-20 0 -35 -7.5t-15 -28.5q0 -15 7 -25t14 -16q32 -29 59 -50.5t57 -51.5q20 -20 38 -42.5t31 -48.5t20.5 -57t7.5 -68q0 -68 -14 -115t-42 -76.5
t-69 -43t-95 -13.5q-109 0 -164.5 56.5t-55.5 191.5q0 68 18 112t43 69q21 21 47.5 35.5t50.5 22.5v2q-30 25 -51.5 53t-21.5 70zM358 240q-2 53 -22.5 86.5t-55.5 63.5q-55 -4 -87 -36q-15 -15 -23 -42t-8 -72q0 -44 7 -72.5t20 -45.5t31 -23.5t40 -6.5t40 6.5t31.5 23.5
t20.5 45.5t6 72.5z" />
    <glyph glyph-name="epsilon" unicode="&#x3b5;" horiz-adv-x="449"
d="M48 129q0 42 21 72t59 49v2q-23 16 -41 44.5t-18 66.5q0 22 8.5 42.5t23.5 35.5q26 26 66.5 36t83.5 10q12 0 30 -0.5t38 -2t40.5 -3.5t37.5 -5l-6 -102q-29 4 -66 9t-67 5q-28 0 -47 -7.5t-20 -32.5q0 -8 2 -17t9.5 -16.5t21 -12.5t35.5 -5h98v-98h-94q-31 0 -49.5 -5
t-29 -13t-14 -18.5t-3.5 -21.5q0 -28 25 -38.5t62 -10.5q33 0 75.5 7t84.5 19l9 -103q-33 -10 -79 -17t-97 -7q-43 0 -88 8.5t-74 37.5q-17 16 -27 39.5t-10 52.5z" />
    <glyph glyph-name="zeta" unicode="&#x3b6;" horiz-adv-x="443"
d="M306 -39q0 11 -8.5 18.5t-33.5 8.5q-19 1 -42 4t-46.5 9.5t-44.5 16.5t-35 24q-22 22 -34.5 51.5t-12.5 72.5q0 52 23.5 116t58 126.5t73.5 118t71 91.5v2h-201v100h342v-91q-63 -71 -108 -136.5t-74 -124t-42.5 -108.5t-13.5 -90q0 -37 24 -61q15 -15 45.5 -21t59.5 -8
q18 -1 39.5 -3.5t39.5 -10t30.5 -22t12.5 -39.5q0 -37 -22 -78t-59 -80h-89q23 38 35 63.5t12 50.5z" />
    <glyph glyph-name="eta" unicode="&#x3b7;" horiz-adv-x="500"
d="M445 -232h-118v576q0 23 -11.5 33t-29.5 10q-29 0 -59.5 -9.5t-48.5 -21.5v-356h-118v479h96l8 -32q29 16 65 28t82 12q25 0 49.5 -6.5t43 -22t30 -42.5t11.5 -67v-581z" />
    <glyph glyph-name="theta" unicode="&#x3b8;" horiz-adv-x="566"
d="M180 310q1 -52 5.5 -92.5t16 -68.5t31 -42.5t50.5 -14.5t50.5 14.5t31 42.5t16 68.5t5.5 92.5h-206zM507 365q0 -89 -9.5 -158.5t-34 -117.5t-68 -73t-111.5 -25t-111.5 25t-69 73t-35 117.5t-9.5 158.5t9.5 157t34.5 114t68.5 69.5t112.5 23.5q67 0 110.5 -23.5
t68.5 -69.5t34.5 -114t9.5 -157zM386 412q-1 52 -5.5 92.5t-16 68t-31 42t-50.5 14.5t-50.5 -14.5t-31 -42t-16 -68t-5.5 -92.5h206z" />
    <glyph glyph-name="iota" unicode="&#x3b9;" horiz-adv-x="291"
d="M60 479h118v-336q0 -29 9 -39.5t30 -10.5q8 0 24 2t30 5l5 -99q-22 -5 -46.5 -7.5t-42.5 -2.5q-69 0 -98 31t-29 110v347z" />
    <glyph glyph-name="kappa" unicode="&#x3ba;" horiz-adv-x="468"
d="M267 419q25 35 56 48.5t66 13.5q10 0 22 -0.5t27 -2.5l-8 -97q-5 1 -9.5 1h-9.5q-20 0 -38 -8t-35 -28l-38 -47l162 -299h-129l-114 218l-41 -47v-171h-118v479h118v-196q8 18 20.5 38.5t23.5 34.5z" />
    <glyph glyph-name="lambda" unicode="&#x3bb;"
d="M424 127q6 -20 18 -26.5t26 -6.5q11 0 23.5 2.5t23.5 5.5l6 -101q-10 -3 -22 -4.5t-24 -2.5t-22.5 -1.5t-17.5 -0.5q-50 0 -77.5 26.5t-42.5 75.5l-56 183q-3 10 -8 32t-7 39q-2 -9 -4.5 -23.5t-5.5 -29.5t-6 -27.5t-4 -16.5l-80 -251h-121l172 488l-17 48
q-14 39 -33.5 62.5t-55.5 23.5q-11 0 -29.5 -2t-37.5 -6l-7 106q20 5 39.5 7t36.5 2q46 0 78.5 -12.5t55.5 -35t38.5 -54t27.5 -70.5z" />
    <glyph glyph-name="nu" unicode="&#x3bd;" horiz-adv-x="481"
d="M457 479q-13 -148 -57 -263.5t-113 -215.5h-113l-161 479h119l110 -355h2q40 73 66.5 157.5t33.5 197.5h113z" />
    <glyph glyph-name="xi" unicode="&#x3be;" horiz-adv-x="472"
d="M339 620q-23 -1 -44.5 -7t-38.5 -19t-27.5 -33.5t-10.5 -49.5q0 -50 22 -77t66 -27h96v-100h-113q-20 0 -40.5 -4t-37 -15t-27.5 -31.5t-11 -53.5q0 -27 6 -47.5t24 -38.5q9 -9 24 -15t32.5 -10t36.5 -6.5t36 -3.5q18 -2 39.5 -4.5t40 -10.5t31 -22.5t12.5 -39.5
q0 -37 -22 -78t-59 -80h-89q23 38 35 63.5t12 50.5q0 11 -8 17.5t-33 8.5q-19 1 -44 4.5t-50.5 10t-48 16.5t-36.5 24q-27 23 -44.5 60t-17.5 86q0 68 31 111t80 71v2q-31 23 -48 52t-17 76q0 42 17 71.5t46 48.5v2l-95 -1l1 99h370v-100h-96z" />
    <glyph glyph-name="omicron" unicode="&#x3bf;" horiz-adv-x="512"
d="M472 239q0 -128 -51.5 -188t-164.5 -60q-112 0 -164 60.5t-52 188.5t51.5 187.5t164.5 59.5t164.5 -59.5t51.5 -188.5zM348 239q0 46 -5.5 74.5t-17 45t-29 22.5t-40.5 6t-40.5 -6t-29 -22t-17 -45t-5.5 -74q0 -46 5.5 -74.5t17 -45t29 -22.5t40.5 -6q24 0 41 6t28.5 22
t17 45t5.5 74z" />
    <glyph glyph-name="pi" unicode="&#x3c0;" horiz-adv-x="601"
d="M571 479v-100h-80v-379h-118v379h-145v-379h-118v379h-80v100h541z" />
    <glyph glyph-name="rho" unicode="&#x3c1;" horiz-adv-x="506"
d="M58 244q0 128 48.5 185.5t156.5 57.5q104 0 153 -58.5t50 -184.5q0 -53 -12 -99t-36.5 -80t-61 -54t-85.5 -20q-30 0 -53 3.5t-42 12.5v-239h-118v476zM256 92q43 0 66 33t24 114q0 46 -5.5 74.5t-16.5 45t-27 22.5t-38 6q-33 0 -56 -29.5t-23 -89.5v-156
q14 -9 30.5 -14.5t45.5 -5.5z" />
    <glyph glyph-name="sigma1" unicode="&#x3c2;" horiz-adv-x="415"
d="M101 41q-31 31 -46 78.5t-15 116.5q0 128 52 189.5t164 61.5q26 0 59.5 -3.5t62.5 -7.5l-7 -102q-33 6 -61.5 9.5t-53.5 3.5q-23 0 -40.5 -6t-29 -22.5t-17 -45t-5.5 -74.5q0 -54 7.5 -83.5t23.5 -44.5q15 -15 36.5 -22t50.5 -9q18 -1 39.5 -3.5t39.5 -10t30.5 -22
t12.5 -39.5q0 -37 -22 -78t-59 -80h-89q23 38 35 63.5t12 50.5q0 11 -8.5 18.5t-33.5 8.5q-38 2 -74.5 14t-63.5 39z" />
    <glyph glyph-name="sigma" unicode="&#x3c3;" horiz-adv-x="536"
d="M472 239q0 -128 -51.5 -188t-164.5 -60q-112 0 -164 60.5t-52 188.5t54.5 183.5t167.5 55.5h249v-100h-73q15 -25 24.5 -61t9.5 -79zM348 239q0 46 -5.5 74t-17 44t-28.5 21.5t-40 5.5q-24 0 -41.5 -5.5t-29 -21t-17 -44t-5.5 -73.5q0 -46 5.5 -74.5t17 -45t29 -22.5
t40.5 -6q24 0 41 6t28.5 22t17 45t5.5 74z" />
    <glyph glyph-name="tau" unicode="&#x3c4;" horiz-adv-x="438"
d="M420 379h-143v-379h-118v379h-141v100h402v-100z" />
    <glyph glyph-name="upsilon" unicode="&#x3c5;" horiz-adv-x="511"
d="M249 92q54 0 80 50t26 136q0 45 -9 96t-27 105h121q29 -108 29 -205q0 -83 -20 -137t-52 -86.5t-71.5 -45.5t-79.5 -13q-38 0 -72.5 8t-61 27.5t-42.5 53.5t-16 87v311h118v-306q0 -45 22.5 -63t54.5 -18z" />
    <glyph glyph-name="phi" unicode="&#x3c6;" horiz-adv-x="660"
d="M241 382q-40 -21 -59.5 -56t-19.5 -81q0 -60 23 -92.5t81 -42.5v228q0 33 8 61t26 49t46.5 32.5t69.5 11.5q40 0 77 -15t65 -45t45 -74.5t17 -102.5q0 -64 -19 -110t-51 -77t-75 -47.5t-91 -20.5v-232h-118v232q-110 15 -168 74.5t-58 164.5q0 97 38.5 155.5t104.5 88.5z
M498 252q0 28 -5 52.5t-15 42.5t-23.5 28.5t-30.5 10.5q-23 0 -31.5 -10.5t-8.5 -33.5v-241q65 10 89.5 49.5t24.5 101.5z" />
    <glyph glyph-name="chi" unicode="&#x3c7;" horiz-adv-x="454"
d="M169 134l-145 345h122l81 -215l81 215h121l-145 -341l155 -370h-121l-93 241l-92 -241h-119z" />
    <glyph glyph-name="psi" unicode="&#x3c8;" horiz-adv-x="602"
d="M360 101q28 1 48 15t20 58v305h115v-309q0 -52 -18 -85t-45 -52t-59.5 -27t-60.5 -11v-227h-118v227q-29 3 -61 11t-59 27t-45 52t-18 85v309h115v-305q0 -44 20 -58t48 -15v618h118v-618z" />
    <glyph glyph-name="omega" unicode="&#x3c9;" horiz-adv-x="648"
d="M323 63q-14 -33 -42.5 -52.5t-81.5 -19.5q-48 0 -77.5 17.5t-46 48t-22.5 71.5t-6 87q0 24 5 58t15 70t24.5 71.5t33.5 64.5h129q-19 -27 -35 -61.5t-27.5 -72.5t-18 -77t-6.5 -76v-27t4 -31.5t13 -26.5t26 -11q18 0 29 16t17 40.5t8 55.5t2 61v66h116v-66q0 -30 2 -61
t8 -55.5t17 -40.5t29 -16q15 0 24 9t13 23.5t5 31.5t1 32q0 37 -6.5 76t-18 77t-27.5 72.5t-35 61.5h129q19 -29 33.5 -64.5t24.5 -71.5t15 -70t5 -58q0 -46 -6 -87t-22.5 -71.5t-46 -48t-77.5 -17.5q-52 0 -81 19.5t-43 52.5h-2v0z" />
    <glyph glyph-name="iotadieresis" unicode="&#x3ca;" horiz-adv-x="291"
d="M60 479h118v-336q0 -29 9 -39.5t30 -10.5q8 0 24 2t30 5l5 -99q-22 -5 -46.5 -7.5t-42.5 -2.5q-69 0 -98 31t-29 110v347zM161 569v110h110v-110h-110zM-30 569v110h109v-110h-109z" />
    <glyph glyph-name="upsilondieresis" unicode="&#x3cb;" horiz-adv-x="511"
d="M249 92q54 0 80 50t26 136q0 45 -9 96t-27 105h121q29 -108 29 -205q0 -83 -20 -137t-52 -86.5t-71.5 -45.5t-79.5 -13q-38 0 -72.5 8t-61 27.5t-42.5 53.5t-16 87v311h118v-306q0 -45 22.5 -63t54.5 -18zM286 569v110h110v-110h-110zM95 569v110h109v-110h-109z" />
    <glyph glyph-name="omicrontonos" unicode="&#x3cc;" horiz-adv-x="512"
d="M472 239q0 -128 -51.5 -188t-164.5 -60q-112 0 -164 60.5t-52 188.5t51.5 187.5t164.5 59.5t164.5 -59.5t51.5 -188.5zM348 239q0 46 -5.5 74.5t-17 45t-29 22.5t-40.5 6t-40.5 -6t-29 -22t-17 -45t-5.5 -74q0 -46 5.5 -74.5t17 -45t29 -22.5t40.5 -6q24 0 41 6t28.5 22
t17 45t5.5 74zM287 529h-79l44 160h118z" />
    <glyph glyph-name="upsilontonos" unicode="&#x3cd;" horiz-adv-x="511"
d="M249 92q54 0 80 50t26 136q0 45 -9 96t-27 105h121q29 -108 29 -205q0 -83 -20 -137t-52 -86.5t-71.5 -45.5t-79.5 -13q-38 0 -72.5 8t-61 27.5t-42.5 53.5t-16 87v311h118v-306q0 -45 22.5 -63t54.5 -18zM279 529h-79l44 160h118z" />
    <glyph glyph-name="omegatonos" unicode="&#x3ce;" horiz-adv-x="648"
d="M323 63q-14 -33 -42.5 -52.5t-81.5 -19.5q-48 0 -77.5 17.5t-46 48t-22.5 71.5t-6 87q0 24 5 58t15 70t24.5 71.5t33.5 64.5h129q-19 -27 -35 -61.5t-27.5 -72.5t-18 -77t-6.5 -76v-27t4 -31.5t13 -26.5t26 -11q18 0 29 16t17 40.5t8 55.5t2 61v66h116v-66q0 -30 2 -61
t8 -55.5t17 -40.5t29 -16q15 0 24 9t13 23.5t5 31.5t1 32q0 37 -6.5 76t-18 77t-27.5 72.5t-35 61.5h129q19 -29 33.5 -64.5t24.5 -71.5t15 -70t5 -58q0 -46 -6 -87t-22.5 -71.5t-46 -48t-77.5 -17.5q-52 0 -81 19.5t-43 52.5h-2zM361 529h-79l44 160h118z" />
    <glyph glyph-name="uni0400" unicode="&#x400;" horiz-adv-x="516"
d="M75 0v689h400v-110h-276v-170h189v-110h-189v-189h276v-110h-400zM126 901h122l83 -156h-83z" />
    <glyph glyph-name="uni0401" unicode="&#x401;" horiz-adv-x="516"
d="M75 0v689h400v-110h-276v-170h189v-110h-189v-189h276v-110h-400zM313 765v110h110v-110h-110zM122 765v110h109v-110h-109z" />
    <glyph glyph-name="uni0402" unicode="&#x402;" horiz-adv-x="671"
d="M285 579v-164q55 42 137 42q102 0 155.5 -56t53.5 -177q0 -118 -54 -174.5t-151 -56.5q-23 0 -32 1t-22 3l3 108q11 -2 19 -2h19q21 0 37.5 4.5t28.5 17.5t18 36.5t6 62.5t-6.5 63t-19.5 37.5t-32 18t-43 4.5q-26 0 -59 -12.5t-58 -46.5v-288h-123v579h-168v110h458v-110
h-167z" />
    <glyph glyph-name="uni0403" unicode="&#x403;" horiz-adv-x="482"
d="M466 689v-110h-267v-579h-124v689h391zM297 745h-83l83 156h122z" />
    <glyph glyph-name="uni0404" unicode="&#x404;" horiz-adv-x="538"
d="M497 6q-43 -7 -78.5 -11t-83.5 -4q-79 0 -133.5 21t-88 64.5t-48.5 110t-15 158.5q0 91 15 158t48.5 110t88 64t133.5 21q48 0 83.5 -4t78.5 -11l-9 -115q-26 4 -46 7.5t-37.5 6t-34.5 3.5t-36 1q-36 0 -63.5 -7t-46 -26.5t-29.5 -54t-15 -89.5h242v-110h-243
q3 -61 13.5 -99.5t29.5 -60t46.5 -29t65.5 -7.5q19 0 36 1.5t34.5 3.5t37.5 5.5t46 8.5z" />
    <glyph glyph-name="uni0405" unicode="&#x405;" horiz-adv-x="493"
d="M458 180q0 -86 -61 -138t-173 -52q-29 0 -78.5 4t-98.5 14l8 113q48 -10 93 -15t77 -5q60 0 84 22t24 56q0 17 -7 31t-21 28q-20 20 -47 36.5t-56 33t-57.5 34.5t-51.5 41t-39.5 55t-16.5 85q0 78 54.5 127t162.5 49q46 0 85.5 -4t81.5 -11l-7 -112q-48 10 -85 14.5
t-75 4.5q-47 0 -69 -18.5t-22 -50.5q0 -29 21 -50q16 -16 44 -34t59.5 -38t63 -41.5t54.5 -44.5q53 -53 53 -134z" />
    <glyph glyph-name="uni0406" unicode="&#x406;" horiz-adv-x="275"
d="M75 0v689h124v-689h-124z" />
    <glyph glyph-name="uni0407" unicode="&#x407;" horiz-adv-x="275"
d="M75 0v689h124v-689h-124zM179 765v110h110v-110h-110zM-12 765v110h109v-110h-109z" />
    <glyph glyph-name="uni0408" unicode="&#x408;" horiz-adv-x="371"
d="M301 181q0 -54 -7.5 -90t-26 -58.5t-50.5 -32t-81 -9.5q-34 0 -66.5 2.5t-69.5 7.5l7 112q29 -6 60 -8.5t55 -2.5q18 0 29 2.5t17 10.5t7.5 22t1.5 38v514h124v-508z" />
    <glyph glyph-name="uni0409" unicode="&#x409;" horiz-adv-x="908"
d="M876 205q0 -106 -43 -155.5t-142 -49.5h-260v579h-158q-3 -98 -7.5 -182t-14.5 -151.5t-27 -117t-45 -77.5q-25 -25 -57.5 -39.5t-83.5 -15.5h-15v110q40 1 62 23q16 16 27.5 54.5t19 89t11 109t5 115t1 107t-1.5 85.5h408v-277h136q102 0 143.5 -53.5t41.5 -153.5z
M749 206q0 51 -16.5 73t-54.5 22h-123v-191h123q38 0 54.5 22.5t16.5 73.5z" />
    <glyph glyph-name="uni040A" unicode="&#x40a;" horiz-adv-x="921"
d="M889 205q0 -106 -43 -155.5t-142 -49.5h-260v299h-244v-299h-124v689h124v-280h244v280h124v-277h136q102 0 143.5 -53.5t41.5 -153.5zM762 206q0 51 -16.5 73t-54.5 22h-123v-191h123q38 0 54.5 22.5t16.5 73.5z" />
    <glyph glyph-name="uni040B" unicode="&#x40b;" horiz-adv-x="648"
d="M307 579v-143q27 13 62.5 22.5t73.5 9.5q80 0 115 -39.5t35 -125.5v-303h-123v290q0 38 -15 54t-45 16q-26 0 -56 -9.5t-47 -21.5v-329h-123v579h-168v110h458v-110h-167z" />
    <glyph glyph-name="uni040C" unicode="&#x40c;" horiz-adv-x="555"
d="M417 0l-159 303l-59 -60v-243h-124v689h124v-313l214 313h129l-197 -285l215 -404h-143zM315 745h-83l83 156h122z" />
    <glyph glyph-name="uni040D" unicode="&#x40d;" horiz-adv-x="676"
d="M435 689h166v-689h-116v465q0 13 1 34t3 41l4 49l-14 -46q-7 -20 -14 -40.5t-14 -36.5l-210 -466h-166v689h116v-461q0 -14 -1 -35.5t-3 -41.5l-4 -51l15 49q8 21 15 44t15 40zM184 901h122l83 -156h-83z" />
    <glyph glyph-name="uni040E" unicode="&#x40e;" horiz-adv-x="562"
d="M312 151q-18 -41 -34.5 -70.5t-36 -49t-45 -28.5t-61.5 -9q-16 0 -34 1t-50 8l4 112q38 -7 61 -7q15 0 26.5 4t21.5 14.5t20 27t22 42.5l12 26l-206 467h135l137 -330l131 330h135zM439 889q-17 -76 -53.5 -110t-100.5 -34q-65 0 -101 34t-54 110h86q3 -12 7 -23.5
t12 -20.5t20.5 -14t30.5 -5q37 0 49 19t17 44h87z" />
    <glyph glyph-name="uni040F" unicode="&#x40f;" horiz-adv-x="643"
d="M198 689v-579h245v579h124v-689h-186v-109h-120v109h-186v689h123z" />
    <glyph glyph-name="uni0410" unicode="&#x410;" horiz-adv-x="562"
d="M424 0l-35 134h-215l-35 -134h-129l195 689h152l195 -689h-128zM298 494q-2 9 -4 19t-4 22.5t-4 28.5t-5 39q-3 -23 -5 -39t-4 -28.5t-4 -22t-4 -19.5l-61 -250h156z" />
    <glyph glyph-name="uni0411" unicode="&#x411;" horiz-adv-x="554"
d="M520 205q0 -106 -43 -155.5t-142 -49.5h-260v689h381v-110h-256l-1 1v-168h136q102 0 143.5 -53.5t41.5 -153.5zM393 206q0 51 -16.5 73t-54.5 22h-123v-191h123q38 0 54.5 22.5t16.5 73.5z" />
    <glyph glyph-name="uni0412" unicode="&#x412;" horiz-adv-x="563"
d="M518 197q0 -49 -12.5 -89t-40.5 -68q-23 -22 -56 -31t-82 -9h-252v689h260q87 0 126 -41q26 -26 35.5 -62.5t9.5 -76.5q0 -48 -18 -87.5t-56 -61.5v-2q19 -6 35 -21.5t27.5 -37.5t17.5 -48t6 -54zM381 497q0 45 -16 65t-48 21h-118v-176h108q46 -1 60 21.5t14 68.5z
M391 197q0 22 -2.5 41t-10 32t-21.5 20.5t-37 7.5h-121v-190h121q38 0 54.5 20.5t16.5 68.5z" />
    <glyph glyph-name="uni0413" unicode="&#x413;" horiz-adv-x="482"
d="M466 689v-110h-267v-579h-124v689h391z" />
    <glyph glyph-name="uni0414" unicode="&#x414;" horiz-adv-x="660"
d="M56 109q26 3 45 22q16 17 27.5 55t19 88.5t11 108.5t5 114.5t1 106.5t-1.5 85h386v-581h69v-217h-120v109h-366v-109h-120v218h44zM287 579q-3 -87 -6 -159.5t-10 -131t-19 -104t-32 -76.5h205v471h-138z" />
    <glyph glyph-name="uni0415" unicode="&#x415;" horiz-adv-x="516"
d="M75 0v689h400v-110h-276v-170h189v-110h-189v-189h276v-110h-400z" />
    <glyph glyph-name="uni0416" unicode="&#x416;" horiz-adv-x="837"
d="M357 0v298h-26l-191 -298h-135l229 353l-214 336h143l171 -278h23v278h124v-278h26l172 278h138l-214 -336l229 -353h-140l-191 298h-20v-298h-124z" />
    <glyph glyph-name="uni0417" unicode="&#x417;" horiz-adv-x="505"
d="M228 699q106 0 166 -45.5t60 -143.5q0 -57 -20.5 -93t-44.5 -57v-2q15 -9 28.5 -21.5t24 -30t17 -41t6.5 -54.5q0 -116 -65 -168.5t-191 -52.5q-14 0 -36 0.5t-46.5 1.5t-48 2.5t-41.5 3.5l4 113q29 -3 64 -6t77 -3q30 0 58.5 2.5t50 12.5t35 30.5t13.5 57.5
q0 29 -6.5 47.5t-18.5 29.5t-28 15.5t-34 4.5h-122v104h115q47 0 65.5 23t18.5 68q0 55 -32 73.5t-96 18.5q-35 0 -77.5 -3.5t-75.5 -8.5l-4 109q44 7 95 10t89 3z" />
    <glyph glyph-name="uni0418" unicode="&#x418;" horiz-adv-x="676"
d="M435 689h166v-689h-116v465q0 13 1 34t3 41l4 49l-14 -46q-7 -20 -14 -40.5t-14 -36.5l-210 -466h-166v689h116v-461q0 -14 -1 -35.5t-3 -41.5l-4 -51l15 49q8 21 15 44t15 40z" />
    <glyph glyph-name="uni0419" unicode="&#x419;" horiz-adv-x="676"
d="M435 689h166v-689h-116v465q0 13 1 34t3 41l4 49l-14 -46q-7 -20 -14 -40.5t-14 -36.5l-210 -466h-166v689h116v-461q0 -14 -1 -35.5t-3 -41.5l-4 -51l15 49q8 21 15 44t15 40zM503 889q-17 -76 -53.5 -110t-100.5 -34q-65 0 -101 34t-54 110h86q3 -12 7 -23.5t12 -20.5
t20.5 -14t30.5 -5q37 0 49 19t17 44h87z" />
    <glyph glyph-name="uni041A" unicode="&#x41a;" horiz-adv-x="555"
d="M417 0l-159 303l-59 -60v-243h-124v689h124v-313l214 313h129l-197 -285l215 -404h-143z" />
    <glyph glyph-name="uni041B" unicode="&#x41b;" horiz-adv-x="631"
d="M273 579q-3 -98 -7.5 -182t-14.5 -151.5t-27 -117t-45 -77.5q-25 -25 -57.5 -39.5t-83.5 -15.5h-15v110q40 1 62 23q16 16 27.5 54.5t19 89t11 109t5 115t1 107t-1.5 85.5h408v-689h-124v579h-158z" />
    <glyph glyph-name="uni041C" unicode="&#x41c;" horiz-adv-x="855"
d="M659 0v484l6 125q-5 -31 -13 -62t-17 -63l-139 -484h-140l-140 487q-4 14 -10.5 41t-18.5 81l6 -125v-484h-118v689h188l143 -495q6 -22 11.5 -50t7.5 -57q3 29 8 57t11 50l141 495h195v-689h-121z" />
    <glyph glyph-name="uni041D" unicode="&#x41d;" horiz-adv-x="643"
d="M444 0v299h-245v-299h-124v689h124v-280h245v280h123v-689h-123z" />
    <glyph glyph-name="uni041E" unicode="&#x41e;" horiz-adv-x="639"
d="M589 344q0 -91 -12 -157.5t-43 -110t-83 -64.5t-131 -21q-80 0 -132 21t-83 64.5t-43 110t-12 157.5t12 158t43 110.5t83 64.5t132 21q79 0 131 -21.5t83 -65t43 -110t12 -157.5zM459 344q0 77 -7 124.5t-23 73.5t-43 35t-67 9t-67 -9t-43.5 -35t-23.5 -73.5t-7 -124.5
t7 -124t23.5 -72.5t43.5 -34.5t67 -9t67 9t43 34.5t23 72.5t7 124z" />
    <glyph glyph-name="uni041F" unicode="&#x41f;" horiz-adv-x="642"
d="M444 0v579h-245v-579h-124v689h492v-689h-123z" />
    <glyph glyph-name="uni0420" unicode="&#x420;" horiz-adv-x="539"
d="M515 472q0 -51 -14 -98t-44 -77q-23 -23 -54.5 -32.5t-77.5 -9.5h-126v-255h-124v689h248q45 0 79.5 -10.5t56.5 -32.5q32 -32 44 -78t12 -96zM386 472q0 48 -14.5 77.5t-59.5 29.5h-113v-214h113q47 0 60.5 29t13.5 78z" />
    <glyph glyph-name="uni0421" unicode="&#x421;" horiz-adv-x="527"
d="M497 6q-43 -7 -78.5 -11t-83.5 -4q-79 0 -133.5 21t-88 64.5t-48.5 110t-15 158.5q0 91 15 158t48.5 110t88 64t133.5 21q48 0 83.5 -4t78.5 -11l-9 -115q-26 4 -46 7.5t-37.5 6t-34.5 3.5t-36 1q-41 0 -70.5 -9.5t-48.5 -35.5t-28 -73t-9 -123t9 -123.5t28 -73.5
t48.5 -35.5t70.5 -9.5q19 0 36 1.5t34.5 3.5t37.5 5.5t46 8.5z" />
    <glyph glyph-name="uni0422" unicode="&#x422;" horiz-adv-x="490"
d="M307 579v-579h-123v579h-168v110h458v-110h-167z" />
    <glyph glyph-name="uni0423" unicode="&#x423;" horiz-adv-x="562"
d="M312 151q-18 -41 -34.5 -70.5t-36 -49t-45 -28.5t-61.5 -9q-16 0 -34 1t-50 8l4 112q38 -7 61 -7q15 0 26.5 4t21.5 14.5t20 27t22 42.5l12 26l-206 467h135l137 -330l131 330h135z" />
    <glyph glyph-name="uni0424" unicode="&#x424;" horiz-adv-x="748"
d="M314 506q-26 0 -49.5 -9t-42 -28.5t-29.5 -49t-11 -70.5t11 -70.5t29.5 -49t42 -28.5t49.5 -9v314zM435 0h-122v76q-59 5 -106.5 24.5t-82 53.5t-53 83t-18.5 113q0 63 18.5 112t53 82.5t82 53t106.5 24.5v66h122v-66q58 -5 106 -24.5t82.5 -53t53 -82.5t18.5 -112
q0 -64 -18.5 -113t-53 -83t-82.5 -53.5t-106 -24.5v-76zM434 192q25 0 49 9t42.5 28.5t29.5 49t11 70.5t-11 70.5t-29.5 49t-42.5 28.5t-49 9v-314z" />
    <glyph glyph-name="uni0425" unicode="&#x425;" horiz-adv-x="597"
d="M439 0l-141 249l-139 -249h-139l208 349l-195 340h140l128 -240l128 240h138l-198 -340l208 -349h-138z" />
    <glyph glyph-name="uni0426" unicode="&#x426;" horiz-adv-x="685"
d="M180 689v-579h245v579h124v-579h94v-219h-120v109h-466v689h123z" />
    <glyph glyph-name="uni0427" unicode="&#x427;" horiz-adv-x="612"
d="M410 0v271h-3q-33 -14 -71.5 -21t-73.5 -7q-32 0 -70 7t-70 25.5t-53.5 51t-21.5 82.5v280h125v-260q0 -23 8 -38t23 -23t35.5 -11t44.5 -3q44 0 76.5 12t52.5 26v297h124v-689h-126z" />
    <glyph glyph-name="uni0428" unicode="&#x428;" horiz-adv-x="894"
d="M75 689h123v-579h187v579h124v-579h185v579h124v-689h-743v689z" />
    <glyph glyph-name="uni0429" unicode="&#x429;" horiz-adv-x="937"
d="M75 689h123v-579h187v579h124v-579h185v579h124v-579h77v-219h-122v109h-698v689z" />
    <glyph glyph-name="uni042A" unicode="&#x42a;" horiz-adv-x="625"
d="M593 205q0 -106 -43 -155.5t-142 -49.5h-260v579h-123v110h247v-277h136q102 0 143.5 -53.5t41.5 -153.5zM466 206q0 51 -16.5 73t-54.5 22h-123v-191h123q38 0 54.5 22.5t16.5 73.5z" />
    <glyph glyph-name="uni042B" unicode="&#x42b;" horiz-adv-x="795"
d="M520 205q0 -106 -43 -155.5t-142 -49.5h-260v689h124v-277h136q102 0 143.5 -53.5t41.5 -153.5zM393 206q0 51 -16.5 73t-54.5 22h-123v-191h123q38 0 54.5 22.5t16.5 73.5zM596 0v689h124v-689h-124z" />
    <glyph glyph-name="uni042C" unicode="&#x42c;" horiz-adv-x="552"
d="M520 205q0 -106 -43 -155.5t-142 -49.5h-260v689h124v-277h136q102 0 143.5 -53.5t41.5 -153.5zM393 206q0 51 -16.5 73t-54.5 22h-123v-191h123q38 0 54.5 22.5t16.5 73.5z" />
    <glyph glyph-name="uni042D" unicode="&#x42d;" horiz-adv-x="538"
d="M32 122q26 -5 46 -8.5t37.5 -5.5t34 -3.5t36.5 -1.5q37 0 65 7.5t47 29t29.5 60t13.5 99.5h-225v110h224q-4 55 -15 89.5t-30 54t-46 26.5t-63 7q-20 0 -36.5 -1t-34 -3.5t-37.5 -6t-46 -7.5l-9 115q43 7 78.5 11t83.5 4q79 0 133.5 -21t88 -64t48.5 -110t15 -158
q0 -92 -15 -158.5t-48.5 -110t-88 -64.5t-133.5 -21q-48 0 -83.5 4t-78.5 11z" />
    <glyph glyph-name="uni042E" unicode="&#x42e;" horiz-adv-x="836"
d="M75 0v689h123v-280h90q4 74 18 128.5t43 90t75 53t113 17.5q73 0 121.5 -21.5t76.5 -65t39.5 -110t11.5 -157.5t-11.5 -157.5t-39.5 -110t-76.5 -64.5t-121.5 -21q-69 0 -116 18.5t-75.5 56t-42 95.5t-15.5 138h-90v-299h-123zM656 344q0 77 -6 124.5t-19.5 73.5t-37 35
t-57.5 9q-35 0 -58 -9t-37 -35t-20 -73.5t-6 -124.5t6 -124t20 -72.5t37 -34.5t58 -9q34 0 57.5 9t37 34.5t19.5 72.5t6 124z" />
    <glyph glyph-name="uni042F" unicode="&#x42f;" horiz-adv-x="543"
d="M21 0l120 282q-56 17 -85 67t-29 137q0 42 9.5 79t31.5 64.5t59 43.5t91 16h250v-689h-123v271h-82l-112 -271h-130zM157 483q0 -24 2.5 -43t10.5 -32t22.5 -20t37.5 -7h115v198h-114q-45 0 -59.5 -24t-14.5 -72z" />
    <glyph glyph-name="uni0430" unicode="&#x430;" horiz-adv-x="462"
d="M312 0l-12 30q-27 -14 -58.5 -26.5t-77.5 -12.5q-69 0 -102.5 40.5t-33.5 101.5q0 57 21.5 89.5t56.5 49t79 21t90 4.5h15v30q0 37 -20.5 51t-55.5 14q-33 0 -71.5 -8t-67.5 -17l-9 101q35 8 77 14t89 6q37 0 69 -7t55 -24t36.5 -44.5t13.5 -69.5v-343h-94zM277 217
q-68 0 -100 -15t-32 -58q0 -28 13 -44t41 -16q26 0 48 6.5t43 14.5v112h-13z" />
    <glyph glyph-name="uni0431" unicode="&#x431;" horiz-adv-x="511"
d="M173 457q17 12 42 18.5t48 6.5q107 0 157.5 -57.5t50.5 -185.5q0 -125 -51.5 -186.5t-164.5 -61.5t-164 65.5t-51 198.5q0 35 2.5 84t11 99t25 95t45.5 74q38 38 75 52.5t72.5 22t69 16t64.5 34.5l-1 -109q-25 -20 -51.5 -26.5t-53 -11t-50.5 -13t-45 -31.5
q-11 -11 -19.5 -37t-11.5 -47zM347 236q0 46 -5.5 74.5t-17 44.5t-29 21.5t-40.5 5.5t-40.5 -5.5t-29 -21.5t-17 -44.5t-5.5 -73.5q0 -46 5.5 -74.5t17 -44t29 -21t40.5 -5.5q24 0 41 5.5t28.5 21t17 44t5.5 73.5z" />
    <glyph glyph-name="uni0432" unicode="&#x432;" horiz-adv-x="480"
d="M445 139q0 -72 -39 -105.5t-112 -33.5h-234v479h231q75 0 110 -35t35 -89q0 -35 -14 -62.5t-37 -41.5v-3q30 -17 45 -47.5t15 -61.5zM328 148q0 51 -44 51h-111v-104h108q18 0 32.5 11.5t14.5 41.5zM318 341q0 25 -13.5 34.5t-27.5 9.5h-104v-93h94q23 0 37 11t14 38z
" />
    <glyph glyph-name="uni0433" unicode="&#x433;" horiz-adv-x="408"
d="M385 479v-100h-207v-379h-118v479h325z" />
    <glyph glyph-name="uni0434" unicode="&#x434;" horiz-adv-x="553"
d="M86 117q15 15 25 45.5t16 68.5t9 81.5t3 85.5v81h332v-381h61v-207h-112v109h-290v-109h-113v207h18q20 0 31 5t20 14zM247 386q1 -39 -0.5 -79.5t-7 -78t-15 -71t-24.5 -59.5h156v288h-109z" />
    <glyph glyph-name="uni0435" unicode="&#x435;" horiz-adv-x="460"
d="M423 212h-262q0 -69 26 -95t70 -26q21 0 38 1.5t33 4t33.5 6.5t40.5 9l6 -103q-42 -9 -77.5 -13.5t-74.5 -4.5q-112 0 -164 59t-52 187q0 127 47 188.5t157 61.5q55 0 90 -15.5t55 -43.5t27 -66t7 -84v-66zM309 295q0 18 -2 36t-8.5 32.5t-19.5 23t-36 8.5q-42 0 -58 -25
t-20 -75h144z" />
    <glyph glyph-name="uni0436" unicode="&#x436;" horiz-adv-x="666"
d="M274 0v190h-16l-129 -190h-132l167 242l-167 237h128l131 -191h18v191h118v-191h17l132 191h128l-167 -237l167 -242h-132l-129 190h-16v-190h-118z" />
    <glyph glyph-name="uni0437" unicode="&#x437;" horiz-adv-x="449"
d="M401 129q0 -29 -10 -52.5t-27 -39.5q-29 -29 -74 -37.5t-88 -8.5q-51 0 -97 7t-79 17l9 103q42 -12 84.5 -19t75.5 -7q37 0 62 10.5t25 38.5q0 11 -3.5 21.5t-14 18.5t-29 13t-49.5 5h-94v98h98q22 0 35.5 5t21 12.5t9.5 16.5t2 17q-1 25 -20 32.5t-47 7.5q-30 0 -67 -5
t-66 -9l-6 102q16 3 37 5t41 3.5t38 2t30 0.5q43 0 83.5 -10t66.5 -36q15 -15 23.5 -35.5t8.5 -42.5q0 -38 -18 -66.5t-41 -44.5v-2q38 -19 59 -49t21 -72z" />
    <glyph glyph-name="uni0438" unicode="&#x438;" horiz-adv-x="520"
d="M195 0h-135v479h104l-4 -277q0 -20 -1 -40.5t-3 -46.5h2q7 22 14.5 44t17.5 44l127 276h143v-479l-105 -1l4 274q0 23 1 45.5t3 45.5h-2q-7 -23 -14.5 -46t-17.5 -43z" />
    <glyph glyph-name="uni0439" unicode="&#x439;" horiz-adv-x="520"
d="M195 0h-135v479h104l-4 -277q0 -20 -1 -40.5t-3 -46.5h2q7 22 14.5 44t17.5 44l127 276h143v-479l-105 -1l4 274q0 23 1 45.5t3 45.5h-2q-7 -23 -14.5 -46t-17.5 -43zM417 694q-17 -76 -53.5 -110t-100.5 -34q-65 0 -101 34t-54 110h86q3 -12 7 -23.5t12 -20.5t20.5 -14
t30.5 -5q37 0 49 19t17 44h87z" />
    <glyph glyph-name="uni043A" unicode="&#x43a;" horiz-adv-x="465"
d="M340 0l-111 220l-45 -49v-171h-118v479h118v-196q4 12 16 32.5t23 34.5l95 129h132l-144 -180l162 -299h-128z" />
    <glyph glyph-name="uni043B" unicode="&#x43b;" horiz-adv-x="514"
d="M63 117q14 14 23 43.5t14 67t6.5 80t1.5 81.5v90h346v-479h-118v380h-108q0 -41 -2.5 -89.5t-10 -94.5t-21 -85.5t-37.5 -63.5q-51 -51 -134 -51h-11v102q35 3 51 19z" />
    <glyph glyph-name="uni043C" unicode="&#x43c;" horiz-adv-x="678"
d="M506 0l3 276v67.5t2 67.5h-3q-5 -32 -11.5 -69.5t-15.5 -69.5l-77 -272h-132l-77 276q-8 31 -17 67.5t-14 67.5h-3q2 -31 3 -66.5t1 -66.5l3 -278h-108v479h178l85 -318q6 -23 9.5 -44t6.5 -43h2q2 22 5 43t8 43l86 319h178v-479h-112z" />
    <glyph glyph-name="uni043D" unicode="&#x43d;" horiz-adv-x="510"
d="M333 0v187h-155v-187h-118v479h118v-192h155v192h117v-479h-117z" />
    <glyph glyph-name="uni043E" unicode="&#x43e;" horiz-adv-x="512"
d="M472 239q0 -128 -51.5 -188t-164.5 -60q-112 0 -164 60.5t-52 188.5t51.5 187.5t164.5 59.5t164.5 -59.5t51.5 -188.5zM348 239q0 46 -5.5 74.5t-17 45t-29 22.5t-40.5 6t-40.5 -6t-29 -22t-17 -45t-5.5 -74q0 -46 5.5 -74.5t17 -45t29 -22.5t40.5 -6q24 0 41 6t28.5 22
t17 45t5.5 74z" />
    <glyph glyph-name="uni043F" unicode="&#x43f;" horiz-adv-x="510"
d="M333 0v379h-155v-379h-118v479h390v-479h-117z" />
    <glyph glyph-name="uni0440" unicode="&#x440;" horiz-adv-x="504"
d="M291 -9q-37 0 -65 10.5t-48 22.5v-256h-118v711h96l9 -30q25 17 56.5 28t71.5 11q48 0 80.5 -16t52.5 -47.5t29 -77t9 -103.5q0 -53 -9 -99t-29 -80t-53 -54t-82 -20zM343 244q0 45 -4 72.5t-13 43.5t-22 21.5t-31 5.5q-27 0 -51.5 -9.5t-43.5 -20.5v-235
q16 -11 40 -20.5t56 -9.5q37 0 53 34t16 118z" />
    <glyph glyph-name="uni0441" unicode="&#x441;" horiz-adv-x="408"
d="M378 3q-15 -2 -31.5 -4.5t-33 -4t-31.5 -2.5t-26 -1q-112 0 -164 58.5t-52 186.5t52 189.5t164 61.5q26 0 59.5 -3.5t62.5 -7.5l-7 -102q-33 6 -61.5 9.5t-53.5 3.5q-23 0 -40.5 -6t-29 -22.5t-17 -45t-5.5 -74.5q0 -45 5.5 -74t17 -45t29 -22t40.5 -6q25 0 52.5 3.5
t62.5 9.5z" />
    <glyph glyph-name="uni0442" unicode="&#x442;" horiz-adv-x="438"
d="M420 379h-143v-379h-118v379h-141v100h402v-100z" />
    <glyph glyph-name="uni0443" unicode="&#x443;" horiz-adv-x="476"
d="M18 479h124l85 -274q1 -5 3.5 -16.5t5.5 -25t5 -27t4 -22.5q1 9 3 22t4.5 26.5t5 25t4.5 17.5l76 274h120l-168 -544q-15 -47 -31 -80t-36 -53.5t-45 -30t-58 -9.5q-25 0 -54 2.5t-47 7.5l9 99q14 -3 32 -5t37 -2q16 0 27 3t20 12.5t17.5 26.5t17.5 44l10 40z" />
    <glyph glyph-name="uni0444" unicode="&#x444;" horiz-adv-x="719"
d="M301 -232v244q-19 -11 -44.5 -21.5t-58.5 -10.5q-46 0 -77 19.5t-50 54t-27.5 80.5t-8.5 99t8.5 99.5t27.5 81t50 54t77 19.5q33 0 58.5 -10.5t44.5 -22.5v266h118v-265q19 11 44 21.5t58 10.5q46 0 77 -19.5t50 -54t27.5 -81t8.5 -99.5t-8.5 -99t-27.5 -80.5t-50 -54
t-77 -19.5q-33 0 -58 10t-44 21v-243h-118zM215 81q29 0 50.5 9t35.5 20v247q-14 11 -35.5 20t-50.5 9q-32 0 -45.5 -34t-13.5 -118q0 -85 13.5 -119t45.5 -34zM504 386q-29 0 -50 -9t-35 -20v-248q14 -11 35 -19.5t50 -8.5q32 0 45.5 34t13.5 119q0 84 -14 118t-45 34z" />
    <glyph glyph-name="uni0445" unicode="&#x445;" horiz-adv-x="474"
d="M306 240l143 -240h-129l-84 158l-82 -158h-130l144 240l-134 239h128l74 -152l78 152h125z" />
    <glyph glyph-name="uni0446" unicode="&#x446;" horiz-adv-x="528"
d="M177 479v-379h155v379h118v-381h87v-207h-112v109h-365v479h117z" />
    <glyph glyph-name="uni0447" unicode="&#x447;" horiz-adv-x="520"
d="M342 0v151h-2q-24 -8 -58 -12.5t-68 -4.5t-64 8.5t-52 26.5t-35 45.5t-13 65.5v199h118v-181q0 -24 8 -37t20.5 -19.5t27 -7.5t27.5 -1q29 0 53 6.5t38 13.5v226h118v-479h-118z" />
    <glyph glyph-name="uni0448" unicode="&#x448;" horiz-adv-x="666"
d="M389 479v-379h101v379h116v-479h-546v479h117v-379h96v379h116z" />
    <glyph glyph-name="uni0449" unicode="&#x449;" horiz-adv-x="666"
d="M389 479v-379h101v379h116v-381h69v-207h-112v109h-503v479h117v-379h96v379h116z" />
    <glyph glyph-name="uni044A" unicode="&#x44a;" horiz-adv-x="553"
d="M252 320h119q77 0 117 -40t40 -120q0 -86 -43 -123t-114 -37h-237v379h-119v100h237v-159zM411 160q0 34 -15.5 48t-35.5 14h-110v-123h110q20 0 35.5 13.5t15.5 47.5z" />
    <glyph glyph-name="uni044B" unicode="&#x44b;" horiz-adv-x="689"
d="M178 479v-159h119q77 0 117 -40t40 -120q0 -86 -43 -123t-114 -37h-237v479h118zM337 160q0 34 -15.5 48t-35.5 14h-110v-123h110q20 0 35.5 13.5t15.5 47.5zM511 0v479h118v-479h-118z" />
    <glyph glyph-name="uni044C" unicode="&#x44c;" horiz-adv-x="479"
d="M178 479v-159h119q77 0 117 -40t40 -120q0 -86 -43 -123t-114 -37h-237v479h118zM337 160q0 34 -15.5 48t-35.5 14h-110v-123h110q20 0 35.5 13.5t15.5 47.5z" />
    <glyph glyph-name="uni044D" unicode="&#x44d;" horiz-adv-x="408"
d="M84 287h158q-2 30 -8.5 49.5t-17.5 31t-28.5 15.5t-41.5 4q-20 0 -48 -2.5t-61 -10.5l-7 102q29 4 62.5 7.5t59.5 3.5q112 0 164 -61.5t52 -189.5t-52 -186.5t-164 -58.5q-11 0 -26 0.5t-31.5 2t-33 4t-31.5 5.5l7 102q35 -8 62 -10.5t48 -2.5q24 0 41 4t28 14.5t17 29
t9 47.5h-158v100z" />
    <glyph glyph-name="uni044E" unicode="&#x44e;" horiz-adv-x="666"
d="M626 239q0 -128 -46.5 -188t-149.5 -60q-91 0 -136.5 47.5t-53.5 148.5h-62v-187h-118v479h118v-192h61q8 103 53 151.5t138 48.5q103 0 149.5 -59.5t46.5 -188.5zM502 239q0 46 -4.5 74.5t-13.5 45t-22.5 22.5t-31.5 6t-31.5 -6t-22.5 -22t-13.5 -45t-4.5 -74
q0 -46 4.5 -74.5t13.5 -45t22.5 -22.5t31.5 -6t31.5 6t22.5 22t13.5 45t4.5 74z" />
    <glyph glyph-name="uni044F" unicode="&#x44f;" horiz-adv-x="493"
d="M30 0q22 47 45 93t45 93q-21 9 -35.5 24.5t-24 35t-13.5 41.5t-4 43q0 70 35.5 109.5t111.5 39.5h243v-479h-116v173h-80l-80 -173h-127zM161 329q0 -30 14.5 -42.5t37.5 -12.5h104v110h-108q-22 0 -35 -13t-13 -42z" />
    <glyph glyph-name="uni0450" unicode="&#x450;" horiz-adv-x="460"
d="M423 212h-262q0 -69 26 -95t70 -26q21 0 38 1.5t33 4t33.5 6.5t40.5 9l6 -103q-42 -9 -77.5 -13.5t-74.5 -4.5q-112 0 -164 59t-52 187q0 127 47 188.5t157 61.5q55 0 90 -15.5t55 -43.5t27 -66t7 -84v-66zM309 295q0 18 -2 36t-8.5 32.5t-19.5 23t-36 8.5q-42 0 -58 -25
t-20 -75h144zM79 706h122l83 -156h-83z" />
    <glyph glyph-name="uni0451" unicode="&#x451;" horiz-adv-x="460"
d="M423 212h-262q0 -69 26 -95t70 -26q21 0 38 1.5t33 4t33.5 6.5t40.5 9l6 -103q-42 -9 -77.5 -13.5t-74.5 -4.5q-112 0 -164 59t-52 187q0 127 47 188.5t157 61.5q55 0 90 -15.5t55 -43.5t27 -66t7 -84v-66zM309 295q0 18 -2 36t-8.5 32.5t-19.5 23t-36 8.5q-42 0 -58 -25
t-20 -75h144zM273 569v110h110v-110h-110zM82 569v110h109v-110h-109z" />
    <glyph glyph-name="uni0452" unicode="&#x452;" horiz-adv-x="501"
d="M446 -61q0 -51 -7.5 -85t-24.5 -54t-43.5 -28.5t-65.5 -8.5q-22 0 -47.5 2t-48.5 7l6 108q17 -4 35.5 -6.5t36.5 -2.5q28 0 34.5 17t6.5 47v409q0 23 -11.5 33t-29.5 10q-29 0 -59.5 -9.5t-48.5 -21.5v-356h-118v547h-73v92h73v81h118v-81h140v-92h-140v-93
q28 14 60 23.5t73 9.5q25 0 49.5 -6.5t43 -22t30 -42.5t11.5 -67v-410z" />
    <glyph glyph-name="uni0453" unicode="&#x453;" horiz-adv-x="408"
d="M385 479v-100h-207v-379h-118v479h325zM248 550h-83l83 156h122z" />
    <glyph glyph-name="uni0454" unicode="&#x454;" horiz-adv-x="408"
d="M306 187h-158q3 -29 9 -47.5t17 -29t28 -14.5t41 -4q21 0 48 2.5t62 10.5l7 -102q-15 -3 -31.5 -5.5t-33 -4t-31.5 -2t-26 -0.5q-112 0 -164 58.5t-52 186.5t52 189.5t164 61.5q26 0 59.5 -3.5t62.5 -7.5l-7 -102q-33 8 -61 10.5t-48 2.5q-24 0 -41.5 -4t-28.5 -15.5
t-17.5 -31t-8.5 -49.5h158v-100z" />
    <glyph glyph-name="uni0455" unicode="&#x455;" horiz-adv-x="402"
d="M372 133q0 -36 -14.5 -63t-39 -44.5t-56 -26t-64.5 -8.5q-15 0 -35 1t-41 3.5t-40.5 5.5t-32.5 6l7 100q38 -8 76 -14t62 -6q34 0 48 10.5t14 28.5q0 11 -4 17.5t-10 12.5q-13 13 -34.5 24t-46 23t-48.5 25t-40 30q-17 17 -27.5 39.5t-10.5 56.5q0 37 16 62t41.5 41
t57 23t61.5 7q28 0 63 -3.5t68 -10.5l-8 -98q-33 7 -68 11t-60 4q-26 0 -39.5 -10t-13.5 -26q0 -10 3 -15.5t10 -12.5q10 -11 32 -22.5t47.5 -24.5t50 -27.5t39.5 -29.5t26 -37t11 -52z" />
    <glyph glyph-name="uni0456" unicode="&#x456;" horiz-adv-x="246"
d="M64 0v479h118v-479h-118zM63 561v128h120v-128h-120z" />
    <glyph glyph-name="uni0457" unicode="&#x457;" horiz-adv-x="246"
d="M64 0v479h118v-479h-118zM163 569v110h110v-110h-110zM-28 569v110h109v-110h-109z" />
    <glyph glyph-name="uni0458" unicode="&#x458;" horiz-adv-x="248"
d="M183 -61q0 -51 -7.5 -85t-24.5 -54t-43.5 -28.5t-65.5 -8.5q-22 0 -47.5 2t-48.5 7l6 108q17 -4 35.5 -6.5t36.5 -2.5q28 0 34.5 17t6.5 47v544h118v-540zM64 561v128h120v-128h-120z" />
    <glyph glyph-name="uni0459" unicode="&#x459;" horiz-adv-x="754"
d="M63 117q14 14 23 43.5t14 67t6.5 80t1.5 81.5v90h346v-159h119q77 0 117 -40t40 -120q0 -86 -43 -123t-114 -37h-237v380h-108q0 -41 -2.5 -89.5t-10 -94.5t-21 -85.5t-37.5 -63.5q-51 -51 -134 -51h-11v102q35 3 51 19zM613 160q0 34 -15.5 48t-35.5 14h-108v-123h108
q20 0 35.5 13.5t15.5 47.5z" />
    <glyph glyph-name="uni045A" unicode="&#x45a;" horiz-adv-x="752"
d="M451 479v-159h119q77 0 117 -40t40 -120q0 -86 -43 -123t-114 -37h-237v187h-155v-187h-118v479h118v-192h155v192h118zM610 160q0 34 -15.5 48t-35.5 14h-109v-123h109q20 0 35.5 13.5t15.5 47.5z" />
    <glyph glyph-name="uni045B" unicode="&#x45b;" horiz-adv-x="505"
d="M-12 639h77v81h118v-81h136v-92h-136v-93q28 14 60 23.5t73 9.5q25 0 49.5 -6.5t43 -22t30 -42.5t11.5 -67v-349h-118v344q0 23 -11.5 33t-29.5 10q-29 0 -59.5 -9.5t-48.5 -21.5v-356h-118v547h-77v92z" />
    <glyph glyph-name="uni045C" unicode="&#x45c;" horiz-adv-x="465"
d="M340 0l-111 220l-45 -49v-171h-118v479h118v-196q4 12 16 32.5t23 34.5l95 129h132l-144 -180l162 -299h-128zM274 550h-83l83 156h122z" />
    <glyph glyph-name="uni045D" unicode="&#x45d;" horiz-adv-x="520"
d="M195 0h-135v479h104l-4 -277q0 -20 -1 -40.5t-3 -46.5h2q7 22 14.5 44t17.5 44l127 276h143v-479l-105 -1l4 274q0 23 1 45.5t3 45.5h-2q-7 -23 -14.5 -46t-17.5 -43zM123 706h122l83 -156h-83z" />
    <glyph glyph-name="uni045E" unicode="&#x45e;" horiz-adv-x="476"
d="M18 479h124l85 -274q1 -5 3.5 -16.5t5.5 -25t5 -27t4 -22.5q1 9 3 22t4.5 26.5t5 25t4.5 17.5l76 274h120l-168 -544q-15 -47 -31 -80t-36 -53.5t-45 -30t-58 -9.5q-25 0 -54 2.5t-47 7.5l9 99q14 -3 32 -5t37 -2q16 0 27 3t20 12.5t17.5 26.5t17.5 44l10 40zM397 694
q-17 -76 -53.5 -110t-100.5 -34q-65 0 -101 34t-54 110h86q3 -12 7 -23.5t12 -20.5t20.5 -14t30.5 -5q37 0 49 19t17 44h87z" />
    <glyph glyph-name="uni045F" unicode="&#x45f;" horiz-adv-x="510"
d="M177 479v-379h155v379h118v-479h-137v-109h-112v109h-141v479h117z" />
    <glyph glyph-name="uni0490" unicode="&#x490;" horiz-adv-x="482"
d="M346 798h120v-219h-267v-579h-124v689h271v109z" />
    <glyph glyph-name="uni0491" unicode="&#x491;" horiz-adv-x="408"
d="M273 588h112v-209h-207v-379h-118v479h213v109z" />
    <glyph glyph-name="Ddotbelow" unicode="&#x1e0c;" horiz-adv-x="608"
d="M558 344q0 -96 -16.5 -172.5t-60.5 -118.5q-21 -19 -40 -29.5t-40.5 -16t-47 -6.5t-59.5 -1h-219v689h219q34 0 59.5 -1t47.5 -6.5t41 -16t39 -29.5q44 -42 60.5 -119t16.5 -173zM428 346q0 83 -8.5 133t-30.5 73q-17 17 -42.5 20.5t-73.5 3.5h-73v-463h73q46 0 73 4
t41 18q23 23 32 75t9 136zM233 -185v115h112v-115h-112z" />
    <glyph glyph-name="ddotbelow" unicode="&#x1e0d;" horiz-adv-x="504"
d="M213 487q37 0 65 -10.5t48 -22.5v266h118v-720h-96l-9 30q-25 -17 -56.5 -28.5t-71.5 -11.5q-48 0 -80.5 16t-52.5 47.5t-29 76.5t-9 104q0 53 8.5 99t29 80.5t53.5 54t82 19.5zM161 234q0 -45 4 -72.5t13 -43.5t22 -21.5t31 -5.5q28 0 52 10t43 21v234q-16 11 -40 20.5
t-56 9.5q-37 0 -53 -34t-16 -118zM217 -185v115h112v-115h-112z" />
    <glyph glyph-name="Dcedilla" unicode="&#x1e10;" horiz-adv-x="608"
d="M558 344q0 -96 -16.5 -172.5t-60.5 -118.5q-21 -19 -40 -29.5t-40.5 -16t-47 -6.5t-59.5 -1h-219v689h219q34 0 59.5 -1t47.5 -6.5t41 -16t39 -29.5q44 -42 60.5 -119t16.5 -173zM428 346q0 83 -8.5 133t-30.5 73q-17 17 -42.5 20.5t-73.5 3.5h-73v-463h73q46 0 73 4
t41 18q23 23 32 75t9 136zM307 -122q0 9 -8 14t-19.5 7.5t-24.5 3.5t-23 1l12 58q65 0 103.5 -21t38.5 -65q0 -35 -27 -57.5t-81 -22.5q-17 0 -38.5 2t-40.5 7l2 60q1 0 3.5 -0.5t4.5 -0.5q9 -2 23.5 -4.5t29.5 -2.5q20 0 32.5 4.5t12.5 16.5z" />
    <glyph glyph-name="dcedilla" unicode="&#x1e11;" horiz-adv-x="504"
d="M213 487q37 0 65 -10.5t48 -22.5v266h118v-720h-96l-9 30q-25 -17 -56.5 -28.5t-71.5 -11.5q-48 0 -80.5 16t-52.5 47.5t-29 76.5t-9 104q0 53 8.5 99t29 80.5t53.5 54t82 19.5zM161 234q0 -45 4 -72.5t13 -43.5t22 -21.5t31 -5.5q28 0 52 10t43 21v234q-16 11 -40 20.5
t-56 9.5q-37 0 -53 -34t-16 -118zM293 -122q0 9 -8 14t-19.5 7.5t-24.5 3.5t-23 1l12 58q65 0 103.5 -21t38.5 -65q0 -35 -27 -57.5t-81 -22.5q-17 0 -38.5 2t-40.5 7l2 60q1 0 3.5 -0.5t4.5 -0.5q9 -2 23.5 -4.5t29.5 -2.5q20 0 32.5 4.5t12.5 16.5z" />
    <glyph glyph-name="Hdotbelow" unicode="&#x1e24;" horiz-adv-x="643"
d="M444 0v299h-245v-299h-124v689h124v-280h245v280h123v-689h-123zM264 -185v115h112v-115h-112z" />
    <glyph glyph-name="hdotbelow" unicode="&#x1e25;" horiz-adv-x="500"
d="M445 0h-118v344q0 23 -11.5 33t-29.5 10q-29 0 -59.5 -9.5t-48.5 -21.5v-356h-118v720h118v-266q28 14 60 23.5t73 9.5q25 0 49.5 -6.5t43 -22t30 -42.5t11.5 -67v-349zM198 -185v115h112v-115h-112z" />
    <glyph glyph-name="Ldotbelow" unicode="&#x1e36;" horiz-adv-x="489"
d="M75 0v689h124v-579h267v-110h-391zM228 -185v115h112v-115h-112z" />
    <glyph glyph-name="ldotbelow" unicode="&#x1e37;" horiz-adv-x="238"
d="M60 0v720h118v-720h-118zM61 -185v115h112v-115h-112z" />
    <glyph glyph-name="Ldotbelowmacron" unicode="&#x1e38;" horiz-adv-x="489"
d="M75 0v689h124v-579h267v-110h-391zM296 778h-317v89h317v-89zM228 -185v115h112v-115h-112z" />
    <glyph glyph-name="ldotbelowmacron" unicode="&#x1e39;" horiz-adv-x="238"
d="M60 0v720h118v-720h-118zM278 808h-317v89h317v-89zM62 -185v115h112v-115h-112z" />
    <glyph glyph-name="Mdotbelow" unicode="&#x1e42;" horiz-adv-x="855"
d="M659 0v484l6 125q-5 -31 -13 -62t-17 -63l-139 -484h-140l-140 487q-4 14 -10.5 41t-18.5 81l6 -125v-484h-118v689h188l143 -495q6 -22 11.5 -50t7.5 -57q3 29 8 57t11 50l141 495h195v-689h-121zM372 -185v115h112v-115h-112z" />
    <glyph glyph-name="mdotbelow" unicode="&#x1e43;" horiz-adv-x="745"
d="M156 479l8 -32q29 16 62.5 28t78.5 12q29 0 56.5 -9t45.5 -34q32 17 69 30t85 13q25 0 48 -6.5t41 -22t29 -42.5t11 -67v-349h-118v344q0 23 -10.5 33t-27.5 10q-28 0 -55.5 -9.5t-44.5 -21.5v-356h-118v344q0 23 -10.5 33t-27.5 10q-27 0 -55 -9.5t-45 -21.5v-356h-118
v479h96zM318 -185v115h112v-115h-112z" />
    <glyph glyph-name="Ndotaccent" unicode="&#x1e44;" horiz-adv-x="676"
d="M446 235q8 -17 15 -40t15 -44l15 -49l-4 51q-2 20 -3 41.5t-1 35.5v459h118v-689h-168l-206 464q-7 16 -14 36.5t-14 40.5l-14 46l4 -49q2 -20 3 -41t1 -34v-463h-118v689h168zM271 756v115h112v-115h-112z" />
    <glyph glyph-name="ndotaccent" unicode="&#x1e45;" horiz-adv-x="500"
d="M445 0h-118v344q0 23 -11.5 33t-29.5 10q-29 0 -59.5 -9.5t-48.5 -21.5v-356h-118v479h96l8 -32q29 16 65 28t82 12q25 0 49.5 -6.5t43 -22t30 -42.5t11.5 -67v-349zM203 561v115h112v-115h-112z" />
    <glyph glyph-name="Ndotbelow" unicode="&#x1e46;" horiz-adv-x="676"
d="M446 235q8 -17 15 -40t15 -44l15 -49l-4 51q-2 20 -3 41.5t-1 35.5v459h118v-689h-168l-206 464q-7 16 -14 36.5t-14 40.5l-14 46l4 -49q2 -20 3 -41t1 -34v-463h-118v689h168zM280 -185v115h112v-115h-112z" />
    <glyph glyph-name="ndotbelow" unicode="&#x1e47;" horiz-adv-x="500"
d="M445 0h-118v344q0 23 -11.5 33t-29.5 10q-29 0 -59.5 -9.5t-48.5 -21.5v-356h-118v479h96l8 -32q29 16 65 28t82 12q25 0 49.5 -6.5t43 -22t30 -42.5t11.5 -67v-349zM197 -185v115h112v-115h-112z" />
    <glyph glyph-name="Rdotbelow" unicode="&#x1e5a;" horiz-adv-x="551"
d="M387 0l-109 271h-80v-271h-123v689h250q54 0 91 -16t59 -43.5t31.5 -64.5t9.5 -79q0 -87 -29 -137t-85 -67l120 -282h-135zM386 483q0 48 -14.5 72t-59.5 24h-114v-198h115q46 0 59.5 26.5t13.5 75.5zM239 -185v115h112v-115h-112z" />
    <glyph glyph-name="rdotbelow" unicode="&#x1e5b;" horiz-adv-x="349"
d="M268 487q18 0 35 -2.5t31 -5.5l-5 -113q-39 12 -72 12q-25 0 -45 -10t-34 -23v-345h-118v479h96l11 -48q17 24 41.5 40t59.5 16zM63 -185v115h112v-115h-112z" />
    <glyph glyph-name="Rdotbelowmacron" unicode="&#x1e5c;" horiz-adv-x="551"
d="M387 0l-109 271h-80v-271h-123v689h250q54 0 91 -16t59 -43.5t31.5 -64.5t9.5 -79q0 -87 -29 -137t-85 -67l120 -282h-135zM386 483q0 48 -14.5 72t-59.5 24h-114v-198h115q46 0 59.5 26.5t13.5 75.5zM429 778h-317v89h317v-89zM239 -185v115h112v-115h-112z" />
    <glyph glyph-name="rdotbelowmacron" unicode="&#x1e5d;" horiz-adv-x="349"
d="M268 487q18 0 35 -2.5t31 -5.5l-5 -113q-39 12 -72 12q-25 0 -45 -10t-34 -23v-345h-118v479h96l11 -48q17 24 41.5 40t59.5 16zM351 583h-317v89h317v-89zM63 -185v115h112v-115h-112z" />
    <glyph glyph-name="Sdotbelow" unicode="&#x1e62;" horiz-adv-x="493"
d="M458 180q0 -86 -61 -138t-173 -52q-29 0 -78.5 4t-98.5 14l8 113q48 -10 93 -15t77 -5q60 0 84 22t24 56q0 17 -7 31t-21 28q-20 20 -47 36.5t-56 33t-57.5 34.5t-51.5 41t-39.5 55t-16.5 85q0 78 54.5 127t162.5 49q46 0 85.5 -4t81.5 -11l-7 -112q-48 10 -85 14.5
t-75 4.5q-47 0 -69 -18.5t-22 -50.5q0 -29 21 -50q16 -16 44 -34t59.5 -38t63 -41.5t54.5 -44.5q53 -53 53 -134zM194 -185v115h112v-115h-112z" />
    <glyph glyph-name="sdotbelow" unicode="&#x1e63;" horiz-adv-x="402"
d="M372 133q0 -36 -14.5 -63t-39 -44.5t-56 -26t-64.5 -8.5q-15 0 -35 1t-41 3.5t-40.5 5.5t-32.5 6l7 100q38 -8 76 -14t62 -6q34 0 48 10.5t14 28.5q0 11 -4 17.5t-10 12.5q-13 13 -34.5 24t-46 23t-48.5 25t-40 30q-17 17 -27.5 39.5t-10.5 56.5q0 37 16 62t41.5 41
t57 23t61.5 7q28 0 63 -3.5t68 -10.5l-8 -98q-33 7 -68 11t-60 4q-26 0 -39.5 -10t-13.5 -26q0 -10 3 -15.5t10 -12.5q10 -11 32 -22.5t47.5 -24.5t50 -27.5t39.5 -29.5t26 -37t11 -52zM147 -185v115h112v-115h-112z" />
    <glyph glyph-name="Tdotbelow" unicode="&#x1e6c;" horiz-adv-x="490"
d="M307 579v-579h-123v579h-168v110h458v-110h-167zM191 -185v115h112v-115h-112z" />
    <glyph glyph-name="tdotbelow" unicode="&#x1e6d;" horiz-adv-x="370"
d="M210 379v-238q0 -23 5.5 -34.5t30.5 -11.5q9 0 22 1t26 2.5t25 3.5t21 4l4 -101q-31 -7 -64.5 -10t-64.5 -3q-64 0 -93.5 28.5t-29.5 81.5v277h-72v92l72 5v141h118v-138h131v-100h-131zM157 -185v115h112v-115h-112z" />
    <glyph glyph-name="Wgrave" unicode="&#x1e80;" horiz-adv-x="856"
d="M17 689h121l85 -449q3 -15 5.5 -40.5t4.5 -49.5l5 -58l6 59q2 25 5.5 49.5t6.5 39.5l89 449h163l92 -449q3 -15 5.5 -40t4.5 -49l5 -58l2 30t3 29q3 25 6 49.5t6 39.5l85 448h122l-143 -689h-153l-99 489q-3 14 -6 36.5t-6 42.5q-2 13 -2.5 24t-1.5 24l-5 -48
q-3 -20 -5.5 -41t-5.5 -36l-98 -491h-153zM264 901h122l83 -156h-83z" />
    <glyph glyph-name="wgrave" unicode="&#x1e81;" horiz-adv-x="704"
d="M413 479l68 -297q2 -9 4 -23t4 -28.5t3.5 -27t1.5 -18.5q1 6 2.5 18.5t3 27t4 28.5t4.5 23l65 297h116l-122 -479h-136l-67 297q-2 5 -3.5 15t-3 21.5t-3 24t-2.5 22.5q-1 -10 -2.5 -22.5t-3 -24.5t-3.5 -21.5t-3 -14.5l-68 -297h-135l-122 479h116l65 -297q2 -9 4 -23
t4 -28.5t3.5 -27t2.5 -18.5q0 6 1.5 18.5t3.5 27t4 28.5t4 23l68 297h122zM186 708h122l83 -156h-83z" />
    <glyph glyph-name="Wacute" unicode="&#x1e82;" horiz-adv-x="856"
d="M17 689h121l85 -449q3 -15 5.5 -40.5t4.5 -49.5l5 -58l6 59q2 25 5.5 49.5t6.5 39.5l89 449h163l92 -449q3 -15 5.5 -40t4.5 -49l5 -58l2 30t3 29q3 25 6 49.5t6 39.5l85 448h122l-143 -689h-153l-99 489q-3 14 -6 36.5t-6 42.5q-2 13 -2.5 24t-1.5 24l-5 -48
q-3 -20 -5.5 -41t-5.5 -36l-98 -491h-153zM472 745h-83l83 156h122z" />
    <glyph glyph-name="wacute" unicode="&#x1e83;" horiz-adv-x="704"
d="M413 479l68 -297q2 -9 4 -23t4 -28.5t3.5 -27t1.5 -18.5q1 6 2.5 18.5t3 27t4 28.5t4.5 23l65 297h116l-122 -479h-136l-67 297q-2 5 -3.5 15t-3 21.5t-3 24t-2.5 22.5q-1 -10 -2.5 -22.5t-3 -24.5t-3.5 -21.5t-3 -14.5l-68 -297h-135l-122 479h116l65 -297q2 -9 4 -23
t4 -28.5t3.5 -27t2.5 -18.5q0 6 1.5 18.5t3.5 27t4 28.5t4 23l68 297h122zM400 550h-83l83 156h122z" />
    <glyph glyph-name="Wdieresis" unicode="&#x1e84;" horiz-adv-x="856"
d="M17 689h121l85 -449q3 -15 5.5 -40.5t4.5 -49.5l5 -58l6 59q2 25 5.5 49.5t6.5 39.5l89 449h163l92 -449q3 -15 5.5 -40t4.5 -49l5 -58l2 30t3 29q3 25 6 49.5t6 39.5l85 448h122l-143 -689h-153l-99 489q-3 14 -6 36.5t-6 42.5q-2 13 -2.5 24t-1.5 24l-5 -48
q-3 -20 -5.5 -41t-5.5 -36l-98 -491h-153zM469 764v110h110v-110h-110zM278 764v110h109v-110h-109z" />
    <glyph glyph-name="wdieresis" unicode="&#x1e85;" horiz-adv-x="704"
d="M413 479l68 -297q2 -9 4 -23t4 -28.5t3.5 -27t1.5 -18.5q1 6 2.5 18.5t3 27t4 28.5t4.5 23l65 297h116l-122 -479h-136l-67 297q-2 5 -3.5 15t-3 21.5t-3 24t-2.5 22.5q-1 -10 -2.5 -22.5t-3 -24.5t-3.5 -21.5t-3 -14.5l-68 -297h-135l-122 479h116l65 -297q2 -9 4 -23
t4 -28.5t3.5 -27t2.5 -18.5q0 6 1.5 18.5t3.5 27t4 28.5t4 23l68 297h122zM393 569v110h110v-110h-110zM202 569v110h109v-110h-109z" />
    <glyph glyph-name="Zdotbelow" unicode="&#x1e92;" horiz-adv-x="510"
d="M32 0v78l289 501h-289v110h446v-73l-286 -506h286v-110h-446zM204 -185v115h112v-115h-112z" />
    <glyph glyph-name="zdotbelow" unicode="&#x1e93;" horiz-adv-x="418"
d="M383 0h-348v76l196 303h-185v100h337v-76l-196 -303h196v-100zM153 -185v115h112v-115h-112z" />
    <glyph glyph-name="Idotbelow" unicode="&#x1eca;" horiz-adv-x="275"
d="M75 0v689h124v-689h-124zM82 -185v115h112v-115h-112z" />
    <glyph glyph-name="idotbelow" unicode="&#x1ecb;" horiz-adv-x="246"
d="M66 -185v115h112v-115h-112zM64 0v479h118v-479h-118zM63 561v128h120v-128h-120z" />
    <glyph glyph-name="Odotbelow" unicode="&#x1ecc;" horiz-adv-x="639"
d="M589 344q0 -91 -12 -157.5t-43 -110t-83 -64.5t-131 -21q-80 0 -132 21t-83 64.5t-43 110t-12 157.5t12 158t43 110.5t83 64.5t132 21q79 0 131 -21.5t83 -65t43 -110t12 -157.5zM459 344q0 77 -7 124.5t-23 73.5t-43 35t-67 9t-67 -9t-43.5 -35t-23.5 -73.5t-7 -124.5
t7 -124t23.5 -72.5t43.5 -34.5t67 -9t67 9t43 34.5t23 72.5t7 124zM263 -185v115h112v-115h-112z" />
    <glyph glyph-name="odotbelow" unicode="&#x1ecd;" horiz-adv-x="512"
d="M472 239q0 -128 -51.5 -188t-164.5 -60q-112 0 -164 60.5t-52 188.5t51.5 187.5t164.5 59.5t164.5 -59.5t51.5 -188.5zM348 239q0 46 -5.5 74.5t-17 45t-29 22.5t-40.5 6t-40.5 -6t-29 -22t-17 -45t-5.5 -74q0 -46 5.5 -74.5t17 -45t29 -22.5t40.5 -6q24 0 41 6t28.5 22
t17 45t5.5 74zM200 -185v115h112v-115h-112z" />
    <glyph glyph-name="Udotbelow" unicode="&#x1ee4;" horiz-adv-x="604"
d="M542 196q0 -63 -24.5 -103.5t-60.5 -63t-78 -31t-77 -8.5t-77 8.5t-78 31t-60.5 63t-24.5 103.5v493h123v-493q0 -50 33 -72t85 -22q51 0 83.5 22t32.5 72v493h123v-493zM246 -185v115h112v-115h-112z" />
    <glyph glyph-name="udotbelow" unicode="&#x1ee5;" horiz-adv-x="500"
d="M55 479h118v-344q0 -23 11.5 -33t29.5 -10q29 0 59.5 9.5t48.5 21.5v356h118v-479h-96l-8 32q-30 -16 -65.5 -28t-81.5 -12q-26 0 -50 6.5t-42.5 22t-30 42t-11.5 67.5v349zM195 -185v115h112v-115h-112z" />
    <glyph glyph-name="Ygrave" unicode="&#x1ef2;" horiz-adv-x="558"
d="M341 271v-271h-124v272l-207 417h137l135 -291l128 291h138zM119 901h122l83 -156h-83z" />
    <glyph glyph-name="ygrave" unicode="&#x1ef3;" horiz-adv-x="476"
d="M18 479h124l85 -274q1 -5 3.5 -16.5t5.5 -25t5 -27t4 -22.5q1 9 3 22t4.5 26.5t5 25t4.5 17.5l76 274h120l-168 -544q-15 -47 -31 -80t-36 -53.5t-45 -30t-58 -9.5q-25 0 -54 2.5t-47 7.5l9 99q14 -3 32 -5t37 -2q16 0 27 3t20 12.5t17.5 26.5t17.5 44l10 40zM80 706h122
l83 -156h-83z" />
    <glyph glyph-name="Ytilde" unicode="&#x1ef8;" horiz-adv-x="558"
d="M341 271v-271h-124v272l-207 417h137l135 -291l128 291h138zM349 851q28 0 71 49l35 -81q-21 -20 -48 -37t-56 -17q-20 0 -38.5 6.5t-35 14.5t-31.5 14.5t-29 6.5q-18 0 -36.5 -15t-36.5 -35l-35 82q19 18 43.5 35.5t58.5 17.5q18 0 35 -6.5t34 -14t34 -14t35 -6.5z" />
    <glyph glyph-name="ytilde" unicode="&#x1ef9;" horiz-adv-x="476"
d="M18 479h124l85 -274q1 -5 4 -17t6 -26.5t5 -28.5t3 -22q1 8 3 21.5t4.5 28t5 26.5t4.5 18l76 274h120l-168 -544q-15 -47 -31 -80t-36 -53.5t-45 -30t-58 -9.5q-25 0 -54 2.5t-47 7.5l9 99q14 -3 32 -5t37 -2q16 0 27 3t20 12.5t17.5 26.5t17.5 44l10 40zM313 657
q28 0 71 49l35 -81q-21 -20 -48 -37t-56 -17q-20 0 -38.5 6.5t-35 14.5t-31.5 14.5t-29 6.5q-18 0 -36.5 -15t-36.5 -35l-35 82q19 18 43.5 35.5t58.5 17.5q18 0 35 -6.5t34 -14t34 -14t35 -6.5z" />
    <glyph glyph-name="endash" unicode="&#x2013;" horiz-adv-x="567"
d="M55 199v102h457v-102h-457z" />
    <glyph glyph-name="emdash" unicode="&#x2014;" horiz-adv-x="741"
d="M55 199v102h631v-102h-631z" />
    <glyph glyph-name="underscoredbl" unicode="&#x2017;"
d="M7 -231v79h512v-79h-512zM7 -120v79h512v-79h-512z" />
    <glyph glyph-name="quoteleft" unicode="&#x2018;" horiz-adv-x="261"
d="M61 493q4 41 12 71t18.5 53.5t23 42.5t24.5 37h87q-23 -50 -33 -94.5t-10 -96.5l3 -81h-127z" />
    <glyph glyph-name="quoteright" unicode="&#x2019;" horiz-adv-x="261"
d="M200 621q-4 -41 -12 -71t-18.5 -53.5t-23 -42.5t-24.5 -37h-87q23 50 33 94.5t10 96.5l-3 81h127z" />
    <glyph glyph-name="quotesinglbase" unicode="&#x201a;" horiz-adv-x="261"
d="M200 76q-4 -41 -12 -71t-18.5 -53.5t-23 -42.5t-24.5 -37h-87q23 50 33 94.5t10 96.5l-3 81h127z" />
    <glyph glyph-name="quotedblleft" unicode="&#x201c;" horiz-adv-x="466"
d="M61 493q4 41 12 71t18.5 53.5t23 42.5t24.5 37h87q-23 -50 -33 -94.5t-10 -96.5l3 -81h-127zM266 493q4 41 12 71t18.5 53.5t23 42.5t24.5 37h87q-23 -50 -33 -94.5t-10 -96.5l3 -81h-127z" />
    <glyph glyph-name="quotedblright" unicode="&#x201d;" horiz-adv-x="466"
d="M200 621q-4 -41 -12 -71t-18.5 -53.5t-23 -42.5t-24.5 -37h-87q23 50 33 94.5t10 96.5l-3 81h127zM405 621q-4 -41 -12 -71t-18.5 -53.5t-23 -42.5t-24.5 -37h-87q23 50 33 94.5t10 96.5l-3 81h127z" />
    <glyph glyph-name="quotedblbase" unicode="&#x201e;" horiz-adv-x="466"
d="M200 76q-4 -41 -12 -71t-18.5 -53.5t-23 -42.5t-24.5 -37h-87q23 50 33 94.5t10 96.5l-3 81h127zM405 76q-4 -41 -12 -71t-18.5 -53.5t-23 -42.5t-24.5 -37h-87q23 50 33 94.5t10 96.5l-3 81h127z" />
    <glyph glyph-name="dagger" unicode="&#x2020;" horiz-adv-x="521"
d="M309 421v-452h-99v452h-168v100h168v168h99v-168h170v-100h-170z" />
    <glyph glyph-name="daggerdbl" unicode="&#x2021;" horiz-adv-x="521"
d="M309 421v-151h170v-100h-170v-201h-99v201h-168v100h168v151h-168v100h168v168h99v-168h170v-100h-170z" />
    <glyph glyph-name="bullet" unicode="&#x2022;" horiz-adv-x="300"
d="M242 312q0 -19 -7 -36t-19.5 -29.5t-29.5 -19.5t-36 -7t-35.5 7t-29 19.5t-20 29.5t-7.5 36q0 38 27 65t65 27q19 0 36 -7.5t29.5 -20t19.5 -29t7 -35.5z" />
    <glyph glyph-name="ellipsis" unicode="&#x2026;" horiz-adv-x="1225"
d="M916 0v143h139v-143h-139zM543 0v143h139v-143h-139zM170 0v143h139v-143h-139z" />
    <glyph glyph-name="perthousand" unicode="&#x2030;" horiz-adv-x="943"
d="M288 543q0 -81 -29 -116t-98 -35t-98 35t-29 116t29 116t98 35t98 -35t29 -116zM214 0h-82l294 689h82zM201 543q0 31 -2 49t-6.5 27t-12.5 11t-19 2t-19 -2t-12.5 -11t-6.5 -27t-2 -49q0 -32 2 -49.5t6.5 -26t12.5 -10.5t19 -2t19 2t12.5 10.5t6.5 26t2 49.5zM605 146
q0 -81 -29 -116t-98 -35t-98 35t-29 116t29 116t98 35t98 -35t29 -116zM518 146q0 31 -2 49t-6.5 27t-12.5 11t-19 2t-19 -2t-12.5 -11t-6.5 -27t-2 -49q0 -32 2 -49.5t6.5 -26t12.5 -10.5t19 -2t19 2t12.5 10.5t6.5 26t2 49.5zM909 146q0 -81 -29 -116t-98 -35t-98 35
t-29 116t29 116t98 35t98 -35t29 -116zM822 146q0 31 -2 49t-6.5 27t-12.5 11t-19 2t-19 -2t-12.5 -11t-6.5 -27t-2 -49q0 -32 2 -49.5t6.5 -26t12.5 -10.5t19 -2t19 2t12.5 10.5t6.5 26t2 49.5z" />
    <glyph glyph-name="guilsinglleft" unicode="&#x2039;" horiz-adv-x="364"
d="M152 229l164 -188h-125l-154 181v14l162 181h124z" />
    <glyph glyph-name="guilsinglright" unicode="&#x203a;" horiz-adv-x="364"
d="M23 417h124l162 -181v-14l-154 -181h-125l164 188z" />
    <glyph glyph-name="exclamdbl" unicode="&#x203c;" horiz-adv-x="609"
d="M226 209h-100l-15 480h131zM110 0v136h135v-136h-135zM480 209h-100l-15 480h131zM364 0v136h135v-136h-135z" />
    <glyph glyph-name="fraction" unicode="&#x2044;" horiz-adv-x="141"
d="M-88 0h-81l397 689h82z" />
    <glyph glyph-name="uni2070" unicode="&#x2070;" horiz-adv-x="328"
d="M29 505q0 52 6.5 88t22 58.5t42 32.5t65.5 10q38 0 63.5 -10t41 -32.5t22 -58.5t6.5 -88t-6.5 -87.5t-22 -58t-41 -32.5t-63.5 -10q-39 0 -65 10t-42 32.5t-22.5 58t-6.5 87.5zM211 505q0 35 -1.5 57t-6.5 35t-14 17.5t-24 4.5q-16 0 -25.5 -4.5t-14.5 -17.5t-6.5 -35
t-1.5 -57q0 -34 1.5 -56.5t6.5 -35.5t14.5 -18t25.5 -5q15 0 24 5t14 18t6.5 35.5t1.5 56.5z" />
    <glyph glyph-name="uni2074" unicode="&#x2074;" horiz-adv-x="327"
d="M261 411v-88h-87v88h-144l-2 65l96 218h83l-68 -165l-10 -22.5t-14 -27.5h63l13 99h70v-97h54v-70h-54z" />
    <glyph glyph-name="uni2075" unicode="&#x2075;" horiz-adv-x="284"
d="M173 434q0 25 -15 33.5t-39 8.5h-81v213h207v-70h-128v-68h11q28 0 52.5 -5.5t41.5 -18.5t27 -34t10 -52q0 -35 -12 -59t-32.5 -38.5t-48 -20.5t-58.5 -6q-17 0 -38.5 1t-36.5 4l2 70q17 -3 38 -4t37 -1q27 0 45 10t18 37z" />
    <glyph glyph-name="uni2076" unicode="&#x2076;" horiz-adv-x="312"
d="M290 441q0 -66 -34.5 -95t-91.5 -29q-37 0 -63 14.5t-42 40t-23 59.5t-7 73q0 43 7.5 78t27 60t52.5 38.5t85 13.5q12 0 27.5 -1t32.5 -3l-3 -71q-15 2 -30 3.5t-28 1.5q-42 0 -61 -20t-21 -63q12 5 29 8t28 3q24 0 45 -6t36.5 -19t24.5 -34.5t9 -51.5zM207 436
q0 25 -10.5 35.5t-30.5 10.5q-9 0 -24.5 -5.5t-23.5 -9.5q1 -13 3.5 -27t7.5 -26t14 -19.5t22 -7.5q20 0 31 11t11 38z" />
    <glyph glyph-name="uni2077" unicode="&#x2077;" horiz-adv-x="267"
d="M138 323h-88l95 261q3 8 7 17t9 18h-144v70h235l2 -53z" />
    <glyph glyph-name="uni2078" unicode="&#x2078;" horiz-adv-x="323"
d="M161 695q25 0 46.5 -5t38 -16.5t26 -30t9.5 -46.5t-11.5 -49t-29.5 -33q20 -14 36.5 -36.5t16.5 -55.5q0 -60 -36.5 -83.5t-95.5 -23.5q-58 0 -95 23.5t-37 83.5q0 32 16 55t38 36q-17 13 -29.5 35t-12.5 48q0 28 9.5 46.5t25.5 30t38 16.5t47 5zM161 630q-20 0 -31 -9.5
t-11 -32.5q0 -15 9.5 -27.5t32.5 -12.5t32.5 12.5t9.5 27.5q0 23 -11.5 32.5t-30.5 9.5zM161 381q23 0 35.5 10.5t12.5 37.5q0 20 -11.5 33t-36.5 13t-36 -13t-11 -33q0 -27 12.5 -37.5t34.5 -10.5z" />
    <glyph glyph-name="uni2079" unicode="&#x2079;" horiz-adv-x="312"
d="M21 575q0 63 35.5 91t93.5 28q37 0 62 -14.5t40.5 -40t22.5 -59.5t7 -72q0 -43 -7 -78.5t-26 -60.5t-52.5 -38.5t-85.5 -13.5q-12 0 -27 1t-32 4l3 69q14 -2 29.5 -3t27.5 -1q45 0 64 17t20 64q-14 -5 -30 -7t-28 -2q-50 0 -83.5 26t-33.5 90zM103 576q0 -26 11.5 -36
t32.5 -10q10 0 25 4t24 9q-1 13 -3.5 27.5t-8.5 26.5t-15 19.5t-22 7.5q-20 0 -32 -11t-12 -37z" />
    <glyph glyph-name="uni207A" unicode="&#x207a;" horiz-adv-x="329"
d="M206 476v-90h-86v90h-93v71h93v92h86v-92h95v-71h-95z" />
    <glyph glyph-name="uni207B" unicode="&#x207b;" horiz-adv-x="328"
d="M27 476v71h273v-71h-273z" />
    <glyph glyph-name="uni207C" unicode="&#x207c;" horiz-adv-x="349"
d="M37 531v67h274v-67h-274zM37 424v68h274v-68h-274z" />
    <glyph glyph-name="uni207D" unicode="&#x207d;" horiz-adv-x="202"
d="M41 506q1 68 12 133t29 116h86q-18 -54 -25.5 -117.5t-7.5 -132.5t7.5 -131.5t25.5 -116.5h-86q-18 51 -29.5 117t-11.5 132z" />
    <glyph glyph-name="uni207E" unicode="&#x207e;" horiz-adv-x="202"
d="M119 755q19 -51 30 -116t12 -133q0 -66 -11.5 -132t-30.5 -117h-85q17 53 25 116.5t8 131.5q0 69 -8 132.5t-25 117.5h85z" />
    <glyph glyph-name="n.superior" unicode="&#x207f;" horiz-adv-x="287"
d="M258 338h-80v185q0 18 -19 18q-11 0 -23.5 -5.5t-21.5 -10.5v-187h-79v263h56l6 -19q16 11 35 17.5t39 6.5q16 0 31.5 -3.5t28 -11.5t20 -21.5t7.5 -33.5v-198z" />
    <glyph glyph-name="uni2080" unicode="&#x2080;" horiz-adv-x="328"
d="M29 182q0 52 6.5 88t22 58.5t42 32.5t65.5 10q38 0 63.5 -10t41 -32.5t22 -58.5t6.5 -88t-6.5 -87.5t-22 -58t-41 -32.5t-63.5 -10q-39 0 -65 10t-42 32.5t-22.5 58t-6.5 87.5zM211 182q0 35 -1.5 57t-6.5 35t-14 17.5t-24 4.5q-16 0 -25.5 -4.5t-14.5 -17.5t-6.5 -35
t-1.5 -57q0 -34 1.5 -56.5t6.5 -35.5t14.5 -18t25.5 -5q15 0 24 5t14 18t6.5 35.5t1.5 56.5z" />
    <glyph glyph-name="uni2081" unicode="&#x2081;" horiz-adv-x="210"
d="M74 0v294h-50v72h137v-366h-87z" />
    <glyph glyph-name="uni2082" unicode="&#x2082;" horiz-adv-x="297"
d="M140 66q18 3 35 3h87v-69h-223v62l92 112q16 20 28.5 39.5t12.5 41.5q0 24 -15 35t-36 11q-18 0 -35.5 -2.5t-36.5 -4.5l-3 71q9 2 21.5 3t25.5 2t25 1h21q54 0 86.5 -26t32.5 -83q0 -39 -14.5 -68t-39.5 -58l-38 -45z" />
    <glyph glyph-name="uni2083" unicode="&#x2083;" horiz-adv-x="283"
d="M253 111q0 -35 -11 -57.5t-30.5 -35.5t-45.5 -18.5t-55 -5.5q-20 0 -43.5 1t-40.5 4l4 69q17 -2 40.5 -3.5t39.5 -1.5q25 0 41.5 9.5t16.5 37.5q0 26 -14.5 35t-32.5 9h-49v70h47q26 0 34.5 12.5t8.5 26.5q0 23 -15.5 31t-36.5 8q-14 0 -32.5 -2t-44.5 -6l-3 71
q9 2 21.5 3t26 2t25.5 1h21q55 0 88.5 -22.5t33.5 -74.5q0 -50 -38 -82q18 -10 31 -31t13 -50z" />
    <glyph glyph-name="uni2084" unicode="&#x2084;" horiz-adv-x="327"
d="M261 88v-88h-87v88h-144l-2 65l96 218h83l-68 -165l-10 -22.5t-14 -27.5h63l13 99h70v-97h54v-70h-54z" />
    <glyph glyph-name="uni2085" unicode="&#x2085;" horiz-adv-x="284"
d="M173 111q0 25 -15 33.5t-39 8.5h-81v213h207v-70h-128v-68h11q28 0 52.5 -5.5t41.5 -18.5t27 -34t10 -52q0 -35 -12 -59t-32.5 -38.5t-48 -20.5t-58.5 -6q-17 0 -38.5 1t-36.5 4l2 70q17 -3 38 -4t37 -1q27 0 45 10t18 37z" />
    <glyph glyph-name="uni2086" unicode="&#x2086;" horiz-adv-x="312"
d="M290 118q0 -66 -34.5 -95t-91.5 -29q-37 0 -63 14.5t-42 40t-23 59.5t-7 73q0 43 7.5 78t27 60t52.5 38.5t85 13.5q12 0 27.5 -1t32.5 -3l-3 -71q-15 2 -30 3.5t-28 1.5q-42 0 -61 -20t-21 -63q12 5 29 8t28 3q24 0 45 -6t36.5 -19t24.5 -34.5t9 -51.5zM207 113
q0 25 -10.5 35.5t-30.5 10.5q-9 0 -24.5 -5.5t-23.5 -9.5q1 -13 3.5 -27t7.5 -26t14 -19.5t22 -7.5q20 0 31 11t11 38z" />
    <glyph glyph-name="uni2087" unicode="&#x2087;" horiz-adv-x="267"
d="M138 0h-88l95 261q3 8 7 17t9 18h-144v70h235l2 -53z" />
    <glyph glyph-name="uni2088" unicode="&#x2088;" horiz-adv-x="323"
d="M161 372q25 0 46.5 -5t38 -16.5t26 -30t9.5 -46.5t-11.5 -49t-29.5 -33q20 -14 36.5 -36.5t16.5 -55.5q0 -60 -36.5 -83.5t-95.5 -23.5q-58 0 -95 23.5t-37 83.5q0 32 16 55t38 36q-17 13 -29.5 35t-12.5 48q0 28 9.5 46.5t25.5 30t38 16.5t47 5zM161 307q-20 0 -31 -9.5
t-11 -32.5q0 -15 9.5 -27.5t32.5 -12.5t32.5 12.5t9.5 27.5q0 23 -11.5 32.5t-30.5 9.5zM161 58q23 0 35.5 10.5t12.5 37.5q0 20 -11.5 33t-36.5 13t-36 -13t-11 -33q0 -27 12.5 -37.5t34.5 -10.5z" />
    <glyph glyph-name="uni2089" unicode="&#x2089;" horiz-adv-x="312"
d="M21 252q0 63 35.5 91t93.5 28q37 0 62 -14.5t40.5 -40t22.5 -59.5t7 -72q0 -43 -7 -78.5t-26 -60.5t-52.5 -38.5t-85.5 -13.5q-12 0 -27 1t-32 4l3 69q14 -2 29.5 -3t27.5 -1q45 0 64 17t20 64q-14 -5 -30 -7t-28 -2q-50 0 -83.5 26t-33.5 90zM103 253q0 -26 11.5 -36
t32.5 -10q10 0 25 4t24 9q-1 13 -3.5 27.5t-8.5 26.5t-15 19.5t-22 7.5q-20 0 -32 -11t-12 -37z" />
    <glyph glyph-name="uni208A" unicode="&#x208a;" horiz-adv-x="329"
d="M206 153v-90h-86v90h-93v71h93v92h86v-92h95v-71h-95z" />
    <glyph glyph-name="uni208B" unicode="&#x208b;" horiz-adv-x="328"
d="M27 153v71h273v-71h-273z" />
    <glyph glyph-name="uni208C" unicode="&#x208c;" horiz-adv-x="349"
d="M37 207v67h274v-67h-274zM37 100v68h274v-68h-274z" />
    <glyph glyph-name="uni208D" unicode="&#x208d;" horiz-adv-x="202"
d="M41 183q1 68 12 133t29 116h86q-18 -54 -25.5 -117.5t-7.5 -132.5t7.5 -131.5t25.5 -116.5h-86q-18 51 -29.5 117t-11.5 132z" />
    <glyph glyph-name="uni208E" unicode="&#x208e;" horiz-adv-x="202"
d="M119 432q19 -51 30 -116t12 -133q0 -66 -11.5 -132t-30.5 -117h-85q17 53 25 116.5t8 131.5q0 69 -8 132.5t-25 117.5h85z" />
    <glyph glyph-name="uni20A1" unicode="&#x20a1;" horiz-adv-x="541"
d="M215 -138v143q-94 27 -133 110.5t-39 229.5t39 228.5t133 110.5v128h77v-116q8 1 17 1.5t19 0.5h5v114h78v-118l79 -11l-9 -115q-26 4 -46 7.5t-37.5 6t-34.5 3.5t-36 1q-41 0 -70.5 -9.5t-48.5 -35.5t-28 -73t-9 -123t9 -123.5t28 -73.5t48.5 -35.5t70.5 -9.5
q19 0 36 1.5t34.5 3.5t37.5 5.5t46 8.5l9 -116q-22 -4 -41 -6.5t-38 -4.5v-133h-78v129h-5q-10 0 -19 0.5t-17 1.5v-131h-77z" />
    <glyph glyph-name="uni20A2" unicode="&#x20a2;" horiz-adv-x="541"
d="M490 6q-43 -7 -78.5 -11t-83.5 -4q-79 0 -133.5 21t-88 64.5t-48.5 110t-15 158.5q0 91 15 158t48.5 110t88 64t133.5 21q48 0 83.5 -4t78.5 -11l-9 -115q-26 4 -46 7.5t-37.5 6t-34.5 3.5t-36 1q-41 0 -70.5 -9.5t-48.5 -35.5t-28 -73t-9 -123q0 -65 6.5 -109t20 -71.5
t35 -41t50.5 -17.5v251h93l4 -25h1q9 17 25 23.5t34 6.5q8 0 16 -1t14 -2l-3 -100q-6 2 -14 2.5t-13 0.5q-15 0 -28 -5t-21 -19v-131q19 2 40 6t50 9z" />
    <glyph glyph-name="uni20A3" unicode="&#x20a3;" horiz-adv-x="544"
d="M98 0v236h-83v80h83v52h-83v81h83v240h415v-108h-291v-132h196v-81h-196v-52h196v-80h-196v-236h-124z" />
    <glyph glyph-name="uni20A4" unicode="&#x20a4;" horiz-adv-x="544"
d="M428 234h-165v-64q0 -13 -3 -33t-10 -31v-1q28 3 51 3h218v-108h-478v108h87q8 9 9.5 23.5t1.5 25.5v77h-77v80h77v52h-77v81h77v58q0 54 13.5 90.5t40.5 59.5t67 33t93 10q26 0 66 -3.5t77 -10.5l-5 -110q-35 6 -71.5 10t-63.5 4q-20 0 -37 -3.5t-29.5 -12.5
t-19.5 -25.5t-7 -42.5v-57h165v-81h-165v-52h165v-80z" />
    <glyph glyph-name="uni20A6" unicode="&#x20a6;" horiz-adv-x="758"
d="M497 235q8 -17 15 -40t15 -44l15 -49l-4 51q-2 20 -3 41.5t-1 35.5v459h118v-240h88v-81h-88v-52h88v-80h-88v-236h-168l-206 464q-7 16 -14 36.5t-14 40.5l-14 46l4 -49q2 -20 3 -41t1 -34v-463h-118v236h-108v80h108v52h-108v81h108v240h168z" />
    <glyph glyph-name="uni20A7" unicode="&#x20a7;" horiz-adv-x="1291"
d="M535 472q0 -7 -0.5 -13.5t-0.5 -12.5l74 1l4 130h106v-127h125v-104h-125v-215q0 -20 9 -27.5t32 -7.5q12 0 37 2t45 6l4 -100q-24 -6 -57.5 -9.5t-58.5 -3.5q-35 0 -59.5 8.5t-40 23.5t-22.5 35.5t-7 43.5v244h-90q-14 -30 -33 -49q-23 -23 -54.5 -32.5t-77.5 -9.5h-126
v-255h-124v689h248q45 0 79.5 -10.5t56.5 -32.5q32 -32 44 -78t12 -96zM1072 388q-13 0 -25.5 -1t-22.5 -4.5t-16.5 -10t-6.5 -17.5q0 -23 22 -35l110 -59q19 -11 35.5 -22t27.5 -25.5t17.5 -34t6.5 -47.5q0 -75 -52.5 -108.5t-139.5 -33.5q-38 0 -74.5 2t-59.5 7l5 101
q15 -2 33.5 -3.5t36 -2t32 -1t21.5 -0.5q35 0 57 6t22 32q0 12 -6.5 20t-17.5 14l-105 56q-14 7 -29.5 18t-29 27.5t-22.5 39.5t-9 53q0 36 14 60.5t38.5 40.5t58 23t72.5 7q29 0 63 -2.5t60 -7.5l-5 -100q-36 5 -64.5 6.5t-46.5 1.5zM406 472q0 48 -14.5 77.5t-59.5 29.5
h-113v-214h113q47 0 60.5 29t13.5 78z" />
    <glyph glyph-name="uni20A8" unicode="&#x20a8;" horiz-adv-x="982"
d="M407 0l-109 271h-80v-271h-123v689h250q54 0 91 -16t59 -43.5t31.5 -64.5t9.5 -79q0 -87 -29 -137t-85 -67l120 -282h-135zM406 483q0 48 -14.5 72t-59.5 24h-114v-198h115q46 0 59.5 26.5t13.5 75.5zM911 133q0 -36 -14.5 -63t-39 -44.5t-56 -26t-64.5 -8.5q-15 0 -35 1
t-41 3.5t-40.5 5.5t-32.5 6l7 100q38 -8 76 -14t62 -6q34 0 48 10.5t14 28.5q0 11 -4 17.5t-10 12.5q-13 13 -34.5 24t-46 23t-48.5 25t-40 30q-17 17 -27.5 39.5t-10.5 56.5q0 37 16 62t41.5 41t57 23t61.5 7q28 0 63 -3.5t68 -10.5l-8 -98q-33 7 -68 11t-60 4
q-26 0 -39.5 -10t-13.5 -26q0 -10 3 -15.5t10 -12.5q10 -11 32 -22.5t47.5 -24.5t50 -27.5t39.5 -29.5t26 -37t11 -52z" />
    <glyph glyph-name="uni20A9" unicode="&#x20a9;" horiz-adv-x="993"
d="M161 236h-142v80h126l-11 52h-115v81h98l-50 240h121l85 -449q3 -15 5.5 -40.5t4.5 -49.5l5 -58l6 59q2 25 5.5 49.5t6.5 39.5l89 449h163l92 -449q3 -15 5.5 -40t4.5 -49l5 -58l2 30t3 29q3 25 6 49.5t6 39.5l85 448h122l-50 -240h135v-81h-152l-11 -52h163v-80h-179
l-49 -236h-153l-99 489q-3 14 -6 36.5t-6 42.5q-2 13 -2.5 24t-1.5 24l-5 -48q-3 -20 -5.5 -41t-5.5 -36l-98 -491h-153z" />
    <glyph glyph-name="uni20AA" unicode="&#x20aa;" horiz-adv-x="868"
d="M455 0q-90 0 -130 46.5t-40 132.5v359h113v-344q0 -48 15.5 -68.5t62.5 -20.5h177v584h120v-689h-318zM414 689q90 0 130 -46.5t40 -132.5v-359h-113v344q0 48 -16.5 68.5t-63.5 20.5h-176v-584h-120v689h319z" />
    <glyph glyph-name="Euro" unicode="&#x20ac;" horiz-adv-x="541"
d="M514 6q-43 -7 -78.5 -11t-83.5 -4q-66 0 -115 14.5t-83 45t-53.5 77t-27.5 110.5h-74v80h68v52h-68v81h73q8 64 27.5 110.5t53.5 77t83 45t116 14.5q48 0 83.5 -4t78.5 -11l-9 -115q-26 4 -46 7.5t-37.5 6t-34.5 3.5t-36 1q-33 0 -58 -5.5t-43.5 -20.5t-30.5 -41.5
t-18 -67.5h256l-39 -81h-223v-52h207l-39 -80h-162q6 -42 18 -68t30.5 -41t44 -20.5t57.5 -5.5q19 0 36 1.5t34.5 3.5t37.5 5.5t46 8.5z" />
    <glyph glyph-name="uni20AE" unicode="&#x20ae;" horiz-adv-x="552"
d="M343 579v-139l133 62v-94l-133 -62v-60l133 62v-91l-133 -62v-195h-123v137l-131 -61v92l131 61v59l-131 -61v94l131 61v197h-168v110h458v-110h-167z" />
    <glyph glyph-name="uni20B1" unicode="&#x20b1;" horiz-adv-x="661"
d="M664 366h-124q-8 -20 -17.5 -37.5t-23.5 -31.5q-23 -23 -54.5 -32.5t-77.5 -9.5h-126v-255h-124v366h-110v80h110v52h-110v81h110v110h248q45 0 79.5 -10.5t56.5 -32.5q26 -27 40 -67h123v-81h-108q1 -7 1 -13.5v-12.5q0 -7 -0.5 -13.5t-0.5 -12.5h108v-80zM428 472
q0 48 -14.5 77.5t-59.5 29.5h-113v-214h113q47 0 60.5 29t13.5 78z" />
    <glyph glyph-name="afii61248" unicode="&#x2105;" horiz-adv-x="893"
d="M20 486q0 54 9.5 93t30.5 65t55 38.5t84 12.5q19 0 44 -1.5t49 -6.5l-3 -76q-23 5 -43.5 6.5t-37.5 1.5q-24 0 -41 -6t-28 -21t-16 -41t-5 -65t5 -64t16 -40t28 -21t41 -6q17 0 41 2t46 5l3 -77q-26 -5 -53 -6.5t-46 -1.5q-51 0 -85 12.5t-55 38.5t-30 65.5t-9 92.5z
M874 203q0 -108 -37.5 -159t-128.5 -51q-92 0 -130 50.5t-38 159.5t38 159.5t130 50.5q91 0 128.5 -51t37.5 -159zM638 203q0 -41 4 -66.5t13 -40t22 -20t31 -5.5t31 5.5t22 20t13 40t4 66.5q0 40 -4 66t-13 40.5t-22 20t-31 5.5t-31 -5.5t-22 -20.5t-13 -40.5t-4 -65.5z
M269 0h-81l397 689h82z" />
    <glyph glyph-name="litre" unicode="&#x2113;" horiz-adv-x="382"
d="M82 156l-42 -11l-2 103q11 5 24 8.5t20 8.5v257q0 95 36.5 136t102.5 41q34 0 58 -11t39.5 -29t23 -42t7.5 -50q0 -43 -11.5 -89.5t-31.5 -91.5t-47 -84.5t-59 -69.5v-100q0 -20 7.5 -31t26.5 -11q34 0 71 14l4 -97q-11 -5 -24 -8t-26.5 -4.5t-25.5 -2.5t-21 -1
q-39 0 -64 10.5t-40 27.5t-20.5 39t-5.5 46v42zM194 362q29 48 39.5 99t10.5 103q0 20 -8.5 27.5t-16.5 7.5q-11 0 -18 -10.5t-7 -36.5v-190z" />
    <glyph glyph-name="numero" unicode="&#x2116;" horiz-adv-x="1171"
d="M1111 449q0 -128 -51.5 -189t-164.5 -61q-112 0 -164 61.5t-52 189.5t51.5 188.5t164.5 60.5q112 0 164 -60.5t52 -189.5zM435 259q11 -24 21.5 -53.5t19.5 -58.5h2q-2 30 -3.5 57t-1.5 55l-1 430h117v-689h-166l-184 430q-11 24 -21.5 51.5t-19.5 56.5h-2q2 -30 3.5 -55
t1.5 -53l1 -430h-117v689h173zM989 449q0 46 -6 74.5t-18 44.5t-29.5 22t-40.5 6t-40.5 -6t-29.5 -22t-18 -44.5t-6 -73.5q0 -46 6 -74.5t18 -44.5t29.5 -22t40.5 -6q24 0 41.5 6t29 22t17.5 44.5t6 73.5zM1069 0h-345v104h345v-104z" />
    <glyph glyph-name="servicemark" unicode="&#x2120;" horiz-adv-x="470"
d="M176 535q0 -29 -22.5 -41t-52.5 -12q-8 0 -23 0.5t-32 2.5q0 8 0.5 21t0.5 21q14 -2 30 -3.5t24 -1.5q12 0 21 3t9 11t-5 13q-14 14 -32 23t-35 26q-8 8 -13 17.5t-5 25.5q0 28 20 39t50 11q8 0 22.5 -0.5t31.5 -3.5v-41q-14 2 -30 3.5t-25 1.5t-15.5 -3t-6.5 -9
q0 -7 5 -12q15 -15 33.5 -25t33.5 -25q16 -16 16 -42zM379 484l1 92l1 66h-1l-15 -66l-27 -92h-50l-26 93l-15 67h-1l1 -65v-95h-44v205h67l34 -120q3 -11 5.5 -24t3.5 -23h1q2 10 4 22t6 25l33 120h67v-205h-45z" />
    <glyph glyph-name="trademark" unicode="&#x2122;" horiz-adv-x="489"
d="M139 648v-164h-44v165h-54v40h151v-41h-53zM398 484l1 92l1 66h-1l-15 -66l-27 -92h-50l-26 93l-15 67h-1l1 -65v-95h-44v205h67l34 -120q3 -11 5.5 -24t3.5 -23h1q2 10 4 22t6 25l33 120h67v-205h-45z" />
    <glyph glyph-name="Omega" unicode="&#x2126;" horiz-adv-x="662"
d="M330 699q76 0 129.5 -23.5t87 -63t48.5 -92.5t15 -113q0 -52 -9.5 -96t-25.5 -81.5t-36 -67.5t-41 -54v-2l93 2v-108h-232v104q21 25 43 53t39 62.5t28 79t11 102.5q0 36 -7 70.5t-24 61.5t-45.5 43t-72.5 16t-72.5 -16t-45.5 -43t-24 -61.5t-7 -70.5q0 -58 10.5 -102.5
t28 -79t39 -62.5t43.5 -53v-104h-232v108l97 -2v2q-21 24 -42 54t-37.5 67.5t-26.5 81.5t-10 96q0 60 15 113t48 92.5t86 63t129 23.5z" />
    <glyph glyph-name="estimated" unicode="&#x212e;" horiz-adv-x="761"
d="M697 233q-20 -128 -101 -186t-215 -58q-76 0 -137 25t-104.5 70.5t-67 110t-23.5 143.5q0 78 23.5 142.5t67 110t105 70.5t136.5 25q73 0 133.5 -25t103.5 -70.5t66.5 -110t23.5 -142.5v-33h-539q2 -51 14.5 -97t38.5 -80.5t66.5 -55t99.5 -20.5q98 0 159.5 43.5
t76.5 137.5h73zM381 622q-57 0 -96.5 -20.5t-64.5 -55t-37 -80.5t-14 -97h420q-2 51 -13.5 97t-35.5 80.5t-63 55t-96 20.5z" />
    <glyph glyph-name="oneeighth" unicode="&#x215b;" horiz-adv-x="620"
d="M74 323v294h-50v72h137v-366h-87zM108 0h-81l397 689h82zM458 372q25 0 46.5 -5t38 -16.5t26 -30t9.5 -46.5t-11.5 -49t-29.5 -33q20 -14 36.5 -36.5t16.5 -55.5q0 -60 -36.5 -83.5t-95.5 -23.5q-58 0 -95 23.5t-37 83.5q0 32 16 55t38 36q-17 13 -29.5 35t-12.5 48
q0 28 9.5 46.5t25.5 30t38 16.5t47 5zM458 307q-20 0 -31 -9.5t-11 -32.5q0 -15 9.5 -27.5t32.5 -12.5t32.5 12.5t9.5 27.5q0 23 -11.5 32.5t-30.5 9.5zM458 58q23 0 35.5 10.5t12.5 37.5q0 20 -11.5 33t-36.5 13t-36 -13t-11 -33q0 -27 12.5 -37.5t34.5 -10.5z" />
    <glyph glyph-name="threeeighths" unicode="&#x215c;" horiz-adv-x="675"
d="M513 372q25 0 46.5 -5t38 -16.5t26 -30t9.5 -46.5t-11.5 -49t-29.5 -33q20 -14 36.5 -36.5t16.5 -55.5q0 -60 -36.5 -83.5t-95.5 -23.5q-58 0 -95 23.5t-37 83.5q0 32 16 55t38 36q-17 13 -29.5 35t-12.5 48q0 28 9.5 46.5t25.5 30t38 16.5t47 5zM513 307q-20 0 -31 -9.5
t-11 -32.5q0 -15 9.5 -27.5t32.5 -12.5t32.5 12.5t9.5 27.5q0 23 -11.5 32.5t-30.5 9.5zM513 58q23 0 35.5 10.5t12.5 37.5q0 20 -11.5 33t-36.5 13t-36 -13t-11 -33q0 -27 12.5 -37.5t34.5 -10.5zM253 434q0 -35 -11 -57.5t-30.5 -35.5t-45.5 -18.5t-55 -5.5q-20 0 -43.5 1
t-40.5 4l4 69q17 -2 40.5 -3.5t39.5 -1.5q25 0 41.5 9.5t16.5 37.5q0 26 -14.5 35t-32.5 9h-49v70h47q26 0 34.5 12.5t8.5 26.5q0 23 -15.5 31t-36.5 8q-14 0 -32.5 -2t-44.5 -6l-3 71q9 2 21.5 3t26 2t25.5 1h21q55 0 88.5 -22.5t33.5 -74.5q0 -50 -38 -82q18 -10 31 -31
t13 -50zM163 0h-81l397 689h82z" />
    </font>
</defs>
</svg>
