<svg id="Layer_1" data-name="Layer 1" xmlns="http://www.w3.org/2000/svg" viewBox="0 0 175.22 51.77"><defs><style>.cls-1{fill:#fff;}.cls-2{fill:#457c1f;}.cls-3{fill:#fd0;}</style></defs><title>john-deere-logo</title><rect class="cls-1" x="12.25" width="162.96" height="51.77"/><path class="cls-2" d="M68,29.72a9.11,9.11,0,0,0,2.75.47c1.55,0,2.51-.21,3-.76a3.08,3.08,0,0,0,.6-2.32v-7.4h2.29v7.72c0,3.42-1.68,4.88-5.52,4.88A15.54,15.54,0,0,1,68,32ZM78,27.2c0,2.35,1.53,5.11,5.86,5.11s5.86-2.76,5.86-5.11c0-3.3-2.19-5.28-5.86-5.28S78,23.9,78,27.2Zm5.86,3.09c-1.34,0-3.59-.42-3.59-3.2,0-2,1.31-3.14,3.59-3.14s3.58,1.15,3.58,3.14C87.44,29.87,85.19,30.29,83.86,30.29Zm15.45-8.13v3.95h-6V22.16H91.08v9.92h2.28V28.13h6v3.95h2.28V22.16Zm36.31,7.89V28.13h5.27v-2h-5.27V24.19h6.82v-2h-9.1v9.92h9.1v-2Zm10.62,0V28.13h5.28v-2h-5.28V24.19h6.82v-2H144v9.92h9.1v-2Zm22.16,0V28.13h5.27v-2H168.4V24.19h6.82v-2h-9.1v9.92h9.1v-2Zm-46.46-8.31V30h3.23c1.75,0,4.7-.54,4.7-4.18,0-2.61-1.71-4.11-4.7-4.11Zm3.23-2c4.38,0,7,2.36,7,6.28,0,2.82-1.84,6.11-7,6.11h-5.52V19.69h5.52Zm39.9,12.39h-2.76l-2.76-3.63h-2.68v3.63h-2.29V22.16H161c2.23,0,3.55,1.19,3.55,3.18a3,3,0,0,1-2.39,3Zm-3.9-5.65a1.1,1.1,0,0,0,1.26-1.13c0-.71-.46-1.11-1.26-1.11H157v2.23ZM114,32.08V22.16h-2.28v6.69l-6-6.69h-2.27v9.92h2.29V25.32l5.94,6.76Z"/><path class="cls-2" d="M58.43,15.3a29.16,29.16,0,0,0-12.75-2.92,28.86,28.86,0,0,0-12.75,2.94,27.69,27.69,0,0,0,0,21.13,28.93,28.93,0,0,0,12.76,2.93,29.15,29.15,0,0,0,12.75-2.91,27.73,27.73,0,0,0,0-21.17Z"/><path class="cls-3" d="M57.52,16.1a28.09,28.09,0,0,0-23.69,0,26.56,26.56,0,0,0,0,19.53,27.69,27.69,0,0,0,11.85,2.63,28,28,0,0,0,11.85-2.61,26.74,26.74,0,0,0,0-19.57ZM41.63,22.82A12.18,12.18,0,0,0,40.42,27l-.37,0a13.59,13.59,0,0,0-3.88.71l.09.52a18,18,0,0,0,5.29,4.19l.08-.08-.69-1.09a2.26,2.26,0,0,0-.6-.23c-1.43-.47-2.43-2.34-2.6-2.66A10,10,0,0,1,41,29a12.93,12.93,0,0,0,1.93.53,11.87,11.87,0,0,0,3.38-.17,13.53,13.53,0,0,1,2.54,0A7.44,7.44,0,0,0,50.62,31a39.36,39.36,0,0,0,4.27,1.52,12.72,12.72,0,0,1,2,2.62,26.94,26.94,0,0,1-11.18,2.42A26.82,26.82,0,0,1,34.47,35.1a25.61,25.61,0,0,1,0-18.43,27,27,0,0,1,22.4,0,25.57,25.57,0,0,1,.28,17.68,25.47,25.47,0,0,0-1.54-2.48,20.29,20.29,0,0,1-1.92-1.13,2.94,2.94,0,0,1-.61-1.41,6.05,6.05,0,0,0-1.35-2.79l.92-.38c-.26-1.78-2.36-2.93-2.39-2.94l-.11.05a4.08,4.08,0,0,1,1,2.39,2,2,0,0,1-.06.52,15.13,15.13,0,0,0-5.33-.46,2.34,2.34,0,0,1-1.7-.44,1.38,1.38,0,0,1-.38-1h0a12.45,12.45,0,0,1,.59-3.11l.93.11A5.22,5.22,0,0,0,46.82,20l0-.05c-.94.12-2.16.36-2.16.36a5.1,5.1,0,0,0,.33-1.71,2.52,2.52,0,0,0-1.39-2.4l-.12.06a2.61,2.61,0,0,1,.64,1.63,2.16,2.16,0,0,1-.17.83,2.05,2.05,0,0,0-.94-.17,2.67,2.67,0,0,0-1.72-1.68l-.11.07a2.4,2.4,0,0,1,1,1.63,4.75,4.75,0,0,0-1.24.26,2,2,0,0,0-1.48-.77l-.09.06s.82.29,1,.91a7.37,7.37,0,0,0-1.39.88l0,.13c2.11-.82,4.07-1.05,4.58-.46a.56.56,0,0,1,.12.36,1.21,1.21,0,0,1-.2.61,31.77,31.77,0,0,0-3.88,1.15l.17.54,1.78.36A.13.13,0,0,1,41.63,22.82Z"/><rect class="cls-2" width="9.19" height="51.77"/><rect class="cls-3" x="9.19" width="3.06" height="51.77"/></svg>